URWBookmanL-DemiBold.ufo
<glyph name="exclam" format="1">
  <advance width="360"/>
  <unicode hex="0021"/>
  <outline>
    <contour>
      <point x="182" y="172" type="curve" smooth="yes"/>
      <point x="131" y="172"/>
      <point x="89" y="131"/>
      <point x="89" y="82" type="curve" smooth="yes"/>
      <point x="89" y="29"/>
      <point x="130" y="-13"/>
      <point x="181" y="-13" type="curve" smooth="yes"/>
      <point x="232" y="-13"/>
      <point x="274" y="29"/>
      <point x="274" y="80" type="curve" smooth="yes"/>
      <point x="274" y="131"/>
      <point x="233" y="172"/>
    </contour>
    <contour>
      <point x="223" y="216" type="line"/>
      <point x="230" y="312"/>
      <point x="236" y="353"/>
      <point x="258" y="451" type="curve" smooth="yes"/>
      <point x="278" y="535"/>
      <point x="282" y="556"/>
      <point x="282" y="584" type="curve" smooth="yes"/>
      <point x="282" y="651"/>
      <point x="243" y="694"/>
      <point x="183" y="694" type="curve" smooth="yes"/>
      <point x="126" y="694"/>
      <point x="82" y="650"/>
      <point x="82" y="594" type="curve" smooth="yes"/>
      <point x="82" y="561"/>
      <point x="86" y="537"/>
      <point x="106" y="445" type="curve" smooth="yes"/>
      <point x="123" y="368"/>
      <point x="132" y="309"/>
      <point x="141" y="216" type="curve"/>
    </contour>
  </outline>
</glyph>
<glyph name="quotedbl" format="1">
  <advance width="420"/>
  <unicode hex="0022"/>
  <outline>
    <contour>
      <point x="55" y="383" type="line"/>
      <point x="103" y="383" type="line"/>
      <point x="143" y="596" type="line" smooth="yes"/>
      <point x="146" y="612"/>
      <point x="147" y="618"/>
      <point x="147" y="624" type="curve" smooth="yes"/>
      <point x="147" y="664"/>
      <point x="118" y="694"/>
      <point x="79" y="694" type="curve" smooth="yes"/>
      <point x="41" y="694"/>
      <point x="11" y="664"/>
      <point x="11" y="625" type="curve" smooth="yes"/>
      <point x="11" y="618"/>
      <point x="12" y="612"/>
      <point x="15" y="596" type="curve" smooth="yes"/>
    </contour>
    <contour>
      <point x="277" y="383" type="line"/>
      <point x="325" y="383" type="line"/>
      <point x="365" y="596" type="line" smooth="yes"/>
      <point x="368" y="612"/>
      <point x="369" y="618"/>
      <point x="369" y="624" type="curve" smooth="yes"/>
      <point x="369" y="664"/>
      <point x="340" y="694"/>
      <point x="301" y="694" type="curve" smooth="yes"/>
      <point x="263" y="694"/>
      <point x="233" y="664"/>
      <point x="233" y="625" type="curve" smooth="yes"/>
      <point x="233" y="618"/>
      <point x="234" y="612"/>
      <point x="237" y="596" type="curve" smooth="yes"/>
    </contour>
  </outline>
</glyph>
<glyph name="numbersign" format="1">
  <advance width="660"/>
  <unicode hex="0023"/>
  <outline>
    <contour>
      <point x="458" y="304" type="line"/>
      <point x="471" y="390" type="line"/>
      <point x="576" y="390" type="line"/>
      <point x="576" y="475" type="line"/>
      <point x="483" y="475" type="line"/>
      <point x="513" y="681" type="line"/>
      <point x="427" y="681" type="line"/>
      <point x="397" y="475" type="line"/>
      <point x="310" y="475" type="line"/>
      <point x="340" y="681" type="line"/>
      <point x="254" y="681" type="line"/>
      <point x="224" y="475" type="line"/>
      <point x="112" y="475" type="line"/>
      <point x="112" y="390" type="line"/>
      <point x="211" y="390" type="line"/>
      <point x="198" y="304" type="line"/>
      <point x="84" y="304" type="line"/>
      <point x="84" y="219" type="line"/>
      <point x="186" y="219" type="line"/>
      <point x="154" y="0" type="line"/>
      <point x="240" y="0" type="line"/>
      <point x="273" y="219" type="line"/>
      <point x="359" y="219" type="line"/>
      <point x="327" y="0" type="line"/>
      <point x="413" y="0" type="line"/>
      <point x="446" y="219" type="line"/>
      <point x="548" y="219" type="line"/>
      <point x="548" y="304" type="line"/>
    </contour>
    <contour>
      <point x="371" y="304" type="line"/>
      <point x="285" y="304" type="line"/>
      <point x="298" y="390" type="line"/>
      <point x="384" y="390" type="line"/>
    </contour>
  </outline>
</glyph>
<glyph name="dollar" format="1">
  <advance width="660"/>
  <unicode hex="0024"/>
  <outline>
    <contour>
      <point x="369" y="805" type="line"/>
      <point x="306" y="805" type="line"/>
      <point x="306" y="669" type="line"/>
      <point x="158" y="659"/>
      <point x="66" y="583"/>
      <point x="66" y="471" type="curve" smooth="yes"/>
      <point x="66" y="412"/>
      <point x="95" y="363"/>
      <point x="145" y="337" type="curve" smooth="yes"/>
      <point x="180" y="318"/>
      <point x="198" y="313"/>
      <point x="298" y="290" type="curve" smooth="yes"/>
      <point x="387" y="269" type="line" smooth="yes"/>
      <point x="456" y="253"/>
      <point x="475" y="236"/>
      <point x="475" y="193" type="curve" smooth="yes"/>
      <point x="475" y="136"/>
      <point x="416" y="98"/>
      <point x="327" y="98" type="curve" smooth="yes"/>
      <point x="252" y="98"/>
      <point x="202" y="124"/>
      <point x="202" y="161" type="curve" smooth="yes"/>
      <point x="202" y="165"/>
      <point x="202" y="170"/>
      <point x="203" y="175" type="curve" smooth="yes"/>
      <point x="206" y="193"/>
      <point x="206" y="193"/>
      <point x="206" y="196" type="curve" smooth="yes"/>
      <point x="206" y="232"/>
      <point x="169" y="262"/>
      <point x="126" y="262" type="curve" smooth="yes"/>
      <point x="80" y="262"/>
      <point x="48" y="230"/>
      <point x="48" y="184" type="curve" smooth="yes"/>
      <point x="48" y="97"/>
      <point x="145" y="38"/>
      <point x="306" y="26" type="curve"/>
      <point x="306" y="-120" type="line"/>
      <point x="369" y="-120" type="line"/>
      <point x="369" y="26" type="line"/>
      <point x="525" y="42"/>
      <point x="620" y="119"/>
      <point x="620" y="231" type="curve" smooth="yes"/>
      <point x="620" y="329"/>
      <point x="563" y="381"/>
      <point x="420" y="413" type="curve" smooth="yes"/>
      <point x="349" y="429" type="line" smooth="yes"/>
      <point x="294" y="442"/>
      <point x="261" y="453"/>
      <point x="241" y="466" type="curve" smooth="yes"/>
      <point x="223" y="478"/>
      <point x="211" y="502"/>
      <point x="211" y="524" type="curve" smooth="yes"/>
      <point x="211" y="571"/>
      <point x="256" y="602"/>
      <point x="326" y="602" type="curve" smooth="yes"/>
      <point x="388" y="602"/>
      <point x="442" y="578"/>
      <point x="447" y="549" type="curve" smooth="yes"/>
      <point x="451" y="517"/>
      <point x="452" y="514"/>
      <point x="463" y="500" type="curve" smooth="yes"/>
      <point x="478" y="479"/>
      <point x="501" y="467"/>
      <point x="525" y="467" type="curve" smooth="yes"/>
      <point x="561" y="467"/>
      <point x="586" y="493"/>
      <point x="586" y="530" type="curve" smooth="yes"/>
      <point x="586" y="601"/>
      <point x="495" y="660"/>
      <point x="369" y="670" type="curve"/>
    </contour>
  </outline>
</glyph>
<glyph name="percent" format="1">
  <advance width="940"/>
  <unicode hex="0025"/>
  <outline>
    <contour>
      <point x="207" y="689" type="curve" smooth="yes"/>
      <point x="89" y="689"/>
      <point x="12" y="604"/>
      <point x="12" y="474" type="curve" smooth="yes"/>
      <point x="12" y="346"/>
      <point x="86" y="265"/>
      <point x="204" y="265" type="curve" smooth="yes"/>
      <point x="321" y="265"/>
      <point x="396" y="348"/>
      <point x="396" y="478" type="curve" smooth="yes"/>
      <point x="396" y="605"/>
      <point x="321" y="689"/>
    </contour>
    <contour>
      <point x="204" y="627" type="curve" smooth="yes"/>
      <point x="248" y="627"/>
      <point x="273" y="572"/>
      <point x="273" y="477" type="curve" smooth="yes"/>
      <point x="273" y="381"/>
      <point x="248" y="327"/>
      <point x="204" y="327" type="curve" smooth="yes"/>
      <point x="159" y="327"/>
      <point x="135" y="381"/>
      <point x="135" y="479" type="curve" smooth="yes"/>
      <point x="135" y="572"/>
      <point x="160" y="627"/>
    </contour>
    <contour>
      <point x="718" y="681" type="line"/>
      <point x="637" y="681" type="line"/>
      <point x="212" y="0" type="line"/>
      <point x="290" y="0" type="line"/>
    </contour>
    <contour>
      <point x="735" y="416" type="curve" smooth="yes"/>
      <point x="617" y="416"/>
      <point x="540" y="331"/>
      <point x="540" y="201" type="curve" smooth="yes"/>
      <point x="540" y="73"/>
      <point x="614" y="-8"/>
      <point x="732" y="-8" type="curve" smooth="yes"/>
      <point x="849" y="-8"/>
      <point x="924" y="75"/>
      <point x="924" y="205" type="curve" smooth="yes"/>
      <point x="924" y="332"/>
      <point x="849" y="416"/>
    </contour>
    <contour>
      <point x="732" y="354" type="curve" smooth="yes"/>
      <point x="776" y="354"/>
      <point x="801" y="299"/>
      <point x="801" y="204" type="curve" smooth="yes"/>
      <point x="801" y="108"/>
      <point x="776" y="54"/>
      <point x="732" y="54" type="curve" smooth="yes"/>
      <point x="687" y="54"/>
      <point x="663" y="108"/>
      <point x="663" y="206" type="curve" smooth="yes"/>
      <point x="663" y="299"/>
      <point x="688" y="354"/>
    </contour>
  </outline>
</glyph>
<glyph name="ampersand" format="1">
  <advance width="800"/>
  <unicode hex="0026"/>
  <outline>
    <contour>
      <point x="772" y="86" type="line"/>
      <point x="748" y="84"/>
      <point x="736" y="84"/>
      <point x="725" y="84" type="curve" smooth="yes"/>
      <point x="658" y="84"/>
      <point x="615" y="107"/>
      <point x="577" y="162" type="curve"/>
      <point x="603" y="193"/>
      <point x="630" y="254"/>
      <point x="647" y="319" type="curve"/>
      <point x="658" y="381"/>
      <point x="680" y="397"/>
      <point x="758" y="404" type="curve"/>
      <point x="758" y="482" type="line"/>
      <point x="495" y="482" type="line"/>
      <point x="495" y="404" type="line"/>
      <point x="538" y="397"/>
      <point x="550" y="387"/>
      <point x="550" y="361" type="curve" smooth="yes"/>
      <point x="550" y="331"/>
      <point x="542" y="302"/>
      <point x="518" y="246" type="curve"/>
      <point x="497" y="282"/>
      <point x="443" y="346"/>
      <point x="392" y="398" type="curve"/>
      <point x="457" y="436"/>
      <point x="494" y="492"/>
      <point x="494" y="549" type="curve" smooth="yes"/>
      <point x="494" y="633"/>
      <point x="419" y="694"/>
      <point x="313" y="694" type="curve" smooth="yes"/>
      <point x="195" y="694"/>
      <point x="113" y="626"/>
      <point x="113" y="528" type="curve" smooth="yes"/>
      <point x="113" y="480"/>
      <point x="133" y="435"/>
      <point x="170" y="398" type="curve"/>
      <point x="133" y="384"/>
      <point x="112" y="372"/>
      <point x="90" y="352" type="curve" smooth="yes"/>
      <point x="48" y="313"/>
      <point x="21" y="252"/>
      <point x="21" y="195" type="curve" smooth="yes"/>
      <point x="21" y="74"/>
      <point x="127" y="-13"/>
      <point x="276" y="-13" type="curve" smooth="yes"/>
      <point x="352" y="-13"/>
      <point x="423" y="11"/>
      <point x="479" y="56" type="curve"/>
      <point x="529" y="12"/>
      <point x="576" y="-3"/>
      <point x="665" y="-3" type="curve" smooth="yes"/>
      <point x="712" y="-3"/>
      <point x="736" y="-2"/>
      <point x="772" y="4" type="curve"/>
    </contour>
    <contour>
      <point x="320" y="462" type="line"/>
      <point x="286" y="502"/>
      <point x="275" y="525"/>
      <point x="275" y="553" type="curve" smooth="yes"/>
      <point x="275" y="580"/>
      <point x="298" y="602"/>
      <point x="326" y="602" type="curve" smooth="yes"/>
      <point x="353" y="602"/>
      <point x="374" y="580"/>
      <point x="374" y="550" type="curve" smooth="yes"/>
      <point x="374" y="521"/>
      <point x="354" y="486"/>
      <point x="326" y="466" type="curve" smooth="yes"/>
    </contour>
    <contour>
      <point x="415" y="124" type="line"/>
      <point x="376" y="100"/>
      <point x="342" y="89"/>
      <point x="306" y="89" type="curve" smooth="yes"/>
      <point x="238" y="89"/>
      <point x="195" y="140"/>
      <point x="195" y="219" type="curve" smooth="yes"/>
      <point x="195" y="270"/>
      <point x="209" y="307"/>
      <point x="237" y="331" type="curve"/>
      <point x="274" y="302"/>
      <point x="322" y="249"/>
      <point x="363" y="193" type="curve" smooth="yes"/>
      <point x="384" y="163"/>
      <point x="399" y="142"/>
      <point x="404" y="136" type="curve" smooth="yes"/>
    </contour>
  </outline>
</glyph>
<glyph name="quotesingle" format="1">
  <advance width="240"/>
  <unicode hex="0027"/>
  <outline>
    <contour>
      <point x="86" y="383" type="line"/>
      <point x="134" y="383" type="line"/>
      <point x="174" y="596" type="line" smooth="yes"/>
      <point x="177" y="612"/>
      <point x="178" y="618"/>
      <point x="178" y="624" type="curve" smooth="yes"/>
      <point x="178" y="664"/>
      <point x="149" y="694"/>
      <point x="110" y="694" type="curve" smooth="yes"/>
      <point x="72" y="694"/>
      <point x="42" y="664"/>
      <point x="42" y="625" type="curve" smooth="yes"/>
      <point x="42" y="618"/>
      <point x="43" y="612"/>
      <point x="46" y="596" type="curve" smooth="yes"/>
    </contour>
  </outline>
</glyph>
<glyph name="parenleft" format="1">
  <advance width="320"/>
  <unicode hex="0028"/>
  <outline>
    <contour>
      <point x="289" y="737" type="line"/>
      <point x="213" y="735"/>
      <point x="169" y="715"/>
      <point x="122" y="664" type="curve" smooth="yes"/>
      <point x="74" y="610"/>
      <point x="48" y="518"/>
      <point x="48" y="398" type="curve" smooth="yes"/>
      <point x="48" y="184" type="line" smooth="yes"/>
      <point x="48" y="21"/>
      <point x="92" y="-81"/>
      <point x="185" y="-131" type="curve" smooth="yes"/>
      <point x="216" y="-149"/>
      <point x="239" y="-154"/>
      <point x="289" y="-155" type="curve"/>
      <point x="289" y="-73" type="line"/>
      <point x="252" y="-64"/>
      <point x="233" y="-47"/>
      <point x="214" y="-7" type="curve" smooth="yes"/>
      <point x="199" y="26"/>
      <point x="186" y="115"/>
      <point x="186" y="187" type="curve" smooth="yes"/>
      <point x="186" y="395" type="line" smooth="yes"/>
      <point x="186" y="455"/>
      <point x="197" y="546"/>
      <point x="209" y="577" type="curve" smooth="yes"/>
      <point x="226" y="623"/>
      <point x="249" y="645"/>
      <point x="289" y="656" type="curve"/>
    </contour>
  </outline>
</glyph>
<glyph name="parenright" format="1">
  <advance width="320"/>
  <unicode hex="0029"/>
  <outline>
    <contour>
      <point x="20" y="656" type="line"/>
      <point x="57" y="646"/>
      <point x="76" y="629"/>
      <point x="95" y="589" type="curve" smooth="yes"/>
      <point x="110" y="557"/>
      <point x="123" y="468"/>
      <point x="123" y="395" type="curve" smooth="yes"/>
      <point x="123" y="187" type="line" smooth="yes"/>
      <point x="123" y="127"/>
      <point x="112" y="35"/>
      <point x="100" y="5" type="curve" smooth="yes"/>
      <point x="83" y="-41"/>
      <point x="60" y="-63"/>
      <point x="20" y="-73" type="curve"/>
      <point x="20" y="-155" type="line"/>
      <point x="97" y="-153"/>
      <point x="140" y="-134"/>
      <point x="188" y="-82" type="curve" smooth="yes"/>
      <point x="236" y="-28"/>
      <point x="262" y="64"/>
      <point x="262" y="184" type="curve" smooth="yes"/>
      <point x="262" y="398" type="line" smooth="yes"/>
      <point x="262" y="561"/>
      <point x="217" y="663"/>
      <point x="125" y="713" type="curve" smooth="yes"/>
      <point x="93" y="731"/>
      <point x="71" y="736"/>
      <point x="20" y="737" type="curve"/>
    </contour>
  </outline>
</glyph>
<glyph name="asterisk" format="1">
  <advance width="460"/>
  <unicode hex="002A"/>
  <outline>
    <contour>
      <point x="224" y="546" type="line"/>
      <point x="205" y="539" type="line"/>
      <point x="156" y="596" type="line" smooth="yes"/>
      <point x="138" y="617"/>
      <point x="124" y="626"/>
      <point x="110" y="626" type="curve" smooth="yes"/>
      <point x="85" y="626"/>
      <point x="63" y="600"/>
      <point x="63" y="572" type="curve" smooth="yes"/>
      <point x="63" y="550"/>
      <point x="81" y="535"/>
      <point x="118" y="529" type="curve" smooth="yes"/>
      <point x="193" y="517" type="line"/>
      <point x="191" y="498" type="line"/>
      <point x="117" y="483" type="line" smooth="yes"/>
      <point x="78" y="476"/>
      <point x="62" y="463"/>
      <point x="62" y="440" type="curve" smooth="yes"/>
      <point x="62" y="414"/>
      <point x="84" y="387"/>
      <point x="107" y="387" type="curve" smooth="yes"/>
      <point x="124" y="387"/>
      <point x="138" y="396"/>
      <point x="155" y="417" type="curve" smooth="yes"/>
      <point x="203" y="476" type="line"/>
      <point x="219" y="464" type="line"/>
      <point x="194" y="393" type="line" smooth="yes"/>
      <point x="188" y="376"/>
      <point x="186" y="366"/>
      <point x="186" y="356" type="curve" smooth="yes"/>
      <point x="186" y="333"/>
      <point x="205" y="317"/>
      <point x="233" y="317" type="curve" smooth="yes"/>
      <point x="261" y="317"/>
      <point x="279" y="333"/>
      <point x="279" y="358" type="curve" smooth="yes"/>
      <point x="279" y="367"/>
      <point x="276" y="378"/>
      <point x="270" y="393" type="curve" smooth="yes"/>
      <point x="243" y="464" type="line"/>
      <point x="262" y="472" type="line"/>
      <point x="311" y="415" type="line" smooth="yes"/>
      <point x="330" y="393"/>
      <point x="343" y="385"/>
      <point x="358" y="385" type="curve" smooth="yes"/>
      <point x="382" y="385"/>
      <point x="404" y="411"/>
      <point x="404" y="438" type="curve" smooth="yes"/>
      <point x="404" y="461"/>
      <point x="386" y="475"/>
      <point x="349" y="481" type="curve" smooth="yes"/>
      <point x="274" y="493" type="line"/>
      <point x="276" y="513" type="line"/>
      <point x="350" y="527" type="line" smooth="yes"/>
      <point x="388" y="534"/>
      <point x="405" y="548"/>
      <point x="405" y="571" type="curve" smooth="yes"/>
      <point x="405" y="598"/>
      <point x="382" y="624"/>
      <point x="359" y="624" type="curve" smooth="yes"/>
      <point x="343" y="624"/>
      <point x="329" y="615"/>
      <point x="312" y="593" type="curve" smooth="yes"/>
      <point x="264" y="534" type="line"/>
      <point x="248" y="546" type="line"/>
      <point x="273" y="618" type="line" smooth="yes"/>
      <point x="279" y="637"/>
      <point x="281" y="644"/>
      <point x="281" y="654" type="curve" smooth="yes"/>
      <point x="281" y="678"/>
      <point x="262" y="694"/>
      <point x="235" y="694" type="curve" smooth="yes"/>
      <point x="206" y="694"/>
      <point x="188" y="678"/>
      <point x="188" y="652" type="curve" smooth="yes"/>
      <point x="188" y="644"/>
      <point x="191" y="632"/>
      <point x="196" y="618" type="curve" smooth="yes"/>
    </contour>
  </outline>
</glyph>
<glyph name="plus" format="1">
  <advance width="600"/>
  <unicode hex="002B"/>
  <outline>
    <contour>
      <point x="555" y="294" type="line"/>
      <point x="555" y="411" type="line"/>
      <point x="361" y="411" type="line"/>
      <point x="361" y="597" type="line"/>
      <point x="245" y="597" type="line"/>
      <point x="245" y="411" type="line"/>
      <point x="51" y="411" type="line"/>
      <point x="51" y="294" type="line"/>
      <point x="245" y="294" type="line"/>
      <point x="245" y="108" type="line"/>
      <point x="361" y="108" type="line"/>
      <point x="361" y="294" type="line"/>
    </contour>
  </outline>
</glyph>
<glyph name="comma" format="1">
  <advance width="340"/>
  <unicode hex="002C"/>
  <outline>
    <contour>
      <point x="144" y="-120" type="line"/>
      <point x="222" y="-63"/>
      <point x="257" y="-6"/>
      <point x="257" y="61" type="curve" smooth="yes"/>
      <point x="257" y="124"/>
      <point x="220" y="167"/>
      <point x="165" y="167" type="curve" smooth="yes"/>
      <point x="116" y="167"/>
      <point x="78" y="128"/>
      <point x="78" y="78" type="curve" smooth="yes"/>
      <point x="78" y="34"/>
      <point x="102" y="7"/>
      <point x="150" y="-3" type="curve"/>
      <point x="138" y="-26"/>
      <point x="124" y="-44"/>
      <point x="96" y="-69" type="curve"/>
    </contour>
  </outline>
</glyph>
<glyph name="hyphen" format="1">
  <advance width="360"/>
  <unicode hex="002D"/>
  <outline>
    <contour>
      <point x="340" y="318" type="line"/>
      <point x="67" y="318" type="line"/>
      <point x="20" y="210" type="line"/>
      <point x="295" y="210" type="line"/>
    </contour>
  </outline>
</glyph>
<glyph name="period" format="1">
  <advance width="340"/>
  <unicode hex="002E"/>
  <outline>
    <contour>
      <point x="167" y="168" type="curve" smooth="yes"/>
      <point x="117" y="168"/>
      <point x="76" y="128"/>
      <point x="76" y="79" type="curve" smooth="yes"/>
      <point x="76" y="28"/>
      <point x="116" y="-13"/>
      <point x="166" y="-13" type="curve" smooth="yes"/>
      <point x="216" y="-13"/>
      <point x="257" y="28"/>
      <point x="257" y="78" type="curve" smooth="yes"/>
      <point x="257" y="128"/>
      <point x="217" y="168"/>
    </contour>
  </outline>
</glyph>
<glyph name="slash" format="1">
  <advance width="600"/>
  <unicode hex="002F"/>
  <outline>
    <contour>
      <point x="555" y="720" type="line"/>
      <point x="424" y="720" type="line"/>
      <point x="50" y="-138" type="line"/>
      <point x="181" y="-138" type="line"/>
    </contour>
  </outline>
</glyph>
<glyph name="zero" format="1">
  <advance width="660"/>
  <unicode hex="0030"/>
  <outline>
    <contour>
      <point x="339" y="694" type="curve" smooth="yes"/>
      <point x="250" y="694"/>
      <point x="168" y="660"/>
      <point x="117" y="600" type="curve" smooth="yes"/>
      <point x="63" y="538"/>
      <point x="30" y="439"/>
      <point x="30" y="336" type="curve" smooth="yes"/>
      <point x="30" y="121"/>
      <point x="147" y="-13"/>
      <point x="334" y="-13" type="curve" smooth="yes"/>
      <point x="520" y="-13"/>
      <point x="639" y="125"/>
      <point x="639" y="343" type="curve" smooth="yes"/>
      <point x="639" y="555"/>
      <point x="520" y="694"/>
    </contour>
    <contour>
      <point x="334" y="602" type="curve" smooth="yes"/>
      <point x="410" y="602"/>
      <point x="452" y="507"/>
      <point x="452" y="340" type="curve" smooth="yes"/>
      <point x="452" y="173"/>
      <point x="410" y="79"/>
      <point x="334" y="79" type="curve" smooth="yes"/>
      <point x="258" y="79"/>
      <point x="217" y="173"/>
      <point x="217" y="344" type="curve" smooth="yes"/>
      <point x="217" y="508"/>
      <point x="260" y="602"/>
    </contour>
  </outline>
</glyph>
<glyph name="one" format="1">
  <advance width="660"/>
  <unicode hex="0031"/>
  <outline>
    <contour>
      <point x="440" y="681" type="line"/>
      <point x="392" y="681" type="line"/>
      <point x="386" y="680"/>
      <point x="379" y="678"/>
      <point x="375" y="677" type="curve" smooth="yes"/>
      <point x="283" y="656"/>
      <point x="268" y="653"/>
      <point x="225" y="650" type="curve" smooth="yes"/>
      <point x="156" y="646"/>
      <point x="156" y="646"/>
      <point x="153" y="646" type="curve" smooth="yes"/>
      <point x="149" y="646"/>
      <point x="144" y="646"/>
      <point x="137" y="647" type="curve"/>
      <point x="137" y="569" type="line"/>
      <point x="151" y="568" type="line" smooth="yes"/>
      <point x="263" y="562"/>
      <point x="265" y="561"/>
      <point x="265" y="496" type="curve" smooth="yes"/>
      <point x="265" y="159" type="line" smooth="yes"/>
      <point x="265" y="99"/>
      <point x="255" y="91"/>
      <point x="163" y="84" type="curve" smooth="yes"/>
      <point x="137" y="82" type="line"/>
      <point x="137" y="0" type="line"/>
      <point x="568" y="0" type="line"/>
      <point x="568" y="82" type="line"/>
      <point x="545" y="84" type="line"/>
      <point x="543" y="84"/>
      <point x="533" y="85"/>
      <point x="523" y="86" type="curve" smooth="yes"/>
      <point x="453" y="91"/>
      <point x="440" y="102"/>
      <point x="440" y="159" type="curve" smooth="yes"/>
    </contour>
  </outline>
</glyph>
<glyph name="two" format="1">
  <advance width="660"/>
  <unicode hex="0032"/>
  <outline>
    <contour>
      <point x="628" y="217" type="line"/>
      <point x="547" y="239" type="line"/>
      <point x="502" y="146"/>
      <point x="492" y="140"/>
      <point x="367" y="140" type="curve" smooth="yes"/>
      <point x="242" y="140" type="line"/>
      <point x="366" y="207"/>
      <point x="426" y="246"/>
      <point x="486" y="299" type="curve" smooth="yes"/>
      <point x="562" y="368"/>
      <point x="593" y="422"/>
      <point x="593" y="489" type="curve" smooth="yes"/>
      <point x="593" y="612"/>
      <point x="483" y="694"/>
      <point x="315" y="694" type="curve" smooth="yes"/>
      <point x="156" y="694"/>
      <point x="41" y="611"/>
      <point x="41" y="496" type="curve" smooth="yes"/>
      <point x="41" y="440"/>
      <point x="78" y="401"/>
      <point x="129" y="401" type="curve" smooth="yes"/>
      <point x="174" y="401"/>
      <point x="212" y="436"/>
      <point x="212" y="478" type="curve" smooth="yes"/>
      <point x="212" y="495"/>
      <point x="208" y="507"/>
      <point x="196" y="525" type="curve" smooth="yes"/>
      <point x="189" y="536"/>
      <point x="186" y="544"/>
      <point x="186" y="551" type="curve" smooth="yes"/>
      <point x="186" y="580"/>
      <point x="235" y="607"/>
      <point x="287" y="607" type="curve" smooth="yes"/>
      <point x="352" y="607"/>
      <point x="394" y="568"/>
      <point x="394" y="507" type="curve" smooth="yes"/>
      <point x="394" y="436"/>
      <point x="351" y="356"/>
      <point x="272" y="282" type="curve" smooth="yes"/>
      <point x="214" y="228"/>
      <point x="193" y="212"/>
      <point x="41" y="112" type="curve"/>
      <point x="57" y="0" type="line"/>
      <point x="567" y="0" type="line"/>
    </contour>
  </outline>
</glyph>
<glyph name="three" format="1">
  <advance width="660"/>
  <unicode hex="0033"/>
  <outline>
    <contour>
      <point x="239" y="323" type="line"/>
      <point x="256" y="324"/>
      <point x="266" y="324"/>
      <point x="276" y="324" type="curve" smooth="yes"/>
      <point x="327" y="324"/>
      <point x="367" y="316"/>
      <point x="390" y="300" type="curve" smooth="yes"/>
      <point x="417" y="281"/>
      <point x="435" y="242"/>
      <point x="435" y="200" type="curve" smooth="yes"/>
      <point x="435" y="125"/>
      <point x="386" y="79"/>
      <point x="307" y="79" type="curve" smooth="yes"/>
      <point x="251" y="79"/>
      <point x="199" y="102"/>
      <point x="199" y="127" type="curve" smooth="yes"/>
      <point x="199" y="129"/>
      <point x="200" y="132"/>
      <point x="201" y="135" type="curve" smooth="yes"/>
      <point x="209" y="156"/>
      <point x="209" y="157"/>
      <point x="209" y="169" type="curve" smooth="yes"/>
      <point x="209" y="212"/>
      <point x="171" y="245"/>
      <point x="123" y="245" type="curve" smooth="yes"/>
      <point x="74" y="245"/>
      <point x="37" y="205"/>
      <point x="37" y="153" type="curve" smooth="yes"/>
      <point x="37" y="58"/>
      <point x="153" y="-13"/>
      <point x="307" y="-13" type="curve" smooth="yes"/>
      <point x="403" y="-13"/>
      <point x="494" y="12"/>
      <point x="551" y="55" type="curve" smooth="yes"/>
      <point x="599" y="90"/>
      <point x="631" y="153"/>
      <point x="631" y="209" type="curve" smooth="yes"/>
      <point x="631" y="290"/>
      <point x="579" y="348"/>
      <point x="486" y="371" type="curve"/>
      <point x="555" y="396"/>
      <point x="599" y="450"/>
      <point x="599" y="510" type="curve" smooth="yes"/>
      <point x="599" y="618"/>
      <point x="488" y="694"/>
      <point x="331" y="694" type="curve" smooth="yes"/>
      <point x="175" y="694"/>
      <point x="59" y="618"/>
      <point x="59" y="514" type="curve" smooth="yes"/>
      <point x="59" y="462"/>
      <point x="93" y="426"/>
      <point x="144" y="426" type="curve" smooth="yes"/>
      <point x="193" y="426"/>
      <point x="231" y="458"/>
      <point x="231" y="500" type="curve" smooth="yes"/>
      <point x="231" y="512"/>
      <point x="227" y="526"/>
      <point x="221" y="536" type="curve"/>
      <point x="216" y="546"/>
      <point x="214" y="550"/>
      <point x="214" y="555" type="curve" smooth="yes"/>
      <point x="214" y="577"/>
      <point x="264" y="602"/>
      <point x="307" y="602" type="curve" smooth="yes"/>
      <point x="368" y="602"/>
      <point x="407" y="569"/>
      <point x="407" y="518" type="curve" smooth="yes"/>
      <point x="407" y="481"/>
      <point x="388" y="446"/>
      <point x="360" y="429" type="curve" smooth="yes"/>
      <point x="342" y="419"/>
      <point x="304" y="412"/>
      <point x="267" y="412" type="curve" smooth="yes"/>
      <point x="256" y="412" type="line"/>
      <point x="239" y="413" type="line"/>
    </contour>
  </outline>
</glyph>
<glyph name="four" format="1">
  <advance width="660"/>
  <unicode hex="0034"/>
  <outline>
    <contour>
      <point x="504" y="681" type="line"/>
      <point x="346" y="681" type="line"/>
      <point x="271" y="564"/>
      <point x="155" y="408"/>
      <point x="19" y="242" type="curve"/>
      <point x="54" y="170" type="line"/>
      <point x="342" y="170" type="line"/>
      <point x="342" y="133" type="line" smooth="yes"/>
      <point x="342" y="103"/>
      <point x="322" y="87"/>
      <point x="280" y="84" type="curve" smooth="yes"/>
      <point x="255" y="82" type="line"/>
      <point x="255" y="0" type="line"/>
      <point x="591" y="0" type="line"/>
      <point x="591" y="82" type="line"/>
      <point x="566" y="84" type="line" smooth="yes"/>
      <point x="523" y="87"/>
      <point x="504" y="103"/>
      <point x="504" y="133" type="curve" smooth="yes"/>
      <point x="504" y="170" type="line"/>
      <point x="606" y="170" type="line"/>
      <point x="649" y="267" type="line"/>
      <point x="504" y="267" type="line"/>
    </contour>
    <contour>
      <point x="342" y="267" type="line"/>
      <point x="158" y="267" type="line"/>
      <point x="286" y="436"/>
      <point x="312" y="473"/>
      <point x="342" y="526" type="curve"/>
    </contour>
  </outline>
</glyph>
<glyph name="five" format="1">
  <advance width="660"/>
  <unicode hex="0035"/>
  <outline>
    <contour>
      <point x="568" y="724" type="line"/>
      <point x="487" y="724" type="line"/>
      <point x="478" y="702"/>
      <point x="472" y="694"/>
      <point x="460" y="688" type="curve"/>
      <point x="442" y="682"/>
      <point x="440" y="682"/>
      <point x="321" y="681" type="curve" smooth="yes"/>
      <point x="78" y="681" type="line"/>
      <point x="78" y="306" type="line"/>
      <point x="137" y="290"/>
      <point x="139" y="290"/>
      <point x="157" y="284" type="curve"/>
      <point x="186" y="339"/>
      <point x="243" y="378"/>
      <point x="296" y="378" type="curve" smooth="yes"/>
      <point x="367" y="378"/>
      <point x="420" y="313"/>
      <point x="420" y="227" type="curve" smooth="yes"/>
      <point x="420" y="137"/>
      <point x="365" y="74"/>
      <point x="286" y="74" type="curve" smooth="yes"/>
      <point x="247" y="74"/>
      <point x="218" y="89"/>
      <point x="218" y="110" type="curve" smooth="yes"/>
      <point x="218" y="114"/>
      <point x="218" y="118"/>
      <point x="219" y="122" type="curve"/>
      <point x="223" y="144"/>
      <point x="223" y="144"/>
      <point x="223" y="151" type="curve" smooth="yes"/>
      <point x="223" y="199"/>
      <point x="184" y="236"/>
      <point x="132" y="236" type="curve" smooth="yes"/>
      <point x="80" y="236"/>
      <point x="44" y="199"/>
      <point x="44" y="145" type="curve" smooth="yes"/>
      <point x="44" y="52"/>
      <point x="154" y="-13"/>
      <point x="309" y="-13" type="curve" smooth="yes"/>
      <point x="498" y="-13"/>
      <point x="623" y="88"/>
      <point x="623" y="241" type="curve" smooth="yes"/>
      <point x="623" y="379"/>
      <point x="515" y="475"/>
      <point x="361" y="475" type="curve" smooth="yes"/>
      <point x="289" y="475"/>
      <point x="226" y="457"/>
      <point x="176" y="422" type="curve"/>
      <point x="176" y="541" type="line"/>
      <point x="539" y="541" type="line"/>
    </contour>
  </outline>
</glyph>
<glyph name="six" format="1">
  <advance width="660"/>
  <unicode hex="0036"/>
  <outline>
    <contour>
      <point x="203" y="392" type="curve"/>
      <point x="207" y="436"/>
      <point x="207" y="436"/>
      <point x="212" y="456" type="curve" smooth="yes"/>
      <point x="232" y="551"/>
      <point x="291" y="607"/>
      <point x="370" y="607" type="curve" smooth="yes"/>
      <point x="399" y="607"/>
      <point x="420" y="600"/>
      <point x="430" y="587" type="curve"/>
      <point x="436" y="580"/>
      <point x="437" y="573"/>
      <point x="439" y="551" type="curve" smooth="yes"/>
      <point x="443" y="510"/>
      <point x="477" y="482"/>
      <point x="521" y="482" type="curve" smooth="yes"/>
      <point x="566" y="482"/>
      <point x="602" y="516"/>
      <point x="602" y="559" type="curve" smooth="yes"/>
      <point x="602" y="634"/>
      <point x="494" y="694"/>
      <point x="361" y="694" type="curve" smooth="yes"/>
      <point x="274" y="694"/>
      <point x="199" y="669"/>
      <point x="147" y="623" type="curve" smooth="yes"/>
      <point x="74" y="559"/>
      <point x="34" y="452"/>
      <point x="34" y="322" type="curve" smooth="yes"/>
      <point x="34" y="105"/>
      <point x="142" y="-13"/>
      <point x="340" y="-13" type="curve" smooth="yes"/>
      <point x="517" y="-13"/>
      <point x="634" y="81"/>
      <point x="634" y="224" type="curve" smooth="yes"/>
      <point x="634" y="355"/>
      <point x="532" y="449"/>
      <point x="389" y="449" type="curve" smooth="yes"/>
      <point x="316" y="449"/>
      <point x="254" y="430"/>
    </contour>
    <contour>
      <point x="338" y="352" type="curve" smooth="yes"/>
      <point x="408" y="352"/>
      <point x="452" y="300"/>
      <point x="452" y="217" type="curve" smooth="yes"/>
      <point x="452" y="130"/>
      <point x="408" y="79"/>
      <point x="333" y="79" type="curve" smooth="yes"/>
      <point x="259" y="79"/>
      <point x="216" y="128"/>
      <point x="216" y="212" type="curve" smooth="yes"/>
      <point x="216" y="298"/>
      <point x="263" y="352"/>
    </contour>
  </outline>
</glyph>
<glyph name="seven" format="1">
  <advance width="660"/>
  <unicode hex="0037"/>
  <outline>
    <contour>
      <point x="619" y="681" type="line"/>
      <point x="69" y="681" type="line"/>
      <point x="36" y="472" type="line"/>
      <point x="108" y="462" type="line"/>
      <point x="145" y="549"/>
      <point x="158" y="558"/>
      <point x="247" y="558" type="curve" smooth="yes"/>
      <point x="495" y="558" type="line"/>
      <point x="305" y="378"/>
      <point x="173" y="155"/>
      <point x="163" y="0" type="curve"/>
      <point x="367" y="0" type="line"/>
      <point x="366" y="6"/>
      <point x="366" y="12"/>
      <point x="366" y="14" type="curve" smooth="yes"/>
      <point x="366" y="132"/>
      <point x="403" y="247"/>
      <point x="487" y="390" type="curve" smooth="yes"/>
      <point x="542" y="484"/>
      <point x="586" y="541"/>
      <point x="632" y="578" type="curve"/>
    </contour>
  </outline>
</glyph>
<glyph name="eight" format="1">
  <advance width="660"/>
  <unicode hex="0038"/>
  <outline>
    <contour>
      <point x="498" y="383" type="curve"/>
      <point x="564" y="421"/>
      <point x="593" y="464"/>
      <point x="593" y="523" type="curve" smooth="yes"/>
      <point x="593" y="625"/>
      <point x="489" y="694"/>
      <point x="336" y="694" type="curve" smooth="yes"/>
      <point x="240" y="694"/>
      <point x="166" y="666"/>
      <point x="115" y="612" type="curve" smooth="yes"/>
      <point x="81" y="576"/>
      <point x="63" y="531"/>
      <point x="63" y="486" type="curve" smooth="yes"/>
      <point x="63" y="419"/>
      <point x="93" y="372"/>
      <point x="158" y="339" type="curve"/>
      <point x="77" y="307"/>
      <point x="36" y="255"/>
      <point x="36" y="183" type="curve" smooth="yes"/>
      <point x="36" y="64"/>
      <point x="147" y="-13"/>
      <point x="319" y="-13" type="curve" smooth="yes"/>
      <point x="507" y="-13"/>
      <point x="633" y="78"/>
      <point x="633" y="214" type="curve" smooth="yes"/>
      <point x="633" y="294"/>
      <point x="592" y="346"/>
    </contour>
    <contour>
      <point x="327" y="447" type="line" smooth="yes"/>
      <point x="276" y="469"/>
      <point x="261" y="477"/>
      <point x="246" y="490" type="curve" smooth="yes"/>
      <point x="233" y="502"/>
      <point x="225" y="518"/>
      <point x="225" y="532" type="curve" smooth="yes"/>
      <point x="225" y="573"/>
      <point x="270" y="602"/>
      <point x="335" y="602" type="curve" smooth="yes"/>
      <point x="410" y="602"/>
      <point x="460" y="568"/>
      <point x="460" y="516" type="curve" smooth="yes"/>
      <point x="460" y="479"/>
      <point x="442" y="455"/>
      <point x="390" y="420" type="curve"/>
    </contour>
    <contour>
      <point x="364" y="258" type="line" smooth="yes"/>
      <point x="438" y="232"/>
      <point x="471" y="203"/>
      <point x="471" y="166" type="curve" smooth="yes"/>
      <point x="471" y="112"/>
      <point x="415" y="79"/>
      <point x="323" y="79" type="curve" smooth="yes"/>
      <point x="226" y="79"/>
      <point x="169" y="118"/>
      <point x="169" y="185" type="curve" smooth="yes"/>
      <point x="169" y="238"/>
      <point x="194" y="269"/>
      <point x="257" y="296" type="curve"/>
    </contour>
  </outline>
</glyph>
<glyph name="nine" format="1">
  <advance width="660"/>
  <unicode hex="0039"/>
  <outline>
    <contour>
      <point x="460" y="286" type="curve"/>
      <point x="460" y="160"/>
      <point x="398" y="79"/>
      <point x="302" y="79" type="curve" smooth="yes"/>
      <point x="262" y="79"/>
      <point x="237" y="90"/>
      <point x="232" y="110" type="curve" smooth="yes"/>
      <point x="224" y="139"/>
      <point x="223" y="144"/>
      <point x="216" y="156" type="curve" smooth="yes"/>
      <point x="202" y="181"/>
      <point x="174" y="196"/>
      <point x="144" y="196" type="curve" smooth="yes"/>
      <point x="100" y="196"/>
      <point x="65" y="162"/>
      <point x="65" y="119" type="curve" smooth="yes"/>
      <point x="65" y="44"/>
      <point x="166" y="-13"/>
      <point x="299" y="-13" type="curve" smooth="yes"/>
      <point x="395" y="-13"/>
      <point x="478" y="16"/>
      <point x="537" y="71" type="curve" smooth="yes"/>
      <point x="604" y="133"/>
      <point x="636" y="224"/>
      <point x="636" y="351" type="curve" smooth="yes"/>
      <point x="636" y="463"/>
      <point x="608" y="552"/>
      <point x="555" y="608" type="curve" smooth="yes"/>
      <point x="504" y="663"/>
      <point x="423" y="694"/>
      <point x="331" y="694" type="curve" smooth="yes"/>
      <point x="158" y="694"/>
      <point x="33" y="593"/>
      <point x="33" y="453" type="curve" smooth="yes"/>
      <point x="33" y="322"/>
      <point x="135" y="229"/>
      <point x="278" y="229" type="curve" smooth="yes"/>
      <point x="350" y="229"/>
      <point x="413" y="249"/>
    </contour>
    <contour>
      <point x="330" y="602" type="curve" smooth="yes"/>
      <point x="405" y="602"/>
      <point x="450" y="550"/>
      <point x="450" y="466" type="curve" smooth="yes"/>
      <point x="450" y="383"/>
      <point x="401" y="331"/>
      <point x="322" y="331" type="curve" smooth="yes"/>
      <point x="252" y="331"/>
      <point x="207" y="384"/>
      <point x="207" y="468" type="curve" smooth="yes"/>
      <point x="207" y="551"/>
      <point x="254" y="602"/>
    </contour>
  </outline>
</glyph>
<glyph name="colon" format="1">
  <advance width="340"/>
  <unicode hex="003A"/>
  <outline>
    <contour>
      <point x="167" y="168" type="curve" smooth="yes"/>
      <point x="117" y="168"/>
      <point x="76" y="128"/>
      <point x="76" y="79" type="curve" smooth="yes"/>
      <point x="76" y="28"/>
      <point x="116" y="-13"/>
      <point x="166" y="-13" type="curve" smooth="yes"/>
      <point x="216" y="-13"/>
      <point x="257" y="28"/>
      <point x="257" y="78" type="curve" smooth="yes"/>
      <point x="257" y="128"/>
      <point x="217" y="168"/>
    </contour>
    <contour>
      <point x="167" y="516" type="curve" smooth="yes"/>
      <point x="117" y="516"/>
      <point x="76" y="476"/>
      <point x="76" y="427" type="curve" smooth="yes"/>
      <point x="76" y="376"/>
      <point x="116" y="335"/>
      <point x="166" y="335" type="curve" smooth="yes"/>
      <point x="216" y="335"/>
      <point x="257" y="376"/>
      <point x="257" y="426" type="curve" smooth="yes"/>
      <point x="257" y="476"/>
      <point x="217" y="516"/>
    </contour>
  </outline>
</glyph>
<glyph name="semicolon" format="1">
  <advance width="340"/>
  <unicode hex="003B"/>
  <outline>
    <contour>
      <point x="145" y="-120" type="line"/>
      <point x="223" y="-63"/>
      <point x="259" y="-5"/>
      <point x="259" y="61" type="curve" smooth="yes"/>
      <point x="259" y="124"/>
      <point x="221" y="167"/>
      <point x="166" y="167" type="curve" smooth="yes"/>
      <point x="117" y="167"/>
      <point x="79" y="129"/>
      <point x="79" y="78" type="curve" smooth="yes"/>
      <point x="79" y="34"/>
      <point x="103" y="7"/>
      <point x="151" y="-3" type="curve"/>
      <point x="139" y="-26"/>
      <point x="125" y="-44"/>
      <point x="97" y="-69" type="curve"/>
    </contour>
    <contour>
      <point x="166" y="516" type="curve" smooth="yes"/>
      <point x="117" y="516"/>
      <point x="75" y="476"/>
      <point x="75" y="427" type="curve" smooth="yes"/>
      <point x="75" y="376"/>
      <point x="115" y="335"/>
      <point x="165" y="335" type="curve" smooth="yes"/>
      <point x="215" y="335"/>
      <point x="256" y="376"/>
      <point x="256" y="426" type="curve" smooth="yes"/>
      <point x="256" y="476"/>
      <point x="216" y="516"/>
    </contour>
  </outline>
</glyph>
<glyph name="less" format="1">
  <advance width="600"/>
  <unicode hex="003C"/>
  <outline>
    <contour>
      <point x="207" y="350" type="line"/>
      <point x="558" y="514" type="line"/>
      <point x="558" y="643" type="line"/>
      <point x="49" y="405" type="line"/>
      <point x="49" y="294" type="line"/>
      <point x="558" y="56" type="line"/>
      <point x="558" y="185" type="line"/>
    </contour>
  </outline>
</glyph>
<glyph name="equal" format="1">
  <advance width="600"/>
  <unicode hex="003D"/>
  <outline>
    <contour>
      <point x="555" y="389" type="line"/>
      <point x="555" y="506" type="line"/>
      <point x="51" y="506" type="line"/>
      <point x="51" y="389" type="line"/>
    </contour>
    <contour>
      <point x="555" y="199" type="line"/>
      <point x="555" y="316" type="line"/>
      <point x="51" y="316" type="line"/>
      <point x="51" y="199" type="line"/>
    </contour>
  </outline>
</glyph>
<glyph name="greater" format="1">
  <advance width="600"/>
  <unicode hex="003E"/>
  <outline>
    <contour>
      <point x="399" y="350" type="line"/>
      <point x="48" y="185" type="line"/>
      <point x="48" y="56" type="line"/>
      <point x="557" y="294" type="line"/>
      <point x="557" y="405" type="line"/>
      <point x="48" y="643" type="line"/>
      <point x="48" y="514" type="line"/>
    </contour>
  </outline>
</glyph>
<glyph name="question" format="1">
  <advance width="660"/>
  <unicode hex="003F"/>
  <outline>
    <contour>
      <point x="392" y="217" type="line"/>
      <point x="392" y="225" type="line" smooth="yes"/>
      <point x="392" y="276"/>
      <point x="404" y="290"/>
      <point x="474" y="321" type="curve" smooth="yes"/>
      <point x="562" y="359"/>
      <point x="608" y="422"/>
      <point x="608" y="505" type="curve" smooth="yes"/>
      <point x="608" y="623"/>
      <point x="506" y="694"/>
      <point x="334" y="694" type="curve" smooth="yes"/>
      <point x="179" y="694"/>
      <point x="61" y="614"/>
      <point x="61" y="509" type="curve" smooth="yes"/>
      <point x="61" y="451"/>
      <point x="94" y="416"/>
      <point x="148" y="416" type="curve" smooth="yes"/>
      <point x="196" y="416"/>
      <point x="231" y="448"/>
      <point x="231" y="492" type="curve" smooth="yes"/>
      <point x="231" y="502"/>
      <point x="227" y="520"/>
      <point x="224" y="528" type="curve" smooth="yes"/>
      <point x="216" y="547"/>
      <point x="216" y="547"/>
      <point x="216" y="554" type="curve" smooth="yes"/>
      <point x="216" y="582"/>
      <point x="264" y="607"/>
      <point x="318" y="607" type="curve" smooth="yes"/>
      <point x="384" y="607"/>
      <point x="426" y="566"/>
      <point x="426" y="502" type="curve" smooth="yes"/>
      <point x="426" y="462"/>
      <point x="410" y="432"/>
      <point x="377" y="405" type="curve" smooth="yes"/>
      <point x="303" y="347"/>
      <point x="290" y="323"/>
      <point x="290" y="250" type="curve" smooth="yes"/>
      <point x="290" y="235"/>
      <point x="290" y="229"/>
      <point x="292" y="217" type="curve"/>
    </contour>
    <contour>
      <point x="346" y="172" type="curve" smooth="yes"/>
      <point x="296" y="172"/>
      <point x="254" y="131"/>
      <point x="254" y="82" type="curve" smooth="yes"/>
      <point x="254" y="29"/>
      <point x="295" y="-13"/>
      <point x="346" y="-13" type="curve" smooth="yes"/>
      <point x="397" y="-13"/>
      <point x="439" y="29"/>
      <point x="439" y="80" type="curve" smooth="yes"/>
      <point x="439" y="131"/>
      <point x="398" y="172"/>
    </contour>
  </outline>
</glyph>
<glyph name="at" format="1">
  <advance width="820"/>
  <unicode hex="0040"/>
  <outline>
    <contour>
      <point x="503" y="513" type="line"/>
      <point x="498" y="488" type="line"/>
      <point x="475" y="508"/>
      <point x="442" y="519"/>
      <point x="409" y="519" type="curve" smooth="yes"/>
      <point x="303" y="519"/>
      <point x="212" y="423"/>
      <point x="212" y="311" type="curve" smooth="yes"/>
      <point x="212" y="229"/>
      <point x="266" y="170"/>
      <point x="341" y="170" type="curve" smooth="yes"/>
      <point x="383" y="170"/>
      <point x="423" y="189"/>
      <point x="451" y="222" type="curve"/>
      <point x="460" y="188"/>
      <point x="488" y="170"/>
      <point x="531" y="170" type="curve" smooth="yes"/>
      <point x="563" y="170"/>
      <point x="606" y="184"/>
      <point x="642" y="205" type="curve" smooth="yes"/>
      <point x="716" y="249"/>
      <point x="758" y="322"/>
      <point x="758" y="408" type="curve" smooth="yes"/>
      <point x="758" y="486"/>
      <point x="724" y="561"/>
      <point x="664" y="613" type="curve" smooth="yes"/>
      <point x="603" y="666"/>
      <point x="510" y="700"/>
      <point x="426" y="700" type="curve" smooth="yes"/>
      <point x="340" y="700"/>
      <point x="245" y="665"/>
      <point x="180" y="610" type="curve" smooth="yes"/>
      <point x="104" y="545"/>
      <point x="60" y="449"/>
      <point x="60" y="346" type="curve" smooth="yes"/>
      <point x="60" y="147"/>
      <point x="222" y="-13"/>
      <point x="426" y="-13" type="curve" smooth="yes"/>
      <point x="567" y="-13"/>
      <point x="680" y="56"/>
      <point x="751" y="184" type="curve"/>
      <point x="681" y="184" type="line"/>
      <point x="621" y="97"/>
      <point x="538" y="55"/>
      <point x="426" y="55" type="curve" smooth="yes"/>
      <point x="257" y="55"/>
      <point x="133" y="179"/>
      <point x="133" y="347" type="curve" smooth="yes"/>
      <point x="133" y="511"/>
      <point x="258" y="632"/>
      <point x="426" y="632" type="curve" smooth="yes"/>
      <point x="573" y="632"/>
      <point x="685" y="530"/>
      <point x="685" y="396" type="curve" smooth="yes"/>
      <point x="685" y="337"/>
      <point x="663" y="291"/>
      <point x="620" y="260" type="curve" smooth="yes"/>
      <point x="603" y="248"/>
      <point x="588" y="241"/>
      <point x="577" y="241" type="curve" smooth="yes"/>
      <point x="564" y="241"/>
      <point x="553" y="253"/>
      <point x="553" y="267" type="curve" smooth="yes"/>
      <point x="553" y="276"/>
      <point x="553" y="276"/>
      <point x="558" y="301" type="curve" smooth="yes"/>
      <point x="597" y="513" type="line"/>
    </contour>
    <contour>
      <point x="482" y="440" type="curve"/>
      <point x="464" y="351"/>
      <point x="454" y="316"/>
      <point x="437" y="288" type="curve" smooth="yes"/>
      <point x="417" y="252"/>
      <point x="395" y="235"/>
      <point x="370" y="235" type="curve" smooth="yes"/>
      <point x="342" y="235"/>
      <point x="325" y="258"/>
      <point x="325" y="295" type="curve" smooth="yes"/>
      <point x="325" y="382"/>
      <point x="373" y="461"/>
      <point x="427" y="461" type="curve" smooth="yes"/>
      <point x="443" y="461"/>
      <point x="460" y="455"/>
    </contour>
  </outline>
</glyph>
<glyph name="B" format="1">
  <advance width="720"/>
  <unicode hex="0042"/>
  <outline>
    <contour>
      <point x="20" y="681" type="line"/>
      <point x="20" y="599" type="line"/>
      <point x="40" y="597" type="line" smooth="yes"/>
      <point x="96" y="591"/>
      <point x="108" y="577"/>
      <point x="108" y="513" type="curve" smooth="yes"/>
      <point x="108" y="168" type="line" smooth="yes"/>
      <point x="108" y="104"/>
      <point x="96" y="90"/>
      <point x="40" y="84" type="curve" smooth="yes"/>
      <point x="20" y="82" type="line"/>
      <point x="20" y="0" type="line"/>
      <point x="420" y="0" type="line" smooth="yes"/>
      <point x="513" y="0"/>
      <point x="556" y="8"/>
      <point x="600" y="33" type="curve" smooth="yes"/>
      <point x="658" y="67"/>
      <point x="693" y="130"/>
      <point x="693" y="200" type="curve" smooth="yes"/>
      <point x="693" y="281"/>
      <point x="648" y="340"/>
      <point x="567" y="366" type="curve"/>
      <point x="627" y="395"/>
      <point x="663" y="449"/>
      <point x="663" y="510" type="curve" smooth="yes"/>
      <point x="663" y="555"/>
      <point x="643" y="599"/>
      <point x="608" y="630" type="curve" smooth="yes"/>
      <point x="568" y="666"/>
      <point x="506" y="681"/>
      <point x="400" y="681" type="curve" smooth="yes"/>
    </contour>
    <contour>
      <point x="283" y="410" type="line"/>
      <point x="283" y="534" type="line" smooth="yes"/>
      <point x="283" y="554"/>
      <point x="284" y="563"/>
      <point x="288" y="569" type="curve"/>
      <point x="294" y="580"/>
      <point x="323" y="586"/>
      <point x="365" y="586" type="curve" smooth="yes"/>
      <point x="446" y="586"/>
      <point x="493" y="552"/>
      <point x="493" y="495" type="curve" smooth="yes"/>
      <point x="493" y="441"/>
      <point x="445" y="410"/>
      <point x="363" y="410" type="curve" smooth="yes"/>
    </contour>
    <contour>
      <point x="283" y="318" type="line"/>
      <point x="366" y="318" type="line" smooth="yes"/>
      <point x="468" y="318"/>
      <point x="511" y="286"/>
      <point x="511" y="210" type="curve" smooth="yes"/>
      <point x="511" y="134"/>
      <point x="458" y="89"/>
      <point x="370" y="89" type="curve" smooth="yes"/>
      <point x="331" y="89"/>
      <point x="301" y="96"/>
      <point x="291" y="107" type="curve" smooth="yes"/>
      <point x="285" y="114"/>
      <point x="283" y="122"/>
      <point x="283" y="140" type="curve" smooth="yes"/>
    </contour>
  </outline>
</glyph>
<glyph name="D" format="1">
  <advance width="780"/>
  <unicode hex="0044"/>
  <outline>
    <contour>
      <point x="108" y="168" type="line" smooth="yes"/>
      <point x="108" y="104"/>
      <point x="96" y="90"/>
      <point x="40" y="84" type="curve" smooth="yes"/>
      <point x="20" y="82" type="line"/>
      <point x="20" y="0" type="line"/>
      <point x="361" y="0" type="line" smooth="yes"/>
      <point x="522" y="0"/>
      <point x="601" y="28"/>
      <point x="669" y="108" type="curve" smooth="yes"/>
      <point x="721" y="168"/>
      <point x="748" y="248"/>
      <point x="748" y="338" type="curve" smooth="yes"/>
      <point x="748" y="447"/>
      <point x="709" y="539"/>
      <point x="636" y="602" type="curve" smooth="yes"/>
      <point x="562" y="666"/>
      <point x="507" y="681"/>
      <point x="338" y="681" type="curve" smooth="yes"/>
      <point x="20" y="681" type="line"/>
      <point x="20" y="599" type="line"/>
      <point x="40" y="597" type="line" smooth="yes"/>
      <point x="96" y="591"/>
      <point x="108" y="577"/>
      <point x="108" y="513" type="curve" smooth="yes"/>
    </contour>
    <contour>
      <point x="283" y="538" type="line" smooth="yes"/>
      <point x="283" y="580"/>
      <point x="298" y="591"/>
      <point x="355" y="591" type="curve" smooth="yes"/>
      <point x="480" y="591"/>
      <point x="556" y="498"/>
      <point x="556" y="345" type="curve" smooth="yes"/>
      <point x="556" y="190"/>
      <point x="475" y="90"/>
      <point x="350" y="90" type="curve" smooth="yes"/>
      <point x="324" y="90"/>
      <point x="302" y="95"/>
      <point x="292" y="103" type="curve" smooth="yes"/>
      <point x="283" y="110"/>
      <point x="283" y="113"/>
      <point x="283" y="162" type="curve" smooth="yes"/>
    </contour>
  </outline>
</glyph>
<glyph name="F" format="1">
  <advance width="680"/>
  <unicode hex="0046"/>
  <outline>
    <contour>
      <point x="686" y="476" type="line"/>
      <point x="591" y="681" type="line"/>
      <point x="20" y="681" type="line"/>
      <point x="20" y="599" type="line"/>
      <point x="40" y="597" type="line" smooth="yes"/>
      <point x="96" y="591"/>
      <point x="108" y="577"/>
      <point x="108" y="513" type="curve" smooth="yes"/>
      <point x="108" y="168" type="line" smooth="yes"/>
      <point x="108" y="104"/>
      <point x="96" y="90"/>
      <point x="40" y="84" type="curve" smooth="yes"/>
      <point x="20" y="82" type="line"/>
      <point x="20" y="0" type="line"/>
      <point x="378" y="0" type="line"/>
      <point x="378" y="82" type="line"/>
      <point x="351" y="84" type="line" smooth="yes"/>
      <point x="328" y="86"/>
      <point x="304" y="94"/>
      <point x="295" y="105" type="curve" smooth="yes"/>
      <point x="286" y="115"/>
      <point x="283" y="130"/>
      <point x="283" y="168" type="curve" smooth="yes"/>
      <point x="283" y="309" type="line"/>
      <point x="306" y="309" type="line" smooth="yes"/>
      <point x="353" y="309"/>
      <point x="365" y="307"/>
      <point x="380" y="296" type="curve" smooth="yes"/>
      <point x="398" y="282"/>
      <point x="409" y="250"/>
      <point x="414" y="192" type="curve"/>
      <point x="488" y="192" type="line"/>
      <point x="488" y="516" type="line"/>
      <point x="414" y="516" type="line"/>
      <point x="409" y="466"/>
      <point x="402" y="440"/>
      <point x="389" y="426" type="curve" smooth="yes"/>
      <point x="376" y="411"/>
      <point x="361" y="407"/>
      <point x="312" y="407" type="curve" smooth="yes"/>
      <point x="283" y="407" type="line"/>
      <point x="283" y="501" type="line" smooth="yes"/>
      <point x="283" y="547"/>
      <point x="285" y="558"/>
      <point x="292" y="568" type="curve" smooth="yes"/>
      <point x="301" y="580"/>
      <point x="326" y="586"/>
      <point x="367" y="586" type="curve" smooth="yes"/>
      <point x="471" y="586"/>
      <point x="539" y="547"/>
      <point x="617" y="441" type="curve"/>
    </contour>
  </outline>
</glyph>
<glyph name="J" format="1">
  <advance width="640"/>
  <unicode hex="004A"/>
  <outline>
    <contour>
      <point x="534" y="513" type="line" smooth="yes"/>
      <point x="534" y="577"/>
      <point x="546" y="591"/>
      <point x="602" y="597" type="curve" smooth="yes"/>
      <point x="622" y="599" type="line"/>
      <point x="622" y="681" type="line"/>
      <point x="271" y="681" type="line"/>
      <point x="271" y="599" type="line"/>
      <point x="291" y="597" type="line" smooth="yes"/>
      <point x="347" y="591"/>
      <point x="359" y="577"/>
      <point x="359" y="513" type="curve" smooth="yes"/>
      <point x="359" y="231" type="line" smooth="yes"/>
      <point x="359" y="181"/>
      <point x="353" y="154"/>
      <point x="338" y="133" type="curve" smooth="yes"/>
      <point x="319" y="106"/>
      <point x="280" y="89"/>
      <point x="237" y="89" type="curve" smooth="yes"/>
      <point x="183" y="89"/>
      <point x="130" y="116"/>
      <point x="130" y="145" type="curve" smooth="yes"/>
      <point x="130" y="150"/>
      <point x="133" y="155"/>
      <point x="139" y="162" type="curve" smooth="yes"/>
      <point x="159" y="185"/>
      <point x="166" y="202"/>
      <point x="166" y="227" type="curve" smooth="yes"/>
      <point x="166" y="271"/>
      <point x="133" y="303"/>
      <point x="89" y="303" type="curve" smooth="yes"/>
      <point x="30" y="303"/>
      <point x="-12" y="256"/>
      <point x="-12" y="189" type="curve" smooth="yes"/>
      <point x="-12" y="71"/>
      <point x="98" y="-13"/>
      <point x="255" y="-13" type="curve" smooth="yes"/>
      <point x="360" y="-13"/>
      <point x="453" y="22"/>
      <point x="499" y="80" type="curve" smooth="yes"/>
      <point x="529" y="116"/>
      <point x="534" y="141"/>
      <point x="534" y="241" type="curve" smooth="yes"/>
    </contour>
  </outline>
</glyph>
<glyph name="M" format="1">
  <advance width="940"/>
  <unicode hex="004D"/>
  <outline>
    <contour>
      <point x="331" y="681" type="line"/>
      <point x="20" y="681" type="line"/>
      <point x="20" y="599" type="line"/>
      <point x="40" y="597" type="line" smooth="yes"/>
      <point x="96" y="591"/>
      <point x="108" y="577"/>
      <point x="108" y="513" type="curve" smooth="yes"/>
      <point x="108" y="168" type="line" smooth="yes"/>
      <point x="108" y="104"/>
      <point x="96" y="90"/>
      <point x="40" y="84" type="curve" smooth="yes"/>
      <point x="20" y="82" type="line"/>
      <point x="20" y="0" type="line"/>
      <point x="294" y="0" type="line"/>
      <point x="294" y="82" type="line"/>
      <point x="274" y="84" type="line" smooth="yes"/>
      <point x="218" y="90"/>
      <point x="206" y="104"/>
      <point x="206" y="168" type="curve" smooth="yes"/>
      <point x="206" y="522" type="line"/>
      <point x="378" y="0" type="line"/>
      <point x="486" y="0" type="line"/>
      <point x="661" y="515" type="line"/>
      <point x="661" y="168" type="line" smooth="yes"/>
      <point x="661" y="104"/>
      <point x="649" y="90"/>
      <point x="593" y="84" type="curve" smooth="yes"/>
      <point x="573" y="82" type="line"/>
      <point x="573" y="0" type="line"/>
      <point x="924" y="0" type="line"/>
      <point x="924" y="82" type="line"/>
      <point x="904" y="84" type="line" smooth="yes"/>
      <point x="848" y="90"/>
      <point x="836" y="104"/>
      <point x="836" y="168" type="curve" smooth="yes"/>
      <point x="836" y="513" type="line" smooth="yes"/>
      <point x="836" y="577"/>
      <point x="848" y="591"/>
      <point x="904" y="597" type="curve" smooth="yes"/>
      <point x="924" y="599" type="line"/>
      <point x="924" y="681" type="line"/>
      <point x="611" y="681" type="line"/>
      <point x="469" y="255" type="line"/>
    </contour>
  </outline>
</glyph>
<glyph name="O" format="1">
  <advance width="800"/>
  <unicode hex="004F"/>
  <outline>
    <contour>
      <point x="405" y="694" type="curve" smooth="yes"/>
      <point x="191" y="694"/>
      <point x="35" y="542"/>
      <point x="35" y="334" type="curve" smooth="yes"/>
      <point x="35" y="217"/>
      <point x="79" y="126"/>
      <point x="168" y="59" type="curve" smooth="yes"/>
      <point x="234" y="10"/>
      <point x="304" y="-13"/>
      <point x="392" y="-13" type="curve" smooth="yes"/>
      <point x="606" y="-13"/>
      <point x="769" y="142"/>
      <point x="769" y="346" type="curve" smooth="yes"/>
      <point x="769" y="457"/>
      <point x="731" y="543"/>
      <point x="654" y="608" type="curve" smooth="yes"/>
      <point x="587" y="664"/>
      <point x="501" y="694"/>
    </contour>
    <contour>
      <point x="406" y="592" type="curve" smooth="yes"/>
      <point x="513" y="592"/>
      <point x="577" y="500"/>
      <point x="577" y="344" type="curve" smooth="yes"/>
      <point x="577" y="192"/>
      <point x="506" y="89"/>
      <point x="400" y="89" type="curve" smooth="yes"/>
      <point x="351" y="89"/>
      <point x="303" y="113"/>
      <point x="276" y="151" type="curve" smooth="yes"/>
      <point x="246" y="194"/>
      <point x="227" y="266"/>
      <point x="227" y="338" type="curve" smooth="yes"/>
      <point x="227" y="489"/>
      <point x="300" y="592"/>
    </contour>
  </outline>
</glyph>
<glyph name="P" format="1">
  <advance width="660"/>
  <unicode hex="0050"/>
  <outline>
    <contour>
      <point x="283" y="276" type="line"/>
      <point x="378" y="276" type="line" smooth="yes"/>
      <point x="561" y="276"/>
      <point x="658" y="346"/>
      <point x="658" y="478" type="curve" smooth="yes"/>
      <point x="658" y="544"/>
      <point x="630" y="603"/>
      <point x="580" y="638" type="curve" smooth="yes"/>
      <point x="537" y="670"/>
      <point x="484" y="681"/>
      <point x="379" y="681" type="curve" smooth="yes"/>
      <point x="20" y="681" type="line"/>
      <point x="20" y="599" type="line"/>
      <point x="40" y="597" type="line" smooth="yes"/>
      <point x="96" y="591"/>
      <point x="108" y="577"/>
      <point x="108" y="513" type="curve" smooth="yes"/>
      <point x="108" y="168" type="line" smooth="yes"/>
      <point x="108" y="104"/>
      <point x="96" y="90"/>
      <point x="40" y="84" type="curve" smooth="yes"/>
      <point x="20" y="82" type="line"/>
      <point x="20" y="0" type="line"/>
      <point x="371" y="0" type="line"/>
      <point x="371" y="82" type="line"/>
      <point x="351" y="84" type="line" smooth="yes"/>
      <point x="295" y="90"/>
      <point x="283" y="104"/>
      <point x="283" y="168" type="curve" smooth="yes"/>
    </contour>
    <contour>
      <point x="283" y="516" type="line" smooth="yes"/>
      <point x="283" y="552"/>
      <point x="284" y="563"/>
      <point x="290" y="571" type="curve"/>
      <point x="297" y="582"/>
      <point x="321" y="589"/>
      <point x="351" y="589" type="curve" smooth="yes"/>
      <point x="419" y="589"/>
      <point x="466" y="545"/>
      <point x="466" y="480" type="curve" smooth="yes"/>
      <point x="466" y="407"/>
      <point x="412" y="365"/>
      <point x="316" y="365" type="curve" smooth="yes"/>
      <point x="307" y="365"/>
      <point x="299" y="365"/>
      <point x="283" y="367" type="curve"/>
    </contour>
  </outline>
</glyph>
<glyph name="Q" format="1">
  <advance width="800"/>
  <unicode hex="0051"/>
  <outline>
    <contour>
      <point x="591" y="40" type="curve"/>
      <point x="606" y="23"/>
      <point x="613" y="4"/>
      <point x="613" y="-15" type="curve" smooth="yes"/>
      <point x="613" y="-86"/>
      <point x="508" y="-139"/>
      <point x="366" y="-139" type="curve" smooth="yes"/>
      <point x="312" y="-139"/>
      <point x="265" y="-130"/>
      <point x="239" y="-114" type="curve"/>
      <point x="224" y="-106"/>
      <point x="216" y="-95"/>
      <point x="213" y="-78" type="curve" smooth="yes"/>
      <point x="207" y="-51"/>
      <point x="205" y="-46"/>
      <point x="193" y="-31" type="curve" smooth="yes"/>
      <point x="178" y="-13"/>
      <point x="156" y="-3"/>
      <point x="133" y="-3" type="curve" smooth="yes"/>
      <point x="93" y="-3"/>
      <point x="60" y="-35"/>
      <point x="60" y="-73" type="curve" smooth="yes"/>
      <point x="60" y="-157"/>
      <point x="211" y="-226"/>
      <point x="394" y="-226" type="curve" smooth="yes"/>
      <point x="611" y="-226"/>
      <point x="775" y="-127"/>
      <point x="775" y="5" type="curve" smooth="yes"/>
      <point x="775" y="54"/>
      <point x="756" y="93"/>
      <point x="708" y="142" type="curve"/>
      <point x="746" y="196"/>
      <point x="769" y="274"/>
      <point x="769" y="350" type="curve" smooth="yes"/>
      <point x="769" y="549"/>
      <point x="615" y="694"/>
      <point x="406" y="694" type="curve" smooth="yes"/>
      <point x="191" y="694"/>
      <point x="35" y="543"/>
      <point x="35" y="335" type="curve" smooth="yes"/>
      <point x="35" y="136"/>
      <point x="187" y="-13"/>
      <point x="391" y="-13" type="curve" smooth="yes"/>
      <point x="465" y="-13"/>
      <point x="524" y="3"/>
    </contour>
    <contour>
      <point x="292" y="131" type="curve"/>
      <point x="250" y="179"/>
      <point x="227" y="253"/>
      <point x="227" y="339" type="curve" smooth="yes"/>
      <point x="227" y="421"/>
      <point x="252" y="498"/>
      <point x="293" y="545" type="curve" smooth="yes"/>
      <point x="319" y="575"/>
      <point x="361" y="592"/>
      <point x="406" y="592" type="curve" smooth="yes"/>
      <point x="509" y="592"/>
      <point x="577" y="498"/>
      <point x="577" y="355" type="curve" smooth="yes"/>
      <point x="577" y="308"/>
      <point x="571" y="261"/>
      <point x="559" y="224" type="curve"/>
      <point x="509" y="237"/>
      <point x="481" y="241"/>
      <point x="453" y="241" type="curve" smooth="yes"/>
      <point x="366" y="241"/>
      <point x="291" y="194"/>
      <point x="291" y="140" type="curve" smooth="yes"/>
      <point x="291" y="138"/>
      <point x="291" y="135"/>
    </contour>
    <contour>
      <point x="490" y="115" type="curve"/>
      <point x="467" y="99"/>
      <point x="437" y="89"/>
      <point x="410" y="89" type="curve" smooth="yes"/>
      <point x="382" y="89"/>
      <point x="364" y="98"/>
      <point x="364" y="113" type="curve" smooth="yes"/>
      <point x="364" y="128"/>
      <point x="384" y="138"/>
      <point x="413" y="138" type="curve" smooth="yes"/>
      <point x="441" y="138"/>
      <point x="465" y="131"/>
    </contour>
  </outline>
</glyph>
<glyph name="R" format="1">
  <advance width="780"/>
  <unicode hex="0052"/>
  <outline>
    <contour>
      <point x="539" y="314" type="line"/>
      <point x="643" y="338"/>
      <point x="706" y="407"/>
      <point x="706" y="499" type="curve" smooth="yes"/>
      <point x="706" y="562"/>
      <point x="669" y="621"/>
      <point x="614" y="648" type="curve" smooth="yes"/>
      <point x="565" y="671"/>
      <point x="504" y="681"/>
      <point x="409" y="681" type="curve" smooth="yes"/>
      <point x="20" y="681" type="line"/>
      <point x="20" y="599" type="line"/>
      <point x="40" y="597" type="line" smooth="yes"/>
      <point x="96" y="591"/>
      <point x="108" y="577"/>
      <point x="108" y="513" type="curve" smooth="yes"/>
      <point x="108" y="168" type="line" smooth="yes"/>
      <point x="108" y="104"/>
      <point x="96" y="90"/>
      <point x="40" y="84" type="curve" smooth="yes"/>
      <point x="20" y="82" type="line"/>
      <point x="20" y="0" type="line"/>
      <point x="371" y="0" type="line"/>
      <point x="371" y="82" type="line"/>
      <point x="351" y="84" type="line" smooth="yes"/>
      <point x="295" y="90"/>
      <point x="283" y="104"/>
      <point x="283" y="168" type="curve" smooth="yes"/>
      <point x="283" y="293" type="line"/>
      <point x="335" y="293" type="line"/>
      <point x="551" y="0" type="line"/>
      <point x="783" y="0" type="line"/>
      <point x="783" y="82" type="line"/>
      <point x="724" y="87"/>
      <point x="704" y="99"/>
      <point x="665" y="151" type="curve" smooth="yes"/>
    </contour>
    <contour>
      <point x="283" y="388" type="line"/>
      <point x="283" y="544" type="line" smooth="yes"/>
      <point x="283" y="567"/>
      <point x="285" y="572"/>
      <point x="296" y="578" type="curve" smooth="yes"/>
      <point x="309" y="585"/>
      <point x="330" y="588"/>
      <point x="360" y="588" type="curve" smooth="yes"/>
      <point x="417" y="588"/>
      <point x="446" y="581"/>
      <point x="469" y="562" type="curve" smooth="yes"/>
      <point x="489" y="546"/>
      <point x="502" y="517"/>
      <point x="502" y="489" type="curve" smooth="yes"/>
      <point x="502" y="455"/>
      <point x="484" y="424"/>
      <point x="454" y="408" type="curve" smooth="yes"/>
      <point x="429" y="394"/>
      <point x="401" y="388"/>
      <point x="354" y="388" type="curve" smooth="yes"/>
    </contour>
  </outline>
</glyph>
<glyph name="S" format="1">
  <advance width="660"/>
  <unicode hex="0053"/>
  <outline>
    <contour>
      <point x="458" y="649" type="line"/>
      <point x="418" y="676"/>
      <point x="356" y="694"/>
      <point x="298" y="694" type="curve" smooth="yes"/>
      <point x="148" y="694"/>
      <point x="40" y="603"/>
      <point x="40" y="476" type="curve" smooth="yes"/>
      <point x="40" y="413"/>
      <point x="68" y="358"/>
      <point x="116" y="327" type="curve" smooth="yes"/>
      <point x="151" y="305"/>
      <point x="171" y="298"/>
      <point x="289" y="269" type="curve" smooth="yes"/>
      <point x="388" y="244" type="line" smooth="yes"/>
      <point x="463" y="225"/>
      <point x="484" y="210"/>
      <point x="484" y="173" type="curve" smooth="yes"/>
      <point x="484" y="121"/>
      <point x="432" y="84"/>
      <point x="358" y="84" type="curve" smooth="yes"/>
      <point x="288" y="84"/>
      <point x="218" y="115"/>
      <point x="168" y="167" type="curve" smooth="yes"/>
      <point x="141" y="197"/>
      <point x="122" y="222"/>
      <point x="96" y="269" type="curve"/>
      <point x="21" y="244" type="line"/>
      <point x="104" y="-11" type="line"/>
      <point x="163" y="-11" type="line"/>
      <point x="177" y="38" type="line"/>
      <point x="219" y="7"/>
      <point x="288" y="-13"/>
      <point x="356" y="-13" type="curve" smooth="yes"/>
      <point x="519" y="-13"/>
      <point x="639" y="89"/>
      <point x="639" y="227" type="curve" smooth="yes"/>
      <point x="639" y="289"/>
      <point x="612" y="344"/>
      <point x="566" y="374" type="curve" smooth="yes"/>
      <point x="536" y="394"/>
      <point x="507" y="404"/>
      <point x="423" y="427" type="curve" smooth="yes"/>
      <point x="332" y="451" type="line"/>
      <point x="329" y="452"/>
      <point x="311" y="456"/>
      <point x="283" y="462" type="curve" smooth="yes"/>
      <point x="222" y="476"/>
      <point x="195" y="495"/>
      <point x="195" y="527" type="curve" smooth="yes"/>
      <point x="195" y="568"/>
      <point x="241" y="597"/>
      <point x="305" y="597" type="curve" smooth="yes"/>
      <point x="362" y="597"/>
      <point x="424" y="570"/>
      <point x="462" y="529" type="curve" smooth="yes"/>
      <point x="479" y="511"/>
      <point x="492" y="495"/>
      <point x="524" y="451" type="curve"/>
      <point x="596" y="478" type="line"/>
      <point x="530" y="681" type="line"/>
      <point x="470" y="681" type="line"/>
    </contour>
  </outline>
</glyph>
<glyph name="V" format="1">
  <advance width="720"/>
  <unicode hex="0056"/>
  <outline>
    <contour>
      <point x="398" y="181" type="line"/>
      <point x="269" y="532" type="line" smooth="yes"/>
      <point x="263" y="547"/>
      <point x="261" y="556"/>
      <point x="261" y="564" type="curve" smooth="yes"/>
      <point x="261" y="584"/>
      <point x="272" y="589"/>
      <point x="333" y="597" type="curve" smooth="yes"/>
      <point x="348" y="599" type="line"/>
      <point x="348" y="681" type="line"/>
      <point x="-20" y="681" type="line"/>
      <point x="-20" y="599" type="line"/>
      <point x="-6" y="597" type="line" smooth="yes"/>
      <point x="59" y="588"/>
      <point x="70" y="580"/>
      <point x="93" y="518" type="curve" smooth="yes"/>
      <point x="291" y="0" type="line"/>
      <point x="427" y="0" type="line"/>
      <point x="618" y="501" type="line" smooth="yes"/>
      <point x="646" y="571"/>
      <point x="666" y="590"/>
      <point x="718" y="597" type="curve" smooth="yes"/>
      <point x="730" y="599" type="line"/>
      <point x="730" y="681" type="line"/>
      <point x="447" y="681" type="line"/>
      <point x="447" y="599" type="line"/>
      <point x="464" y="597" type="line" smooth="yes"/>
      <point x="491" y="594"/>
      <point x="495" y="593"/>
      <point x="505" y="590" type="curve" smooth="yes"/>
      <point x="518" y="586"/>
      <point x="526" y="574"/>
      <point x="526" y="559" type="curve" smooth="yes"/>
      <point x="526" y="551"/>
      <point x="524" y="542"/>
      <point x="520" y="529" type="curve" smooth="yes"/>
    </contour>
  </outline>
</glyph>
<glyph name="W" format="1">
  <advance width="940"/>
  <unicode hex="0057"/>
  <outline>
    <contour>
      <point x="651" y="206" type="line"/>
      <point x="559" y="537" type="line" smooth="yes"/>
      <point x="557" y="545"/>
      <point x="555" y="559"/>
      <point x="555" y="566" type="curve" smooth="yes"/>
      <point x="555" y="585"/>
      <point x="566" y="592"/>
      <point x="600" y="596" type="curve" smooth="yes"/>
      <point x="624" y="599" type="line"/>
      <point x="624" y="681" type="line"/>
      <point x="312" y="681" type="line"/>
      <point x="312" y="599" type="line"/>
      <point x="348" y="598"/>
      <point x="360" y="587"/>
      <point x="376" y="544" type="curve" smooth="yes"/>
      <point x="409" y="453" type="line"/>
      <point x="331" y="213" type="line"/>
      <point x="244" y="540" type="line" smooth="yes"/>
      <point x="241" y="551"/>
      <point x="239" y="564"/>
      <point x="239" y="571" type="curve" smooth="yes"/>
      <point x="239" y="589"/>
      <point x="252" y="598"/>
      <point x="281" y="599" type="curve"/>
      <point x="281" y="681" type="line"/>
      <point x="-20" y="681" type="line"/>
      <point x="-20" y="599" type="line"/>
      <point x="26" y="597"/>
      <point x="46" y="577"/>
      <point x="64" y="517" type="curve" smooth="yes"/>
      <point x="228" y="0" type="line"/>
      <point x="357" y="0" type="line"/>
      <point x="456" y="311" type="line"/>
      <point x="549" y="0" type="line"/>
      <point x="680" y="0" type="line"/>
      <point x="836" y="480" type="line" smooth="yes"/>
      <point x="869" y="576"/>
      <point x="880" y="587"/>
      <point x="947" y="597" type="curve" smooth="yes"/>
      <point x="963" y="599" type="line"/>
      <point x="963" y="681" type="line"/>
      <point x="662" y="681" type="line"/>
      <point x="662" y="599" type="line"/>
      <point x="675" y="597" type="line"/>
      <point x="678" y="597"/>
      <point x="685" y="596"/>
      <point x="696" y="594" type="curve"/>
      <point x="734" y="590"/>
      <point x="751" y="578"/>
      <point x="751" y="556" type="curve" smooth="yes"/>
      <point x="751" y="551"/>
      <point x="749" y="539"/>
      <point x="748" y="534" type="curve"/>
    </contour>
  </outline>
</glyph>
<glyph name="X" format="1">
  <advance width="780"/>
  <unicode hex="0058"/>
  <outline>
    <contour>
      <point x="415" y="446" type="line"/>
      <point x="341" y="551" type="line" smooth="yes"/>
      <point x="335" y="560"/>
      <point x="331" y="570"/>
      <point x="331" y="577" type="curve" smooth="yes"/>
      <point x="331" y="594"/>
      <point x="339" y="597"/>
      <point x="392" y="599" type="curve"/>
      <point x="392" y="681" type="line"/>
      <point x="20" y="681" type="line"/>
      <point x="20" y="599" type="line"/>
      <point x="85" y="593"/>
      <point x="99" y="582"/>
      <point x="158" y="500" type="curve" smooth="yes"/>
      <point x="276" y="343" type="line"/>
      <point x="124" y="156" type="line" smooth="yes"/>
      <point x="92" y="114"/>
      <point x="44" y="85"/>
      <point x="1" y="82" type="curve"/>
      <point x="1" y="0" type="line"/>
      <point x="311" y="0" type="line"/>
      <point x="311" y="82" type="line"/>
      <point x="286" y="84" type="line" smooth="yes"/>
      <point x="252" y="87"/>
      <point x="232" y="97"/>
      <point x="232" y="113" type="curve" smooth="yes"/>
      <point x="232" y="120"/>
      <point x="235" y="126"/>
      <point x="248" y="146" type="curve" smooth="yes"/>
      <point x="334" y="270" type="line"/>
      <point x="434" y="129" type="line"/>
      <point x="442" y="119"/>
      <point x="446" y="109"/>
      <point x="446" y="104" type="curve" smooth="yes"/>
      <point x="446" y="93"/>
      <point x="433" y="88"/>
      <point x="399" y="84" type="curve" smooth="yes"/>
      <point x="379" y="82" type="line"/>
      <point x="379" y="0" type="line"/>
      <point x="770" y="0" type="line"/>
      <point x="770" y="82" type="line"/>
      <point x="745" y="84" type="line"/>
      <point x="697" y="91"/>
      <point x="671" y="111"/>
      <point x="607" y="189" type="curve" smooth="yes"/>
      <point x="472" y="365" type="line"/>
      <point x="570" y="489" type="line" smooth="yes"/>
      <point x="623" y="557"/>
      <point x="675" y="589"/>
      <point x="746" y="599" type="curve"/>
      <point x="746" y="681" type="line"/>
      <point x="433" y="681" type="line"/>
      <point x="433" y="599" type="line"/>
      <point x="449" y="599" type="line" smooth="yes"/>
      <point x="481" y="599"/>
      <point x="501" y="590"/>
      <point x="501" y="577" type="curve" smooth="yes"/>
      <point x="501" y="572"/>
      <point x="495" y="559"/>
      <point x="488" y="549" type="curve" smooth="yes"/>
    </contour>
  </outline>
</glyph>
<glyph name="Z" format="1">
  <advance width="640"/>
  <unicode hex="005A"/>
  <outline>
    <contour>
      <point x="588" y="681" type="line"/>
      <point x="105" y="681" type="line"/>
      <point x="6" y="463" type="line"/>
      <point x="75" y="434" type="line"/>
      <point x="129" y="539"/>
      <point x="215" y="594"/>
      <point x="327" y="594" type="curve" smooth="yes"/>
      <point x="341" y="594"/>
      <point x="354" y="593"/>
      <point x="387" y="590" type="curve"/>
      <point x="6" y="65" type="line"/>
      <point x="22" y="0" type="line"/>
      <point x="546" y="0" type="line"/>
      <point x="635" y="234" type="line"/>
      <point x="561" y="258" type="line"/>
      <point x="542" y="207"/>
      <point x="522" y="177"/>
      <point x="489" y="149" type="curve" smooth="yes"/>
      <point x="444" y="109"/>
      <point x="374" y="87"/>
      <point x="298" y="87" type="curve" smooth="yes"/>
      <point x="274" y="87"/>
      <point x="257" y="89"/>
      <point x="227" y="94" type="curve"/>
      <point x="605" y="617" type="line"/>
    </contour>
  </outline>
</glyph>
<glyph name="bracketleft" format="1">
  <advance width="300"/>
  <unicode hex="005B"/>
  <outline>
    <contour>
      <point x="75" y="-138" type="line"/>
      <point x="285" y="-138" type="line"/>
      <point x="285" y="-60" type="line"/>
      <point x="256" y="-60" type="line" smooth="yes"/>
      <point x="222" y="-60"/>
      <point x="213" y="-50"/>
      <point x="213" y="-13" type="curve" smooth="yes"/>
      <point x="213" y="595" type="line" smooth="yes"/>
      <point x="213" y="632"/>
      <point x="222" y="642"/>
      <point x="256" y="642" type="curve" smooth="yes"/>
      <point x="285" y="642" type="line"/>
      <point x="285" y="720" type="line"/>
      <point x="75" y="720" type="line"/>
    </contour>
  </outline>
</glyph>
<glyph name="backslash" format="1">
  <advance width="600"/>
  <unicode hex="005C"/>
  <outline>
    <contour>
      <point x="50" y="725" type="line"/>
      <point x="421" y="0" type="line"/>
      <point x="555" y="0" type="line"/>
      <point x="184" y="725" type="line"/>
    </contour>
  </outline>
</glyph>
<glyph name="bracketright" format="1">
  <advance width="300"/>
  <unicode hex="005D"/>
  <outline>
    <contour>
      <point x="231" y="-138" type="line"/>
      <point x="231" y="720" type="line"/>
      <point x="21" y="720" type="line"/>
      <point x="21" y="642" type="line"/>
      <point x="50" y="642" type="line" smooth="yes"/>
      <point x="85" y="642"/>
      <point x="94" y="632"/>
      <point x="94" y="595" type="curve" smooth="yes"/>
      <point x="94" y="-13" type="line" smooth="yes"/>
      <point x="94" y="-50"/>
      <point x="85" y="-60"/>
      <point x="50" y="-60" type="curve" smooth="yes"/>
      <point x="21" y="-60" type="line"/>
      <point x="21" y="-138" type="line"/>
    </contour>
  </outline>
</glyph>
<glyph name="grave" format="1">
  <advance width="400"/>
  <unicode hex="0060"/>
  <outline>
    <contour>
      <point x="307" y="554" type="line"/>
      <point x="327" y="603" type="line"/>
      <point x="222" y="697" type="line" smooth="yes"/>
      <point x="192" y="723"/>
      <point x="162" y="738"/>
      <point x="138" y="738" type="curve" smooth="yes"/>
      <point x="101" y="738"/>
      <point x="68" y="704"/>
      <point x="68" y="665" type="curve" smooth="yes"/>
      <point x="68" y="627"/>
      <point x="96" y="600"/>
      <point x="148" y="588" type="curve" smooth="yes"/>
    </contour>
  </outline>
</glyph>
<glyph name="a" format="1">
  <advance width="580"/>
  <unicode hex="0061"/>
  <outline>
    <contour>
      <point x="532" y="110" type="line"/>
      <point x="530" y="108"/>
      <point x="528" y="106"/>
      <point x="525" y="104" type="curve"/>
      <point x="517" y="96"/>
      <point x="512" y="93"/>
      <point x="507" y="93" type="curve" smooth="yes"/>
      <point x="500" y="93"/>
      <point x="492" y="98"/>
      <point x="490" y="104" type="curve"/>
      <point x="487" y="111"/>
      <point x="487" y="111"/>
      <point x="486" y="149" type="curve" smooth="yes"/>
      <point x="486" y="346" type="line" smooth="yes"/>
      <point x="486" y="399"/>
      <point x="475" y="431"/>
      <point x="448" y="457" type="curve" smooth="yes"/>
      <point x="413" y="491"/>
      <point x="346" y="511"/>
      <point x="268" y="511" type="curve" smooth="yes"/>
      <point x="139" y="511"/>
      <point x="46" y="453"/>
      <point x="46" y="373" type="curve" smooth="yes"/>
      <point x="46" y="331"/>
      <point x="78" y="298"/>
      <point x="120" y="298" type="curve" smooth="yes"/>
      <point x="144" y="298"/>
      <point x="169" y="308"/>
      <point x="183" y="325" type="curve" smooth="yes"/>
      <point x="193" y="337"/>
      <point x="197" y="351"/>
      <point x="197" y="375" type="curve" smooth="yes"/>
      <point x="197" y="389"/>
      <point x="200" y="396"/>
      <point x="206" y="401" type="curve" smooth="yes"/>
      <point x="218" y="412"/>
      <point x="240" y="419"/>
      <point x="261" y="419" type="curve" smooth="yes"/>
      <point x="304" y="419"/>
      <point x="324" y="401"/>
      <point x="324" y="365" type="curve" smooth="yes"/>
      <point x="324" y="314" type="line"/>
      <point x="269" y="309"/>
      <point x="221" y="300"/>
      <point x="178" y="287" type="curve" smooth="yes"/>
      <point x="78" y="257"/>
      <point x="28" y="204"/>
      <point x="28" y="128" type="curve" smooth="yes"/>
      <point x="28" y="46"/>
      <point x="92" y="-9"/>
      <point x="187" y="-9" type="curve" smooth="yes"/>
      <point x="243" y="-9"/>
      <point x="296" y="8"/>
      <point x="346" y="42" type="curve"/>
      <point x="370" y="11"/>
      <point x="415" y="-9"/>
      <point x="461" y="-9" type="curve" smooth="yes"/>
      <point x="506" y="-9"/>
      <point x="543" y="6"/>
      <point x="588" y="42" type="curve"/>
    </contour>
    <contour>
      <point x="324" y="134" type="line"/>
      <point x="298" y="110"/>
      <point x="273" y="99"/>
      <point x="245" y="99" type="curve" smooth="yes"/>
      <point x="217" y="99"/>
      <point x="198" y="119"/>
      <point x="198" y="149" type="curve" smooth="yes"/>
      <point x="198" y="191"/>
      <point x="237" y="218"/>
      <point x="324" y="234" type="curve"/>
    </contour>
  </outline>
</glyph>
<glyph name="b" format="1">
  <advance width="600"/>
  <unicode hex="0062"/>
  <outline>
    <contour>
      <point x="216" y="724" type="line"/>
      <point x="151" y="724" type="line"/>
      <point x="97" y="700"/>
      <point x="23" y="681"/>
      <point x="-20" y="681" type="curve"/>
      <point x="-20" y="600" type="line"/>
      <point x="-5" y="598" type="line" smooth="yes"/>
      <point x="44" y="592"/>
      <point x="54" y="578"/>
      <point x="54" y="517" type="curve" smooth="yes"/>
      <point x="54" y="0" type="line"/>
      <point x="172" y="0" type="line"/>
      <point x="190" y="32" type="line"/>
      <point x="256" y="-1"/>
      <point x="283" y="-9"/>
      <point x="333" y="-9" type="curve" smooth="yes"/>
      <point x="470" y="-9"/>
      <point x="568" y="98"/>
      <point x="568" y="248" type="curve" smooth="yes"/>
      <point x="568" y="402"/>
      <point x="473" y="511"/>
      <point x="338" y="511" type="curve" smooth="yes"/>
      <point x="300" y="511"/>
      <point x="265" y="503"/>
      <point x="216" y="482" type="curve"/>
    </contour>
    <contour>
      <point x="216" y="376" type="line"/>
      <point x="241" y="402"/>
      <point x="268" y="414"/>
      <point x="302" y="414" type="curve" smooth="yes"/>
      <point x="364" y="414"/>
      <point x="398" y="360"/>
      <point x="398" y="261" type="curve" smooth="yes"/>
      <point x="398" y="152"/>
      <point x="363" y="93"/>
      <point x="297" y="93" type="curve" smooth="yes"/>
      <point x="264" y="93"/>
      <point x="237" y="105"/>
      <point x="216" y="128" type="curve"/>
    </contour>
  </outline>
</glyph>
<glyph name="d" format="1">
  <advance width="640"/>
  <unicode hex="0064"/>
  <outline>
    <contour>
      <point x="545" y="724" type="line"/>
      <point x="492" y="724" type="line"/>
      <point x="432" y="702"/>
      <point x="360" y="685"/>
      <point x="310" y="681" type="curve"/>
      <point x="310" y="600" type="line"/>
      <point x="324" y="598" type="line" smooth="yes"/>
      <point x="374" y="591"/>
      <point x="383" y="578"/>
      <point x="383" y="517" type="curve" smooth="yes"/>
      <point x="383" y="482" type="line"/>
      <point x="349" y="501"/>
      <point x="308" y="511"/>
      <point x="268" y="511" type="curve" smooth="yes"/>
      <point x="134" y="511"/>
      <point x="31" y="396"/>
      <point x="31" y="245" type="curve" smooth="yes"/>
      <point x="31" y="159"/>
      <point x="66" y="81"/>
      <point x="127" y="34" type="curve" smooth="yes"/>
      <point x="165" y="4"/>
      <point x="205" y="-9"/>
      <point x="260" y="-9" type="curve" smooth="yes"/>
      <point x="318" y="-9"/>
      <point x="361" y="6"/>
      <point x="398" y="38" type="curve"/>
      <point x="398" y="0" type="line"/>
      <point x="622" y="0" type="line"/>
      <point x="622" y="81" type="line"/>
      <point x="589" y="88" type="line" smooth="yes"/>
      <point x="551" y="96"/>
      <point x="545" y="106"/>
      <point x="545" y="164" type="curve" smooth="yes"/>
    </contour>
    <contour>
      <point x="383" y="138" type="line"/>
      <point x="361" y="112"/>
      <point x="325" y="96"/>
      <point x="293" y="96" type="curve" smooth="yes"/>
      <point x="239" y="96"/>
      <point x="201" y="157"/>
      <point x="201" y="243" type="curve" smooth="yes"/>
      <point x="201" y="340"/>
      <point x="241" y="403"/>
      <point x="303" y="403" type="curve" smooth="yes"/>
      <point x="333" y="403"/>
      <point x="360" y="393"/>
      <point x="383" y="374" type="curve"/>
    </contour>
  </outline>
</glyph>
<glyph name="g" format="1">
  <advance width="580"/>
  <unicode hex="0067"/>
  <outline>
    <contour>
      <point x="253" y="87" type="line" smooth="yes"/>
      <point x="187" y="92"/>
      <point x="172" y="99"/>
      <point x="172" y="122" type="curve" smooth="yes"/>
      <point x="172" y="134"/>
      <point x="181" y="144"/>
      <point x="193" y="144" type="curve" smooth="yes"/>
      <point x="196" y="144"/>
      <point x="202" y="143"/>
      <point x="208" y="142" type="curve" smooth="yes"/>
      <point x="231" y="137"/>
      <point x="267" y="133"/>
      <point x="292" y="133" type="curve" smooth="yes"/>
      <point x="422" y="133"/>
      <point x="514" y="211"/>
      <point x="514" y="322" type="curve" smooth="yes"/>
      <point x="514" y="382"/>
      <point x="491" y="426"/>
      <point x="436" y="468" type="curve"/>
      <point x="446" y="477"/>
      <point x="452" y="480"/>
      <point x="467" y="480" type="curve" smooth="yes"/>
      <point x="476" y="480"/>
      <point x="477" y="480"/>
      <point x="498" y="473" type="curve" smooth="yes"/>
      <point x="507" y="470"/>
      <point x="516" y="468"/>
      <point x="522" y="468" type="curve" smooth="yes"/>
      <point x="556" y="468"/>
      <point x="583" y="494"/>
      <point x="583" y="525" type="curve" smooth="yes"/>
      <point x="583" y="563"/>
      <point x="549" y="593"/>
      <point x="505" y="593" type="curve" smooth="yes"/>
      <point x="472" y="593"/>
      <point x="432" y="577"/>
      <point x="407" y="555" type="curve" smooth="yes"/>
      <point x="394" y="543"/>
      <point x="385" y="533"/>
      <point x="363" y="503" type="curve"/>
      <point x="323" y="512"/>
      <point x="303" y="515"/>
      <point x="276" y="515" type="curve" smooth="yes"/>
      <point x="148" y="515"/>
      <point x="54" y="433"/>
      <point x="54" y="323" type="curve" smooth="yes"/>
      <point x="54" y="267"/>
      <point x="77" y="220"/>
      <point x="123" y="185" type="curve"/>
      <point x="64" y="171"/>
      <point x="27" y="124"/>
      <point x="27" y="64" type="curve" smooth="yes"/>
      <point x="27" y="29"/>
      <point x="43" y="2"/>
      <point x="77" y="-23" type="curve"/>
      <point x="31" y="-44"/>
      <point x="9" y="-72"/>
      <point x="9" y="-113" type="curve" smooth="yes"/>
      <point x="9" y="-166"/>
      <point x="45" y="-206"/>
      <point x="110" y="-227" type="curve" smooth="yes"/>
      <point x="150" y="-240"/>
      <point x="213" y="-248"/>
      <point x="269" y="-248" type="curve" smooth="yes"/>
      <point x="354" y="-248"/>
      <point x="434" y="-232"/>
      <point x="482" y="-206" type="curve" smooth="yes"/>
      <point x="531" y="-179"/>
      <point x="566" y="-118"/>
      <point x="566" y="-60" type="curve" smooth="yes"/>
      <point x="566" y="18"/>
      <point x="513" y="64"/>
      <point x="411" y="73" type="curve" smooth="yes"/>
    </contour>
    <contour>
      <point x="284" y="423" type="curve" smooth="yes"/>
      <point x="332" y="423"/>
      <point x="352" y="391"/>
      <point x="352" y="313" type="curve" smooth="yes"/>
      <point x="352" y="246"/>
      <point x="330" y="215"/>
      <point x="284" y="215" type="curve" smooth="yes"/>
      <point x="237" y="215"/>
      <point x="216" y="246"/>
      <point x="216" y="315" type="curve" smooth="yes"/>
      <point x="216" y="390"/>
      <point x="237" y="423"/>
    </contour>
    <contour>
      <point x="332" y="-78" type="line" smooth="yes"/>
      <point x="394" y="-85"/>
      <point x="411" y="-94"/>
      <point x="411" y="-118" type="curve" smooth="yes"/>
      <point x="411" y="-150"/>
      <point x="364" y="-166"/>
      <point x="266" y="-166" type="curve" smooth="yes"/>
      <point x="183" y="-166"/>
      <point x="122" y="-141"/>
      <point x="122" y="-108" type="curve" smooth="yes"/>
      <point x="122" y="-89"/>
      <point x="134" y="-72"/>
      <point x="155" y="-59" type="curve"/>
    </contour>
  </outline>
</glyph>
<glyph name="h" format="1">
  <advance width="680"/>
  <unicode hex="0068"/>
  <outline>
    <contour>
      <point x="263" y="364" type="line"/>
      <point x="287" y="385"/>
      <point x="338" y="403"/>
      <point x="370" y="403" type="curve" smooth="yes"/>
      <point x="398" y="403"/>
      <point x="412" y="383"/>
      <point x="412" y="341" type="curve" smooth="yes"/>
      <point x="412" y="164" type="line" smooth="yes"/>
      <point x="412" y="106"/>
      <point x="410" y="103"/>
      <point x="368" y="86" type="curve" smooth="yes"/>
      <point x="355" y="81" type="line"/>
      <point x="355" y="0" type="line"/>
      <point x="654" y="0" type="line"/>
      <point x="654" y="81" type="line"/>
      <point x="618" y="88" type="line" smooth="yes"/>
      <point x="581" y="95"/>
      <point x="574" y="108"/>
      <point x="574" y="164" type="curve" smooth="yes"/>
      <point x="574" y="354" type="line" smooth="yes"/>
      <point x="574" y="410"/>
      <point x="563" y="441"/>
      <point x="532" y="469" type="curve" smooth="yes"/>
      <point x="503" y="496"/>
      <point x="463" y="511"/>
      <point x="418" y="511" type="curve" smooth="yes"/>
      <point x="364" y="511"/>
      <point x="320" y="498"/>
      <point x="263" y="466" type="curve"/>
      <point x="263" y="724" type="line"/>
      <point x="198" y="724" type="line"/>
      <point x="135" y="697"/>
      <point x="67" y="680"/>
      <point x="22" y="681" type="curve"/>
      <point x="22" y="600" type="line"/>
      <point x="42" y="598" type="line" smooth="yes"/>
      <point x="59" y="596"/>
      <point x="81" y="588"/>
      <point x="88" y="580" type="curve"/>
      <point x="98" y="570"/>
      <point x="101" y="556"/>
      <point x="101" y="517" type="curve" smooth="yes"/>
      <point x="101" y="164" type="line" smooth="yes"/>
      <point x="101" y="108"/>
      <point x="94" y="95"/>
      <point x="57" y="88" type="curve" smooth="yes"/>
      <point x="22" y="81" type="line"/>
      <point x="22" y="0" type="line"/>
      <point x="320" y="0" type="line"/>
      <point x="320" y="81" type="line"/>
      <point x="307" y="86" type="line" smooth="yes"/>
      <point x="265" y="103"/>
      <point x="263" y="106"/>
      <point x="263" y="164" type="curve" smooth="yes"/>
    </contour>
  </outline>
</glyph>
<glyph name="i" format="1">
  <advance width="360"/>
  <unicode hex="0069"/>
  <outline>
    <contour>
      <point x="260" y="502" type="line"/>
      <point x="198" y="502" type="line"/>
      <point x="22" y="473" type="line"/>
      <point x="22" y="392" type="line"/>
      <point x="43" y="390" type="line" smooth="yes"/>
      <point x="86" y="386"/>
      <point x="98" y="369"/>
      <point x="98" y="308" type="curve" smooth="yes"/>
      <point x="98" y="164" type="line" smooth="yes"/>
      <point x="98" y="107"/>
      <point x="92" y="96"/>
      <point x="54" y="88" type="curve" smooth="yes"/>
      <point x="22" y="81" type="line"/>
      <point x="22" y="0" type="line"/>
      <point x="335" y="0" type="line"/>
      <point x="335" y="81" type="line"/>
      <point x="304" y="88" type="line" smooth="yes"/>
      <point x="266" y="97"/>
      <point x="260" y="107"/>
      <point x="260" y="164" type="curve" smooth="yes"/>
    </contour>
    <contour>
      <point x="173" y="730" type="curve" smooth="yes"/>
      <point x="120" y="730"/>
      <point x="74" y="685"/>
      <point x="74" y="632" type="curve" smooth="yes"/>
      <point x="74" y="579"/>
      <point x="116" y="536"/>
      <point x="169" y="536" type="curve" smooth="yes"/>
      <point x="223" y="536"/>
      <point x="268" y="581"/>
      <point x="268" y="635" type="curve" smooth="yes"/>
      <point x="268" y="688"/>
      <point x="227" y="730"/>
    </contour>
  </outline>
</glyph>
<glyph name="j" format="1">
  <advance width="340"/>
  <unicode hex="006A"/>
  <outline>
    <contour>
      <point x="275" y="502" type="line"/>
      <point x="213" y="502" type="line"/>
      <point x="40" y="473" type="line"/>
      <point x="40" y="392" type="line"/>
      <point x="58" y="390" type="line" smooth="yes"/>
      <point x="102" y="385"/>
      <point x="113" y="369"/>
      <point x="113" y="308" type="curve" smooth="yes"/>
      <point x="113" y="-61" type="line" smooth="yes"/>
      <point x="113" y="-108"/>
      <point x="102" y="-129"/>
      <point x="76" y="-129" type="curve" smooth="yes"/>
      <point x="66" y="-129"/>
      <point x="57" y="-124"/>
      <point x="48" y="-115" type="curve" smooth="yes"/>
      <point x="17" y="-82"/>
      <point x="6" y="-76"/>
      <point x="-21" y="-76" type="curve" smooth="yes"/>
      <point x="-63" y="-76"/>
      <point x="-94" y="-104"/>
      <point x="-94" y="-142" type="curve" smooth="yes"/>
      <point x="-94" y="-194"/>
      <point x="-43" y="-226"/>
      <point x="42" y="-226" type="curve" smooth="yes"/>
      <point x="135" y="-226"/>
      <point x="209" y="-194"/>
      <point x="247" y="-137" type="curve" smooth="yes"/>
      <point x="268" y="-106"/>
      <point x="275" y="-76"/>
      <point x="275" y="-13" type="curve" smooth="yes"/>
    </contour>
    <contour>
      <point x="186" y="731" type="curve" smooth="yes"/>
      <point x="135" y="731"/>
      <point x="90" y="686"/>
      <point x="90" y="633" type="curve" smooth="yes"/>
      <point x="90" y="580"/>
      <point x="131" y="536"/>
      <point x="182" y="536" type="curve" smooth="yes"/>
      <point x="234" y="536"/>
      <point x="278" y="582"/>
      <point x="278" y="635" type="curve" smooth="yes"/>
      <point x="278" y="689"/>
      <point x="238" y="731"/>
    </contour>
  </outline>
</glyph>
<glyph name="k" format="1">
  <advance width="660"/>
  <unicode hex="006B"/>
  <outline>
    <contour>
      <point x="257" y="304" type="line"/>
      <point x="257" y="724" type="line"/>
      <point x="192" y="724" type="line"/>
      <point x="138" y="700"/>
      <point x="66" y="681"/>
      <point x="22" y="681" type="curve"/>
      <point x="22" y="600" type="line"/>
      <point x="36" y="598" type="line" smooth="yes"/>
      <point x="86" y="591"/>
      <point x="95" y="578"/>
      <point x="95" y="517" type="curve" smooth="yes"/>
      <point x="95" y="164" type="line" smooth="yes"/>
      <point x="95" y="107"/>
      <point x="89" y="97"/>
      <point x="51" y="88" type="curve" smooth="yes"/>
      <point x="22" y="81" type="line"/>
      <point x="22" y="0" type="line"/>
      <point x="317" y="0" type="line"/>
      <point x="317" y="81" type="line"/>
      <point x="303" y="84" type="line" smooth="yes"/>
      <point x="288" y="87"/>
      <point x="272" y="98"/>
      <point x="265" y="113" type="curve"/>
      <point x="258" y="126"/>
      <point x="257" y="134"/>
      <point x="257" y="164" type="curve" smooth="yes"/>
      <point x="257" y="195" type="line"/>
      <point x="294" y="228" type="line"/>
      <point x="361" y="124" type="line" smooth="yes"/>
      <point x="368" y="113"/>
      <point x="371" y="105"/>
      <point x="371" y="100" type="curve" smooth="yes"/>
      <point x="371" y="92"/>
      <point x="362" y="85"/>
      <point x="349" y="83" type="curve" smooth="yes"/>
      <point x="338" y="81" type="line"/>
      <point x="338" y="0" type="line"/>
      <point x="643" y="0" type="line"/>
      <point x="643" y="81" type="line"/>
      <point x="625" y="83" type="line" smooth="yes"/>
      <point x="592" y="87"/>
      <point x="565" y="104"/>
      <point x="546" y="132" type="curve" smooth="yes"/>
      <point x="410" y="322" type="line"/>
      <point x="498" y="387" type="line" smooth="yes"/>
      <point x="528" y="409"/>
      <point x="543" y="415"/>
      <point x="580" y="420" type="curve"/>
      <point x="594" y="421" type="line"/>
      <point x="594" y="502" type="line"/>
      <point x="305" y="502" type="line"/>
      <point x="305" y="421" type="line"/>
      <point x="316" y="420" type="line" smooth="yes"/>
      <point x="334" y="419"/>
      <point x="342" y="413"/>
      <point x="342" y="403" type="curve" smooth="yes"/>
      <point x="342" y="396"/>
      <point x="341" y="395"/>
      <point x="322" y="374" type="curve" smooth="yes"/>
    </contour>
  </outline>
</glyph>
<glyph name="m" format="1">
  <advance width="1000"/>
  <unicode hex="006D"/>
  <outline>
    <contour>
      <point x="261" y="368" type="line"/>
      <point x="299" y="393"/>
      <point x="345" y="409"/>
      <point x="376" y="409" type="curve" smooth="yes"/>
      <point x="407" y="409"/>
      <point x="420" y="391"/>
      <point x="420" y="350" type="curve" smooth="yes"/>
      <point x="420" y="164" type="line" smooth="yes"/>
      <point x="420" y="107"/>
      <point x="414" y="97"/>
      <point x="376" y="86" type="curve" smooth="yes"/>
      <point x="358" y="81" type="line"/>
      <point x="358" y="0" type="line"/>
      <point x="644" y="0" type="line"/>
      <point x="644" y="81" type="line"/>
      <point x="626" y="86" type="line" smooth="yes"/>
      <point x="588" y="97"/>
      <point x="582" y="107"/>
      <point x="582" y="164" type="curve" smooth="yes"/>
      <point x="582" y="368" type="line"/>
      <point x="614" y="388"/>
      <point x="660" y="403"/>
      <point x="686" y="403" type="curve" smooth="yes"/>
      <point x="720" y="403"/>
      <point x="741" y="381"/>
      <point x="741" y="346" type="curve" smooth="yes"/>
      <point x="741" y="164" type="line" smooth="yes"/>
      <point x="741" y="107"/>
      <point x="735" y="97"/>
      <point x="697" y="86" type="curve" smooth="yes"/>
      <point x="679" y="81" type="line"/>
      <point x="679" y="0" type="line"/>
      <point x="980" y="0" type="line"/>
      <point x="980" y="81" type="line"/>
      <point x="947" y="88" type="line" smooth="yes"/>
      <point x="910" y="96"/>
      <point x="903" y="107"/>
      <point x="903" y="164" type="curve" smooth="yes"/>
      <point x="903" y="358" type="line" smooth="yes"/>
      <point x="903" y="408"/>
      <point x="896" y="432"/>
      <point x="873" y="459" type="curve" smooth="yes"/>
      <point x="842" y="494"/>
      <point x="800" y="511"/>
      <point x="743" y="511" type="curve" smooth="yes"/>
      <point x="677" y="511"/>
      <point x="613" y="493"/>
      <point x="557" y="459" type="curve"/>
      <point x="521" y="493"/>
      <point x="475" y="511"/>
      <point x="422" y="511" type="curve" smooth="yes"/>
      <point x="355" y="511"/>
      <point x="295" y="495"/>
      <point x="244" y="465" type="curve"/>
      <point x="244" y="502" type="line"/>
      <point x="182" y="502" type="line"/>
      <point x="22" y="473" type="line"/>
      <point x="22" y="392" type="line"/>
      <point x="44" y="390" type="line" smooth="yes"/>
      <point x="87" y="386"/>
      <point x="99" y="368"/>
      <point x="99" y="308" type="curve" smooth="yes"/>
      <point x="99" y="164" type="line" smooth="yes"/>
      <point x="99" y="107"/>
      <point x="92" y="96"/>
      <point x="55" y="88" type="curve" smooth="yes"/>
      <point x="22" y="81" type="line"/>
      <point x="22" y="0" type="line"/>
      <point x="323" y="0" type="line"/>
      <point x="323" y="81" type="line"/>
      <point x="305" y="86" type="line" smooth="yes"/>
      <point x="267" y="97"/>
      <point x="261" y="107"/>
      <point x="261" y="164" type="curve" smooth="yes"/>
    </contour>
  </outline>
</glyph>
<glyph name="p" format="1">
  <advance width="640"/>
  <unicode hex="0070"/>
  <outline>
    <contour>
      <point x="240" y="502" type="line"/>
      <point x="178" y="502" type="line"/>
      <point x="22" y="473" type="line"/>
      <point x="22" y="392" type="line"/>
      <point x="40" y="390" type="line" smooth="yes"/>
      <point x="84" y="385"/>
      <point x="95" y="369"/>
      <point x="95" y="308" type="curve" smooth="yes"/>
      <point x="95" y="-49" type="line" smooth="yes"/>
      <point x="95" y="-106"/>
      <point x="89" y="-116"/>
      <point x="51" y="-125" type="curve" smooth="yes"/>
      <point x="22" y="-132" type="line"/>
      <point x="22" y="-213" type="line"/>
      <point x="330" y="-213" type="line"/>
      <point x="330" y="-132" type="line"/>
      <point x="301" y="-125" type="line" smooth="yes"/>
      <point x="263" y="-116"/>
      <point x="257" y="-106"/>
      <point x="257" y="-49" type="curve" smooth="yes"/>
      <point x="257" y="19" type="line"/>
      <point x="268" y="15" type="line" smooth="yes"/>
      <point x="316" y="-4"/>
      <point x="341" y="-9"/>
      <point x="377" y="-9" type="curve" smooth="yes"/>
      <point x="512" y="-9"/>
      <point x="611" y="105"/>
      <point x="611" y="259" type="curve" smooth="yes"/>
      <point x="611" y="401"/>
      <point x="507" y="511"/>
      <point x="374" y="511" type="curve" smooth="yes"/>
      <point x="331" y="511"/>
      <point x="303" y="503"/>
      <point x="240" y="473" type="curve"/>
    </contour>
    <contour>
      <point x="257" y="373" type="line"/>
      <point x="279" y="398"/>
      <point x="313" y="414"/>
      <point x="344" y="414" type="curve" smooth="yes"/>
      <point x="404" y="414"/>
      <point x="441" y="355"/>
      <point x="441" y="262" type="curve" smooth="yes"/>
      <point x="441" y="155"/>
      <point x="402" y="93"/>
      <point x="334" y="93" type="curve" smooth="yes"/>
      <point x="308" y="93"/>
      <point x="277" y="106"/>
      <point x="257" y="124" type="curve"/>
    </contour>
  </outline>
</glyph>
<glyph name="q" format="1">
  <advance width="620"/>
  <unicode hex="0071"/>
  <outline>
    <contour>
      <point x="419" y="468" type="line"/>
      <point x="375" y="496"/>
      <point x="326" y="511"/>
      <point x="272" y="511" type="curve" smooth="yes"/>
      <point x="129" y="511"/>
      <point x="31" y="405"/>
      <point x="31" y="251" type="curve" smooth="yes"/>
      <point x="31" y="99"/>
      <point x="132" y="-9"/>
      <point x="273" y="-9" type="curve" smooth="yes"/>
      <point x="323" y="-9"/>
      <point x="368" y="4"/>
      <point x="391" y="24" type="curve"/>
      <point x="391" y="-49" type="line" smooth="yes"/>
      <point x="391" y="-106"/>
      <point x="384" y="-118"/>
      <point x="347" y="-125" type="curve" smooth="yes"/>
      <point x="311" y="-132" type="line"/>
      <point x="311" y="-213" type="line"/>
      <point x="633" y="-213" type="line"/>
      <point x="633" y="-132" type="line"/>
      <point x="597" y="-125" type="line" smooth="yes"/>
      <point x="559" y="-118"/>
      <point x="553" y="-107"/>
      <point x="553" y="-49" type="curve" smooth="yes"/>
      <point x="553" y="502" type="line"/>
      <point x="438" y="502" type="line"/>
    </contour>
    <contour>
      <point x="391" y="117" type="line"/>
      <point x="363" y="99"/>
      <point x="328" y="88"/>
      <point x="303" y="88" type="curve" smooth="yes"/>
      <point x="263" y="88"/>
      <point x="238" y="104"/>
      <point x="221" y="140" type="curve" smooth="yes"/>
      <point x="208" y="170"/>
      <point x="201" y="205"/>
      <point x="201" y="246" type="curve" smooth="yes"/>
      <point x="201" y="352"/>
      <point x="238" y="409"/>
      <point x="308" y="409" type="curve" smooth="yes"/>
      <point x="338" y="409"/>
      <point x="365" y="399"/>
      <point x="391" y="377" type="curve"/>
    </contour>
  </outline>
</glyph>
<glyph name="r" format="1">
  <advance width="460"/>
  <unicode hex="0072"/>
  <outline>
    <contour>
      <point x="240" y="502" type="line"/>
      <point x="178" y="502" type="line"/>
      <point x="22" y="473" type="line"/>
      <point x="22" y="392" type="line"/>
      <point x="40" y="390" type="line" smooth="yes"/>
      <point x="84" y="385"/>
      <point x="95" y="369"/>
      <point x="95" y="308" type="curve" smooth="yes"/>
      <point x="95" y="164" type="line" smooth="yes"/>
      <point x="95" y="107"/>
      <point x="89" y="97"/>
      <point x="51" y="88" type="curve" smooth="yes"/>
      <point x="22" y="81" type="line"/>
      <point x="22" y="0" type="line"/>
      <point x="330" y="0" type="line"/>
      <point x="330" y="81" type="line"/>
      <point x="301" y="88" type="line" smooth="yes"/>
      <point x="263" y="97"/>
      <point x="257" y="107"/>
      <point x="257" y="164" type="curve" smooth="yes"/>
      <point x="257" y="358" type="line"/>
      <point x="271" y="370"/>
      <point x="281" y="374"/>
      <point x="297" y="374" type="curve" smooth="yes"/>
      <point x="309" y="374"/>
      <point x="309" y="374"/>
      <point x="332" y="359" type="curve" smooth="yes"/>
      <point x="350" y="347"/>
      <point x="364" y="343"/>
      <point x="383" y="343" type="curve" smooth="yes"/>
      <point x="428" y="343"/>
      <point x="462" y="375"/>
      <point x="462" y="419" type="curve" smooth="yes"/>
      <point x="462" y="471"/>
      <point x="423" y="511"/>
      <point x="372" y="511" type="curve" smooth="yes"/>
      <point x="331" y="511"/>
      <point x="306" y="500"/>
      <point x="240" y="453" type="curve"/>
    </contour>
  </outline>
</glyph>
<glyph name="s" format="1">
  <advance width="520"/>
  <unicode hex="0073"/>
  <outline>
    <contour>
      <point x="437" y="502" type="line"/>
      <point x="374" y="502" type="line"/>
      <point x="362" y="478" type="line"/>
      <point x="310" y="503"/>
      <point x="280" y="511"/>
      <point x="234" y="511" type="curve" smooth="yes"/>
      <point x="116" y="511"/>
      <point x="30" y="438"/>
      <point x="30" y="337" type="curve" smooth="yes"/>
      <point x="30" y="255"/>
      <point x="86" y="203"/>
      <point x="190" y="189" type="curve" smooth="yes"/>
      <point x="254" y="181" type="line" smooth="yes"/>
      <point x="316" y="172"/>
      <point x="342" y="159"/>
      <point x="342" y="135" type="curve" smooth="yes"/>
      <point x="342" y="112"/>
      <point x="304" y="93"/>
      <point x="255" y="93" type="curve" smooth="yes"/>
      <point x="215" y="93"/>
      <point x="172" y="108"/>
      <point x="144" y="133" type="curve" smooth="yes"/>
      <point x="132" y="143"/>
      <point x="124" y="153"/>
      <point x="99" y="181" type="curve"/>
      <point x="22" y="165" type="line"/>
      <point x="62" y="-4" type="line"/>
      <point x="128" y="-4" type="line"/>
      <point x="140" y="21" type="line"/>
      <point x="191" y="-2"/>
      <point x="224" y="-9"/>
      <point x="271" y="-9" type="curve" smooth="yes"/>
      <point x="395" y="-9"/>
      <point x="492" y="70"/>
      <point x="492" y="171" type="curve" smooth="yes"/>
      <point x="492" y="210"/>
      <point x="478" y="246"/>
      <point x="451" y="271" type="curve" smooth="yes"/>
      <point x="424" y="298"/>
      <point x="403" y="307"/>
      <point x="328" y="321" type="curve" smooth="yes"/>
      <point x="253" y="335" type="line" smooth="yes"/>
      <point x="197" y="345"/>
      <point x="175" y="358"/>
      <point x="175" y="380" type="curve" smooth="yes"/>
      <point x="175" y="402"/>
      <point x="204" y="419"/>
      <point x="244" y="419" type="curve" smooth="yes"/>
      <point x="295" y="419"/>
      <point x="336" y="394"/>
      <point x="374" y="342" type="curve"/>
      <point x="456" y="354" type="line"/>
    </contour>
  </outline>
</glyph>
<glyph name="t" format="1">
  <advance width="460"/>
  <unicode hex="0074"/>
  <outline>
    <contour>
      <point x="397" y="417" type="line"/>
      <point x="397" y="502" type="line"/>
      <point x="260" y="502" type="line"/>
      <point x="260" y="661" type="line"/>
      <point x="166" y="661" type="line"/>
      <point x="156" y="558"/>
      <point x="109" y="503"/>
      <point x="22" y="491" type="curve"/>
      <point x="22" y="412" type="line"/>
      <point x="98" y="412" type="line"/>
      <point x="98" y="159" type="line" smooth="yes"/>
      <point x="98" y="98"/>
      <point x="102" y="74"/>
      <point x="114" y="50" type="curve" smooth="yes"/>
      <point x="136" y="11"/>
      <point x="176" y="-9"/>
      <point x="234" y="-9" type="curve" smooth="yes"/>
      <point x="324" y="-9"/>
      <point x="387" y="21"/>
      <point x="445" y="91" type="curve"/>
      <point x="385" y="162" type="line"/>
      <point x="341" y="119"/>
      <point x="321" y="107"/>
      <point x="296" y="107" type="curve" smooth="yes"/>
      <point x="269" y="107"/>
      <point x="260" y="123"/>
      <point x="260" y="175" type="curve" smooth="yes"/>
      <point x="260" y="417" type="line"/>
    </contour>
  </outline>
</glyph>
<glyph name="v" format="1">
  <advance width="600"/>
  <unicode hex="0076"/>
  <outline>
    <contour>
      <point x="593" y="502" type="line"/>
      <point x="337" y="502" type="line"/>
      <point x="337" y="421" type="line"/>
      <point x="375" y="412"/>
      <point x="390" y="403"/>
      <point x="390" y="388" type="curve" smooth="yes"/>
      <point x="390" y="381"/>
      <point x="389" y="378"/>
      <point x="378" y="347" type="curve" smooth="yes"/>
      <point x="317" y="187" type="line"/>
      <point x="252" y="354" type="line"/>
      <point x="252" y="356"/>
      <point x="250" y="360"/>
      <point x="248" y="365" type="curve" smooth="yes"/>
      <point x="243" y="377"/>
      <point x="241" y="383"/>
      <point x="241" y="387" type="curve" smooth="yes"/>
      <point x="241" y="407"/>
      <point x="260" y="418"/>
      <point x="298" y="421" type="curve"/>
      <point x="298" y="502" type="line"/>
      <point x="-6" y="502" type="line"/>
      <point x="-6" y="421" type="line"/>
      <point x="47" y="405"/>
      <point x="48" y="404"/>
      <point x="81" y="333" type="curve" smooth="yes"/>
      <point x="236" y="0" type="line"/>
      <point x="337" y="0" type="line"/>
      <point x="480" y="304" type="line" smooth="yes"/>
      <point x="518" y="383"/>
      <point x="523" y="388"/>
      <point x="593" y="421" type="curve"/>
    </contour>
  </outline>
</glyph>
<glyph name="w" format="1">
  <advance width="800"/>
  <unicode hex="0077"/>
  <outline>
    <contour>
      <point x="557" y="189" type="line"/>
      <point x="497" y="364" type="line" smooth="yes"/>
      <point x="494" y="372"/>
      <point x="493" y="379"/>
      <point x="493" y="385" type="curve" smooth="yes"/>
      <point x="493" y="404"/>
      <point x="505" y="414"/>
      <point x="533" y="419" type="curve" smooth="yes"/>
      <point x="548" y="421" type="line"/>
      <point x="548" y="502" type="line"/>
      <point x="286" y="502" type="line"/>
      <point x="286" y="421" type="line"/>
      <point x="297" y="418" type="line"/>
      <point x="323" y="409"/>
      <point x="324" y="408"/>
      <point x="339" y="369" type="curve" smooth="yes"/>
      <point x="343" y="358" type="line"/>
      <point x="286" y="177" type="line"/>
      <point x="213" y="364" type="line"/>
      <point x="211" y="370"/>
      <point x="209" y="378"/>
      <point x="209" y="382" type="curve" smooth="yes"/>
      <point x="209" y="400"/>
      <point x="225" y="414"/>
      <point x="250" y="419" type="curve" smooth="yes"/>
      <point x="263" y="421" type="line"/>
      <point x="263" y="502" type="line"/>
      <point x="-6" y="502" type="line"/>
      <point x="-6" y="421" type="line"/>
      <point x="5" y="417" type="line" smooth="yes"/>
      <point x="44" y="401"/>
      <point x="52" y="390"/>
      <point x="72" y="333" type="curve" smooth="yes"/>
      <point x="207" y="0" type="line"/>
      <point x="323" y="0" type="line"/>
      <point x="398" y="215" type="line"/>
      <point x="472" y="0" type="line"/>
      <point x="593" y="0" type="line"/>
      <point x="722" y="338" type="line" smooth="yes"/>
      <point x="741" y="391"/>
      <point x="763" y="413"/>
      <point x="799" y="419" type="curve" smooth="yes"/>
      <point x="810" y="421" type="line"/>
      <point x="810" y="502" type="line"/>
      <point x="571" y="502" type="line"/>
      <point x="571" y="421" type="line"/>
      <point x="583" y="418" type="line" smooth="yes"/>
      <point x="611" y="411"/>
      <point x="626" y="398"/>
      <point x="626" y="381" type="curve" smooth="yes"/>
      <point x="626" y="376"/>
      <point x="625" y="370"/>
      <point x="623" y="364" type="curve" smooth="yes"/>
    </contour>
  </outline>
</glyph>
<glyph name="x" format="1">
  <advance width="600"/>
  <unicode hex="0078"/>
  <outline>
    <contour>
      <point x="584" y="502" type="line"/>
      <point x="344" y="502" type="line"/>
      <point x="344" y="421" type="line"/>
      <point x="368" y="419"/>
      <point x="377" y="415"/>
      <point x="377" y="407" type="curve" smooth="yes"/>
      <point x="377" y="399"/>
      <point x="373" y="392"/>
      <point x="362" y="382" type="curve" smooth="yes"/>
      <point x="319" y="341" type="line"/>
      <point x="287" y="383" type="line" smooth="yes"/>
      <point x="280" y="392"/>
      <point x="277" y="398"/>
      <point x="277" y="402" type="curve" smooth="yes"/>
      <point x="277" y="413"/>
      <point x="291" y="419"/>
      <point x="317" y="421" type="curve"/>
      <point x="317" y="502" type="line"/>
      <point x="29" y="502" type="line"/>
      <point x="29" y="421" type="line"/>
      <point x="91" y="413"/>
      <point x="110" y="400"/>
      <point x="147" y="344" type="curve"/>
      <point x="209" y="260" type="line"/>
      <point x="137" y="182" type="line" smooth="yes"/>
      <point x="95" y="137"/>
      <point x="70" y="111"/>
      <point x="64" y="106" type="curve"/>
      <point x="45" y="93"/>
      <point x="36" y="89"/>
      <point x="8" y="81" type="curve"/>
      <point x="8" y="0" type="line"/>
      <point x="253" y="0" type="line"/>
      <point x="253" y="81" type="line"/>
      <point x="219" y="84"/>
      <point x="202" y="91"/>
      <point x="202" y="103" type="curve" smooth="yes"/>
      <point x="202" y="111"/>
      <point x="205" y="117"/>
      <point x="218" y="131" type="curve" smooth="yes"/>
      <point x="266" y="185" type="line"/>
      <point x="306" y="131" type="line" smooth="yes"/>
      <point x="316" y="118"/>
      <point x="321" y="107"/>
      <point x="321" y="101" type="curve" smooth="yes"/>
      <point x="321" y="92"/>
      <point x="311" y="87"/>
      <point x="281" y="81" type="curve"/>
      <point x="281" y="0" type="line"/>
      <point x="591" y="0" type="line"/>
      <point x="591" y="81" type="line"/>
      <point x="521" y="96"/>
      <point x="499" y="108"/>
      <point x="462" y="155" type="curve" smooth="yes"/>
      <point x="369" y="275" type="line"/>
      <point x="429" y="328" type="line"/>
      <point x="431" y="330"/>
      <point x="437" y="335"/>
      <point x="444" y="341" type="curve" smooth="yes"/>
      <point x="506" y="397"/>
      <point x="528" y="409"/>
      <point x="584" y="421" type="curve"/>
    </contour>
  </outline>
</glyph>
<glyph name="braceleft" format="1">
  <advance width="320"/>
  <unicode hex="007B"/>
  <outline>
    <contour>
      <point x="280" y="-60" type="line"/>
      <point x="227" y="-54"/>
      <point x="205" y="-37"/>
      <point x="205" y="-1" type="curve" smooth="yes"/>
      <point x="205" y="178" type="line" smooth="yes"/>
      <point x="205" y="241"/>
      <point x="186" y="269"/>
      <point x="133" y="290" type="curve"/>
      <point x="186" y="311"/>
      <point x="205" y="339"/>
      <point x="205" y="402" type="curve" smooth="yes"/>
      <point x="205" y="581" type="line" smooth="yes"/>
      <point x="205" y="617"/>
      <point x="227" y="634"/>
      <point x="280" y="640" type="curve"/>
      <point x="280" y="718" type="line"/>
      <point x="254" y="720"/>
      <point x="243" y="720"/>
      <point x="232" y="720" type="curve" smooth="yes"/>
      <point x="186" y="720"/>
      <point x="149" y="705"/>
      <point x="129" y="678" type="curve" smooth="yes"/>
      <point x="114" y="659"/>
      <point x="107" y="631"/>
      <point x="107" y="593" type="curve" smooth="yes"/>
      <point x="107" y="391" type="line" smooth="yes"/>
      <point x="107" y="354"/>
      <point x="86" y="335"/>
      <point x="34" y="328" type="curve"/>
      <point x="34" y="252" type="line"/>
      <point x="86" y="245"/>
      <point x="107" y="226"/>
      <point x="107" y="189" type="curve" smooth="yes"/>
      <point x="107" y="-13" type="line" smooth="yes"/>
      <point x="107" y="-51"/>
      <point x="114" y="-79"/>
      <point x="129" y="-98" type="curve" smooth="yes"/>
      <point x="148" y="-124"/>
      <point x="187" y="-140"/>
      <point x="228" y="-140" type="curve" smooth="yes"/>
      <point x="237" y="-140"/>
      <point x="248" y="-140"/>
      <point x="280" y="-138" type="curve"/>
    </contour>
  </outline>
</glyph>
<glyph name="braceright" format="1">
  <advance width="320"/>
  <unicode hex="007D"/>
  <outline>
    <contour>
      <point x="280" y="328" type="line"/>
      <point x="229" y="336"/>
      <point x="208" y="354"/>
      <point x="208" y="391" type="curve" smooth="yes"/>
      <point x="208" y="593" type="line" smooth="yes"/>
      <point x="208" y="631"/>
      <point x="201" y="659"/>
      <point x="186" y="678" type="curve" smooth="yes"/>
      <point x="166" y="705"/>
      <point x="129" y="720"/>
      <point x="83" y="720" type="curve" smooth="yes"/>
      <point x="71" y="720"/>
      <point x="60" y="720"/>
      <point x="35" y="718" type="curve"/>
      <point x="35" y="640" type="line"/>
      <point x="91" y="632"/>
      <point x="110" y="617"/>
      <point x="110" y="581" type="curve" smooth="yes"/>
      <point x="110" y="402" type="line" smooth="yes"/>
      <point x="110" y="339"/>
      <point x="129" y="311"/>
      <point x="182" y="290" type="curve"/>
      <point x="129" y="269"/>
      <point x="110" y="241"/>
      <point x="110" y="178" type="curve" smooth="yes"/>
      <point x="110" y="-1" type="line" smooth="yes"/>
      <point x="110" y="-37"/>
      <point x="91" y="-52"/>
      <point x="35" y="-60" type="curve"/>
      <point x="35" y="-138" type="line"/>
      <point x="51" y="-139"/>
      <point x="61" y="-140"/>
      <point x="75" y="-140" type="curve" smooth="yes"/>
      <point x="167" y="-140"/>
      <point x="208" y="-101"/>
      <point x="208" y="-13" type="curve" smooth="yes"/>
      <point x="208" y="189" type="line" smooth="yes"/>
      <point x="208" y="226"/>
      <point x="229" y="244"/>
      <point x="280" y="252" type="curve"/>
    </contour>
  </outline>
</glyph>
<glyph name="asciitilde" format="1">
  <advance width="600"/>
  <unicode hex="007E"/>
  <outline>
    <contour>
      <point x="113" y="251" type="line"/>
      <point x="149" y="308"/>
      <point x="168" y="324"/>
      <point x="202" y="324" type="curve" smooth="yes"/>
      <point x="220" y="324"/>
      <point x="242" y="319"/>
      <point x="267" y="308" type="curve" smooth="yes"/>
      <point x="322" y="286" type="line" smooth="yes"/>
      <point x="372" y="265"/>
      <point x="389" y="260"/>
      <point x="413" y="260" type="curve" smooth="yes"/>
      <point x="466" y="260"/>
      <point x="521" y="303"/>
      <point x="555" y="372" type="curve"/>
      <point x="491" y="443" type="line"/>
      <point x="462" y="399"/>
      <point x="435" y="377"/>
      <point x="408" y="377" type="curve" smooth="yes"/>
      <point x="391" y="377"/>
      <point x="362" y="384"/>
      <point x="336" y="395" type="curve" smooth="yes"/>
      <point x="271" y="423" type="line" smooth="yes"/>
      <point x="239" y="436"/>
      <point x="219" y="441"/>
      <point x="197" y="441" type="curve" smooth="yes"/>
      <point x="139" y="441"/>
      <point x="99" y="409"/>
      <point x="51" y="321" type="curve"/>
    </contour>
  </outline>
</glyph>
<glyph name="exclamdown" format="1">
  <advance width="360"/>
  <unicode hex="00A1"/>
  <outline>
    <contour>
      <point x="184" y="512" type="curve" smooth="yes"/>
      <point x="133" y="512"/>
      <point x="91" y="470"/>
      <point x="91" y="419" type="curve" smooth="yes"/>
      <point x="91" y="368"/>
      <point x="133" y="327"/>
      <point x="183" y="327" type="curve" smooth="yes"/>
      <point x="234" y="327"/>
      <point x="276" y="368"/>
      <point x="276" y="417" type="curve" smooth="yes"/>
      <point x="276" y="470"/>
      <point x="235" y="512"/>
    </contour>
    <contour>
      <point x="143" y="282" type="line"/>
      <point x="136" y="186"/>
      <point x="130" y="145"/>
      <point x="108" y="47" type="curve" smooth="yes"/>
      <point x="88" y="-37"/>
      <point x="84" y="-58"/>
      <point x="84" y="-86" type="curve" smooth="yes"/>
      <point x="84" y="-153"/>
      <point x="123" y="-196"/>
      <point x="183" y="-196" type="curve" smooth="yes"/>
      <point x="240" y="-196"/>
      <point x="284" y="-152"/>
      <point x="284" y="-96" type="curve" smooth="yes"/>
      <point x="284" y="-62"/>
      <point x="280" y="-39"/>
      <point x="260" y="53" type="curve" smooth="yes"/>
      <point x="243" y="129"/>
      <point x="234" y="189"/>
      <point x="225" y="282" type="curve"/>
    </contour>
  </outline>
</glyph>
<glyph name="cent" format="1">
  <advance width="660"/>
  <unicode hex="00A2"/>
  <outline>
    <contour>
      <point x="369" y="674" type="line"/>
      <point x="310" y="674" type="line"/>
      <point x="310" y="544" type="line"/>
      <point x="198" y="525"/>
      <point x="133" y="453"/>
      <point x="133" y="350" type="curve" smooth="yes"/>
      <point x="133" y="246"/>
      <point x="200" y="171"/>
      <point x="310" y="154" type="curve"/>
      <point x="310" y="16" type="line"/>
      <point x="369" y="16" type="line"/>
      <point x="369" y="154" type="line"/>
      <point x="437" y="163"/>
      <point x="502" y="203"/>
      <point x="535" y="255" type="curve"/>
      <point x="492" y="290" type="line"/>
      <point x="449" y="253"/>
      <point x="411" y="236"/>
      <point x="369" y="236" type="curve" smooth="yes"/>
      <point x="307" y="236"/>
      <point x="266" y="282"/>
      <point x="266" y="352" type="curve" smooth="yes"/>
      <point x="266" y="425"/>
      <point x="299" y="473"/>
      <point x="350" y="473" type="curve" smooth="yes"/>
      <point x="370" y="473"/>
      <point x="382" y="464"/>
      <point x="387" y="447" type="curve" smooth="yes"/>
      <point x="397" y="411"/>
      <point x="398" y="409"/>
      <point x="411" y="397" type="curve" smooth="yes"/>
      <point x="423" y="386"/>
      <point x="441" y="379"/>
      <point x="457" y="379" type="curve" smooth="yes"/>
      <point x="491" y="379"/>
      <point x="518" y="406"/>
      <point x="518" y="439" type="curve" smooth="yes"/>
      <point x="518" y="498"/>
      <point x="454" y="543"/>
      <point x="369" y="544" type="curve"/>
    </contour>
  </outline>
</glyph>
<glyph name="sterling" format="1">
  <advance width="660"/>
  <unicode hex="00A3"/>
  <outline>
    <contour>
      <point x="503" y="408" type="line"/>
      <point x="304" y="408" type="line"/>
      <point x="289" y="446"/>
      <point x="283" y="470"/>
      <point x="283" y="496" type="curve" smooth="yes"/>
      <point x="283" y="569"/>
      <point x="329" y="616"/>
      <point x="401" y="616" type="curve" smooth="yes"/>
      <point x="449" y="616"/>
      <point x="487" y="595"/>
      <point x="487" y="569" type="curve" smooth="yes"/>
      <point x="487" y="563"/>
      <point x="484" y="553"/>
      <point x="477" y="536" type="curve" smooth="yes"/>
      <point x="472" y="524"/>
      <point x="470" y="518"/>
      <point x="470" y="511" type="curve" smooth="yes"/>
      <point x="470" y="476"/>
      <point x="503" y="447"/>
      <point x="542" y="447" type="curve" smooth="yes"/>
      <point x="587" y="447"/>
      <point x="620" y="486"/>
      <point x="620" y="539" type="curve" smooth="yes"/>
      <point x="620" y="628"/>
      <point x="529" y="694"/>
      <point x="405" y="694" type="curve" smooth="yes"/>
      <point x="334" y="694"/>
      <point x="264" y="672"/>
      <point x="213" y="634" type="curve" smooth="yes"/>
      <point x="164" y="598"/>
      <point x="138" y="545"/>
      <point x="138" y="484" type="curve" smooth="yes"/>
      <point x="138" y="459"/>
      <point x="141" y="438"/>
      <point x="149" y="408" type="curve"/>
      <point x="64" y="408" type="line"/>
      <point x="42" y="345" type="line"/>
      <point x="173" y="345" type="line"/>
      <point x="196" y="301"/>
      <point x="216" y="243"/>
      <point x="227" y="185" type="curve"/>
      <point x="196" y="196"/>
      <point x="172" y="200"/>
      <point x="142" y="200" type="curve" smooth="yes"/>
      <point x="62" y="200"/>
      <point x="10" y="159"/>
      <point x="10" y="96" type="curve" smooth="yes"/>
      <point x="10" y="32"/>
      <point x="68" y="-13"/>
      <point x="152" y="-13" type="curve" smooth="yes"/>
      <point x="222" y="-13"/>
      <point x="290" y="18"/>
      <point x="329" y="66" type="curve"/>
      <point x="333" y="64"/>
      <point x="338" y="62"/>
      <point x="342" y="59" type="curve"/>
      <point x="454" y="-6"/>
      <point x="470" y="-13"/>
      <point x="517" y="-13" type="curve" smooth="yes"/>
      <point x="597" y="-13"/>
      <point x="659" y="43"/>
      <point x="659" y="115" type="curve" smooth="yes"/>
      <point x="659" y="183"/>
      <point x="607" y="235"/>
      <point x="539" y="235" type="curve" smooth="yes"/>
      <point x="510" y="235"/>
      <point x="485" y="229"/>
      <point x="460" y="216" type="curve"/>
      <point x="482" y="160" type="line"/>
      <point x="489" y="160" type="line"/>
      <point x="507" y="163"/>
      <point x="507" y="163"/>
      <point x="514" y="163" type="curve" smooth="yes"/>
      <point x="542" y="163"/>
      <point x="562" y="150"/>
      <point x="562" y="132" type="curve" smooth="yes"/>
      <point x="562" y="114"/>
      <point x="542" y="100"/>
      <point x="516" y="100" type="curve" smooth="yes"/>
      <point x="479" y="100"/>
      <point x="445" y="111"/>
      <point x="371" y="149" type="curve"/>
      <point x="375" y="169"/>
      <point x="376" y="179"/>
      <point x="376" y="193" type="curve" smooth="yes"/>
      <point x="376" y="239"/>
      <point x="359" y="294"/>
      <point x="329" y="345" type="curve"/>
      <point x="482" y="345" type="line"/>
    </contour>
    <contour>
      <point x="217" y="108" type="curve"/>
      <point x="202" y="83"/>
      <point x="176" y="69"/>
      <point x="146" y="69" type="curve" smooth="yes"/>
      <point x="120" y="69"/>
      <point x="102" y="80"/>
      <point x="102" y="96" type="curve" smooth="yes"/>
      <point x="102" y="112"/>
      <point x="122" y="122"/>
      <point x="154" y="122" type="curve" smooth="yes"/>
      <point x="174" y="122"/>
      <point x="193" y="118"/>
    </contour>
  </outline>
</glyph>
<glyph name="currency" format="1">
  <advance width="660"/>
  <unicode hex="00A4"/>
  <outline>
    <contour>
      <point x="77" y="156" type="line"/>
      <point x="144" y="88" type="line"/>
      <point x="192" y="136" type="line"/>
      <point x="237" y="106"/>
      <point x="279" y="93"/>
      <point x="331" y="93" type="curve" smooth="yes"/>
      <point x="382" y="93"/>
      <point x="423" y="106"/>
      <point x="470" y="136" type="curve"/>
      <point x="518" y="88" type="line"/>
      <point x="584" y="156" type="line"/>
      <point x="536" y="204" type="line"/>
      <point x="566" y="247"/>
      <point x="578" y="287"/>
      <point x="578" y="340" type="curve" smooth="yes"/>
      <point x="578" y="393"/>
      <point x="566" y="433"/>
      <point x="535" y="478" type="curve"/>
      <point x="583" y="525" type="line"/>
      <point x="517" y="593" type="line"/>
      <point x="469" y="545" type="line"/>
      <point x="423" y="575"/>
      <point x="381" y="588"/>
      <point x="332" y="588" type="curve" smooth="yes"/>
      <point x="282" y="588"/>
      <point x="238" y="574"/>
      <point x="192" y="545" type="curve"/>
      <point x="144" y="593" type="line"/>
      <point x="77" y="525" type="line"/>
      <point x="125" y="477" type="line"/>
      <point x="95" y="432"/>
      <point x="83" y="394"/>
      <point x="83" y="339" type="curve" smooth="yes"/>
      <point x="83" y="288"/>
      <point x="94" y="254"/>
      <point x="125" y="204" type="curve"/>
    </contour>
    <contour>
      <point x="330" y="462" type="curve" smooth="yes"/>
      <point x="400" y="462"/>
      <point x="455" y="407"/>
      <point x="455" y="339" type="curve" smooth="yes"/>
      <point x="455" y="273"/>
      <point x="398" y="218"/>
      <point x="330" y="218" type="curve" smooth="yes"/>
      <point x="262" y="218"/>
      <point x="206" y="273"/>
      <point x="206" y="340" type="curve" smooth="yes"/>
      <point x="206" y="407"/>
      <point x="262" y="462"/>
    </contour>
  </outline>
</glyph>
<glyph name="yen" format="1">
  <advance width="660"/>
  <unicode hex="00A5"/>
  <outline>
    <contour>
      <point x="696" y="681" type="line"/>
      <point x="390" y="681" type="line"/>
      <point x="390" y="599" type="line"/>
      <point x="452" y="597"/>
      <point x="464" y="594"/>
      <point x="464" y="577" type="curve" smooth="yes"/>
      <point x="464" y="567"/>
      <point x="461" y="560"/>
      <point x="436" y="519" type="curve" smooth="yes"/>
      <point x="360" y="389" type="line"/>
      <point x="277" y="540" type="line" smooth="yes"/>
      <point x="266" y="561"/>
      <point x="261" y="573"/>
      <point x="261" y="576" type="curve" smooth="yes"/>
      <point x="261" y="592"/>
      <point x="280" y="598"/>
      <point x="339" y="599" type="curve"/>
      <point x="339" y="681" type="line"/>
      <point x="-28" y="681" type="line"/>
      <point x="-28" y="599" type="line"/>
      <point x="34" y="592"/>
      <point x="59" y="573"/>
      <point x="109" y="496" type="curve" smooth="yes"/>
      <point x="142" y="444" type="line"/>
      <point x="31" y="444" type="line"/>
      <point x="31" y="381" type="line"/>
      <point x="183" y="381" type="line"/>
      <point x="237" y="295" type="line"/>
      <point x="31" y="295" type="line"/>
      <point x="31" y="232" type="line"/>
      <point x="247" y="232" type="line"/>
      <point x="247" y="168" type="line" smooth="yes"/>
      <point x="247" y="130"/>
      <point x="244" y="115"/>
      <point x="235" y="105" type="curve" smooth="yes"/>
      <point x="226" y="94"/>
      <point x="202" y="86"/>
      <point x="179" y="84" type="curve" smooth="yes"/>
      <point x="151" y="82" type="line"/>
      <point x="151" y="0" type="line"/>
      <point x="505" y="0" type="line"/>
      <point x="505" y="82" type="line"/>
      <point x="477" y="84" type="line" smooth="yes"/>
      <point x="454" y="86"/>
      <point x="430" y="94"/>
      <point x="421" y="105" type="curve" smooth="yes"/>
      <point x="412" y="115"/>
      <point x="409" y="130"/>
      <point x="409" y="168" type="curve" smooth="yes"/>
      <point x="409" y="232" type="line"/>
      <point x="639" y="232" type="line"/>
      <point x="639" y="295" type="line"/>
      <point x="415" y="295" type="line"/>
      <point x="468" y="381" type="line"/>
      <point x="639" y="381" type="line"/>
      <point x="639" y="444" type="line"/>
      <point x="510" y="444" type="line"/>
      <point x="587" y="569"/>
      <point x="619" y="596"/>
      <point x="696" y="599" type="curve"/>
    </contour>
  </outline>
</glyph>
<glyph name="section" format="1">
  <advance width="600"/>
  <unicode hex="00A7"/>
  <outline>
    <contour>
      <point x="284" y="483" type="line" smooth="yes"/>
      <point x="246" y="495"/>
      <point x="245" y="496"/>
      <point x="234" y="501" type="curve"/>
      <point x="219" y="509"/>
      <point x="211" y="523"/>
      <point x="211" y="540" type="curve" smooth="yes"/>
      <point x="211" y="580"/>
      <point x="249" y="607"/>
      <point x="305" y="607" type="curve" smooth="yes"/>
      <point x="322" y="607"/>
      <point x="340" y="604"/>
      <point x="353" y="599" type="curve" smooth="yes"/>
      <point x="374" y="591"/>
      <point x="380" y="584"/>
      <point x="386" y="558" type="curve" smooth="yes"/>
      <point x="395" y="518"/>
      <point x="430" y="489"/>
      <point x="469" y="489" type="curve" smooth="yes"/>
      <point x="507" y="489"/>
      <point x="541" y="518"/>
      <point x="541" y="550" type="curve" smooth="yes"/>
      <point x="541" y="627"/>
      <point x="433" y="694"/>
      <point x="309" y="694" type="curve" smooth="yes"/>
      <point x="168" y="694"/>
      <point x="66" y="616"/>
      <point x="66" y="510" type="curve" smooth="yes"/>
      <point x="66" y="455"/>
      <point x="83" y="424"/>
      <point x="129" y="391" type="curve"/>
      <point x="105" y="375"/>
      <point x="96" y="366"/>
      <point x="86" y="352" type="curve" smooth="yes"/>
      <point x="69" y="329"/>
      <point x="58" y="293"/>
      <point x="58" y="260" type="curve" smooth="yes"/>
      <point x="58" y="217"/>
      <point x="83" y="175"/>
      <point x="122" y="151" type="curve" smooth="yes"/>
      <point x="153" y="132"/>
      <point x="191" y="118"/>
      <point x="246" y="106" type="curve" smooth="yes"/>
      <point x="332" y="86" type="line" smooth="yes"/>
      <point x="399" y="71"/>
      <point x="418" y="55"/>
      <point x="418" y="17" type="curve" smooth="yes"/>
      <point x="418" y="-8"/>
      <point x="406" y="-30"/>
      <point x="387" y="-41" type="curve"/>
      <point x="364" y="-56"/>
      <point x="324" y="-66"/>
      <point x="292" y="-66" type="curve" smooth="yes"/>
      <point x="263" y="-66"/>
      <point x="234" y="-59"/>
      <point x="216" y="-47" type="curve" smooth="yes"/>
      <point x="205" y="-40"/>
      <point x="199" y="-30"/>
      <point x="197" y="-14" type="curve" smooth="yes"/>
      <point x="192" y="16"/>
      <point x="189" y="23"/>
      <point x="175" y="37" type="curve" smooth="yes"/>
      <point x="159" y="52"/>
      <point x="136" y="61"/>
      <point x="112" y="61" type="curve" smooth="yes"/>
      <point x="68" y="61"/>
      <point x="36" y="33"/>
      <point x="36" y="-6" type="curve" smooth="yes"/>
      <point x="36" y="-92"/>
      <point x="141" y="-158"/>
      <point x="278" y="-158" type="curve" smooth="yes"/>
      <point x="365" y="-158"/>
      <point x="447" y="-131"/>
      <point x="498" y="-88" type="curve" smooth="yes"/>
      <point x="535" y="-55"/>
      <point x="560" y="0"/>
      <point x="560" y="52" type="curve" smooth="yes"/>
      <point x="560" y="101"/>
      <point x="544" y="135"/>
      <point x="505" y="171" type="curve"/>
      <point x="543" y="205"/>
      <point x="559" y="239"/>
      <point x="559" y="288" type="curve" smooth="yes"/>
      <point x="559" y="333"/>
      <point x="543" y="371"/>
      <point x="513" y="397" type="curve" smooth="yes"/>
      <point x="488" y="420"/>
      <point x="460" y="433"/>
      <point x="397" y="451" type="curve" smooth="yes"/>
    </contour>
    <contour>
      <point x="258" y="250" type="line" smooth="yes"/>
      <point x="211" y="263"/>
      <point x="198" y="274"/>
      <point x="198" y="300" type="curve" smooth="yes"/>
      <point x="198" y="320"/>
      <point x="206" y="334"/>
      <point x="228" y="350" type="curve"/>
      <point x="365" y="310" type="line" smooth="yes"/>
      <point x="410" y="297"/>
      <point x="426" y="281"/>
      <point x="426" y="251" type="curve" smooth="yes"/>
      <point x="426" y="235"/>
      <point x="422" y="225"/>
      <point x="412" y="209" type="curve"/>
    </contour>
  </outline>
</glyph>
<glyph name="dieresis" format="1">
  <advance width="500"/>
  <unicode hex="00A8"/>
  <outline>
    <contour>
      <point x="137" y="698" type="curve" smooth="yes"/>
      <point x="97" y="698"/>
      <point x="68" y="669"/>
      <point x="68" y="629" type="curve" smooth="yes"/>
      <point x="68" y="590"/>
      <point x="99" y="559"/>
      <point x="138" y="559" type="curve" smooth="yes"/>
      <point x="176" y="559"/>
      <point x="207" y="590"/>
      <point x="207" y="626" type="curve" smooth="yes"/>
      <point x="207" y="664"/>
      <point x="174" y="698"/>
    </contour>
    <contour>
      <point x="371" y="698" type="curve" smooth="yes"/>
      <point x="331" y="698"/>
      <point x="302" y="669"/>
      <point x="302" y="629" type="curve" smooth="yes"/>
      <point x="302" y="590"/>
      <point x="333" y="559"/>
      <point x="372" y="559" type="curve" smooth="yes"/>
      <point x="410" y="559"/>
      <point x="441" y="590"/>
      <point x="441" y="626" type="curve" smooth="yes"/>
      <point x="441" y="664"/>
      <point x="408" y="698"/>
    </contour>
  </outline>
</glyph>
<glyph name="copyright" format="1">
  <advance width="740"/>
  <unicode hex="00A9"/>
  <outline>
    <contour>
      <point x="515" y="288" type="line"/>
      <point x="479" y="226"/>
      <point x="441" y="198"/>
      <point x="392" y="198" type="curve" smooth="yes"/>
      <point x="328" y="198"/>
      <point x="286" y="255"/>
      <point x="286" y="343" type="curve" smooth="yes"/>
      <point x="286" y="434"/>
      <point x="324" y="492"/>
      <point x="383" y="492" type="curve" smooth="yes"/>
      <point x="410" y="492"/>
      <point x="437" y="479"/>
      <point x="462" y="453" type="curve" smooth="yes"/>
      <point x="475" y="439"/>
      <point x="482" y="429"/>
      <point x="508" y="385" type="curve"/>
      <point x="550" y="401" type="line"/>
      <point x="504" y="532" type="line"/>
      <point x="465" y="532" type="line"/>
      <point x="461" y="519" type="line"/>
      <point x="434" y="532"/>
      <point x="401" y="539"/>
      <point x="369" y="539" type="curve" smooth="yes"/>
      <point x="256" y="539"/>
      <point x="179" y="460"/>
      <point x="179" y="343" type="curve" smooth="yes"/>
      <point x="179" y="229"/>
      <point x="262" y="147"/>
      <point x="378" y="147" type="curve" smooth="yes"/>
      <point x="462" y="147"/>
      <point x="535" y="194"/>
      <point x="561" y="264" type="curve"/>
    </contour>
    <contour>
      <point x="372" y="700" type="curve" smooth="yes"/>
      <point x="181" y="700"/>
      <point x="23" y="541"/>
      <point x="23" y="350" type="curve" smooth="yes"/>
      <point x="23" y="158"/>
      <point x="181" y="0"/>
      <point x="373" y="0" type="curve" smooth="yes"/>
      <point x="563" y="0"/>
      <point x="723" y="158"/>
      <point x="723" y="346" type="curve" smooth="yes"/>
      <point x="723" y="543"/>
      <point x="567" y="700"/>
    </contour>
    <contour>
      <point x="372" y="653" type="curve" smooth="yes"/>
      <point x="540" y="653"/>
      <point x="672" y="518"/>
      <point x="672" y="346" type="curve" smooth="yes"/>
      <point x="672" y="183"/>
      <point x="536" y="47"/>
      <point x="373" y="47" type="curve" smooth="yes"/>
      <point x="208" y="47"/>
      <point x="74" y="183"/>
      <point x="74" y="350" type="curve" smooth="yes"/>
      <point x="74" y="517"/>
      <point x="208" y="653"/>
    </contour>
  </outline>
</glyph>
<glyph name="ordfeminine" format="1">
  <advance width="400"/>
  <unicode hex="00AA"/>
  <outline>
    <contour>
      <point x="389" y="343" type="line"/>
      <point x="27" y="343" type="line"/>
      <point x="27" y="286" type="line"/>
      <point x="389" y="286" type="line"/>
    </contour>
    <contour>
      <point x="356" y="455" type="line"/>
      <point x="344" y="446"/>
      <point x="342" y="445"/>
      <point x="339" y="445" type="curve" smooth="yes"/>
      <point x="332" y="445"/>
      <point x="330" y="452"/>
      <point x="330" y="472" type="curve" smooth="yes"/>
      <point x="330" y="595" type="line" smooth="yes"/>
      <point x="330" y="627"/>
      <point x="323" y="645"/>
      <point x="304" y="662" type="curve" smooth="yes"/>
      <point x="281" y="682"/>
      <point x="236" y="694"/>
      <point x="185" y="694" type="curve" smooth="yes"/>
      <point x="101" y="694"/>
      <point x="40" y="659"/>
      <point x="40" y="610" type="curve" smooth="yes"/>
      <point x="40" y="588"/>
      <point x="62" y="571"/>
      <point x="91" y="571" type="curve" smooth="yes"/>
      <point x="125" y="571"/>
      <point x="145" y="588"/>
      <point x="145" y="615" type="curve"/>
      <point x="144" y="627"/>
      <point x="158" y="634"/>
      <point x="182" y="634" type="curve" smooth="yes"/>
      <point x="206" y="634"/>
      <point x="217" y="625"/>
      <point x="217" y="606" type="curve" smooth="yes"/>
      <point x="217" y="568" type="line"/>
      <point x="170" y="561"/>
      <point x="148" y="556"/>
      <point x="126" y="550" type="curve" smooth="yes"/>
      <point x="59" y="530"/>
      <point x="27" y="501"/>
      <point x="27" y="459" type="curve" smooth="yes"/>
      <point x="27" y="411"/>
      <point x="71" y="377"/>
      <point x="133" y="377" type="curve" smooth="yes"/>
      <point x="158" y="377"/>
      <point x="186" y="383"/>
      <point x="204" y="391" type="curve" smooth="yes"/>
      <point x="213" y="395"/>
      <point x="221" y="399"/>
      <point x="230" y="404" type="curve"/>
      <point x="235" y="406" type="line"/>
      <point x="261" y="384"/>
      <point x="280" y="377"/>
      <point x="310" y="377" type="curve" smooth="yes"/>
      <point x="341" y="377"/>
      <point x="368" y="388"/>
      <point x="396" y="411" type="curve"/>
    </contour>
    <contour>
      <point x="217" y="465" type="line"/>
      <point x="203" y="453"/>
      <point x="184" y="445"/>
      <point x="167" y="445" type="curve" smooth="yes"/>
      <point x="152" y="445"/>
      <point x="140" y="457"/>
      <point x="140" y="472" type="curve" smooth="yes"/>
      <point x="140" y="493"/>
      <point x="165" y="507"/>
      <point x="217" y="515" type="curve"/>
    </contour>
  </outline>
</glyph>
<glyph name="guillemotleft" format="1">
  <advance width="400"/>
  <unicode hex="00AB"/>
  <outline>
    <contour>
      <point x="360" y="402" type="line"/>
      <point x="308" y="430" type="line"/>
      <point x="206" y="261" type="line"/>
      <point x="308" y="74" type="line"/>
      <point x="360" y="105" type="line"/>
      <point x="308" y="261" type="line"/>
    </contour>
    <contour>
      <point x="193" y="402" type="line"/>
      <point x="138" y="429" type="line"/>
      <point x="34" y="253" type="line"/>
      <point x="144" y="71" type="line"/>
      <point x="193" y="102" type="line"/>
      <point x="138" y="261" type="line"/>
    </contour>
  </outline>
</glyph>
<glyph name="registered" format="1">
  <advance width="740"/>
  <unicode hex="00AE"/>
  <outline>
    <contour>
      <point x="467" y="354" type="line"/>
      <point x="525" y="367"/>
      <point x="560" y="406"/>
      <point x="560" y="457" type="curve" smooth="yes"/>
      <point x="560" y="492"/>
      <point x="539" y="525"/>
      <point x="509" y="539" type="curve" smooth="yes"/>
      <point x="481" y="553"/>
      <point x="447" y="558"/>
      <point x="394" y="558" type="curve" smooth="yes"/>
      <point x="177" y="558" type="line"/>
      <point x="177" y="512" type="line"/>
      <point x="188" y="511" type="line" smooth="yes"/>
      <point x="219" y="508"/>
      <point x="226" y="500"/>
      <point x="226" y="465" type="curve" smooth="yes"/>
      <point x="226" y="272" type="line" smooth="yes"/>
      <point x="226" y="236"/>
      <point x="219" y="228"/>
      <point x="188" y="225" type="curve" smooth="yes"/>
      <point x="177" y="224" type="line"/>
      <point x="177" y="178" type="line"/>
      <point x="373" y="178" type="line"/>
      <point x="373" y="224" type="line"/>
      <point x="362" y="225" type="line" smooth="yes"/>
      <point x="331" y="228"/>
      <point x="324" y="237"/>
      <point x="324" y="272" type="curve" smooth="yes"/>
      <point x="324" y="342" type="line"/>
      <point x="353" y="342" type="line"/>
      <point x="473" y="178" type="line"/>
      <point x="603" y="178" type="line"/>
      <point x="603" y="224" type="line"/>
      <point x="571" y="227"/>
      <point x="559" y="233"/>
      <point x="537" y="263" type="curve" smooth="yes"/>
    </contour>
    <contour>
      <point x="324" y="395" type="line"/>
      <point x="324" y="481" type="line" smooth="yes"/>
      <point x="324" y="502"/>
      <point x="331" y="506"/>
      <point x="371" y="506" type="curve" smooth="yes"/>
      <point x="422" y="506"/>
      <point x="447" y="488"/>
      <point x="447" y="451" type="curve" smooth="yes"/>
      <point x="447" y="414"/>
      <point x="418" y="395"/>
      <point x="363" y="395" type="curve" smooth="yes"/>
    </contour>
    <contour>
      <point x="372" y="700" type="curve" smooth="yes"/>
      <point x="181" y="700"/>
      <point x="23" y="541"/>
      <point x="23" y="350" type="curve" smooth="yes"/>
      <point x="23" y="158"/>
      <point x="181" y="0"/>
      <point x="373" y="0" type="curve" smooth="yes"/>
      <point x="563" y="0"/>
      <point x="723" y="158"/>
      <point x="723" y="346" type="curve" smooth="yes"/>
      <point x="723" y="543"/>
      <point x="567" y="700"/>
    </contour>
    <contour>
      <point x="372" y="653" type="curve" smooth="yes"/>
      <point x="540" y="653"/>
      <point x="672" y="518"/>
      <point x="672" y="346" type="curve" smooth="yes"/>
      <point x="672" y="183"/>
      <point x="536" y="47"/>
      <point x="373" y="47" type="curve" smooth="yes"/>
      <point x="208" y="47"/>
      <point x="74" y="183"/>
      <point x="74" y="350" type="curve" smooth="yes"/>
      <point x="74" y="517"/>
      <point x="208" y="653"/>
    </contour>
  </outline>
</glyph>
<glyph name="macron" format="1">
  <advance width="460"/>
  <unicode hex="00AF"/>
  <outline>
    <contour>
      <point x="383" y="667" type="line"/>
      <point x="68" y="667" type="line"/>
      <point x="68" y="582" type="line"/>
      <point x="383" y="582" type="line"/>
    </contour>
  </outline>
</glyph>
<glyph name="plusminus" format="1">
  <advance width="600"/>
  <unicode hex="00B1"/>
  <outline>
    <contour>
      <point x="555" y="326" type="line"/>
      <point x="555" y="443" type="line"/>
      <point x="361" y="443" type="line"/>
      <point x="361" y="629" type="line"/>
      <point x="245" y="629" type="line"/>
      <point x="245" y="443" type="line"/>
      <point x="51" y="443" type="line"/>
      <point x="51" y="326" type="line"/>
      <point x="245" y="326" type="line"/>
      <point x="245" y="162" type="line"/>
      <point x="361" y="162" type="line"/>
      <point x="361" y="326" type="line"/>
    </contour>
    <contour>
      <point x="555" y="0" type="line"/>
      <point x="555" y="117" type="line"/>
      <point x="51" y="117" type="line"/>
      <point x="51" y="0" type="line"/>
    </contour>
  </outline>
</glyph>
<glyph name="acute" format="1">
  <advance width="400"/>
  <unicode hex="00B4"/>
  <outline>
    <contour>
      <point x="88" y="554" type="line"/>
      <point x="247" y="588" type="line" smooth="yes"/>
      <point x="299" y="599"/>
      <point x="327" y="627"/>
      <point x="327" y="665" type="curve" smooth="yes"/>
      <point x="327" y="705"/>
      <point x="295" y="738"/>
      <point x="257" y="738" type="curve" smooth="yes"/>
      <point x="232" y="738"/>
      <point x="204" y="724"/>
      <point x="173" y="697" type="curve" smooth="yes"/>
      <point x="68" y="603" type="line"/>
    </contour>
  </outline>
</glyph>
<glyph name="paragraph" format="1">
  <advance width="800"/>
  <unicode hex="00B6"/>
  <outline>
    <contour>
      <point x="757" y="-98" type="line"/>
      <point x="757" y="-13" type="line"/>
      <point x="739" y="-11" type="line" smooth="yes"/>
      <point x="680" y="-5"/>
      <point x="673" y="8"/>
      <point x="673" y="104" type="curve" smooth="yes"/>
      <point x="673" y="475" type="line" smooth="yes"/>
      <point x="674" y="521"/>
      <point x="675" y="547"/>
      <point x="676" y="555" type="curve"/>
      <point x="683" y="581"/>
      <point x="698" y="589"/>
      <point x="741" y="594" type="curve" smooth="yes"/>
      <point x="757" y="596" type="line"/>
      <point x="757" y="681" type="line"/>
      <point x="279" y="681" type="line" smooth="yes"/>
      <point x="220" y="681"/>
      <point x="176" y="676"/>
      <point x="142" y="664" type="curve" smooth="yes"/>
      <point x="63" y="638"/>
      <point x="14" y="568"/>
      <point x="14" y="481" type="curve" smooth="yes"/>
      <point x="14" y="401"/>
      <point x="54" y="335"/>
      <point x="120" y="306" type="curve" smooth="yes"/>
      <point x="163" y="287"/>
      <point x="213" y="278"/>
      <point x="293" y="274" type="curve"/>
      <point x="293" y="104" type="line" smooth="yes"/>
      <point x="293" y="46"/>
      <point x="293" y="40"/>
      <point x="289" y="27" type="curve"/>
      <point x="283" y="3"/>
      <point x="268" y="-6"/>
      <point x="225" y="-11" type="curve" smooth="yes"/>
      <point x="209" y="-13" type="line"/>
      <point x="209" y="-98" type="line"/>
    </contour>
    <contour>
      <point x="526" y="596" type="line"/>
      <point x="526" y="-13" type="line"/>
      <point x="441" y="-13" type="line"/>
      <point x="441" y="596" type="line"/>
    </contour>
  </outline>
</glyph>
<glyph name="cedilla" format="1">
  <advance width="360"/>
  <unicode hex="00B8"/>
  <outline>
    <contour>
      <point x="168" y="0" type="line"/>
      <point x="116" y="0" type="line"/>
      <point x="107" y="-77" type="line"/>
      <point x="126" y="-75"/>
      <point x="133" y="-75"/>
      <point x="140" y="-75" type="curve" smooth="yes"/>
      <point x="179" y="-75"/>
      <point x="201" y="-90"/>
      <point x="201" y="-116" type="curve" smooth="yes"/>
      <point x="201" y="-135"/>
      <point x="188" y="-148"/>
      <point x="170" y="-148" type="curve" smooth="yes"/>
      <point x="157" y="-148"/>
      <point x="149" y="-144"/>
      <point x="133" y="-131" type="curve"/>
      <point x="120" y="-122"/>
      <point x="114" y="-119"/>
      <point x="102" y="-119" type="curve" smooth="yes"/>
      <point x="82" y="-119"/>
      <point x="68" y="-132"/>
      <point x="68" y="-153" type="curve" smooth="yes"/>
      <point x="68" y="-187"/>
      <point x="110" y="-213"/>
      <point x="167" y="-213" type="curve" smooth="yes"/>
      <point x="235" y="-213"/>
      <point x="284" y="-173"/>
      <point x="284" y="-117" type="curve" smooth="yes"/>
      <point x="284" y="-74"/>
      <point x="250" y="-42"/>
      <point x="204" y="-42" type="curve" smooth="yes"/>
      <point x="195" y="-42"/>
      <point x="190" y="-42"/>
      <point x="168" y="-44" type="curve"/>
    </contour>
  </outline>
</glyph>
<glyph name="ordmasculine" format="1">
  <advance width="400"/>
  <unicode hex="00BA"/>
  <outline>
    <contour>
      <point x="202" y="694" type="curve" smooth="yes"/>
      <point x="85" y="694"/>
      <point x="17" y="636"/>
      <point x="17" y="537" type="curve" smooth="yes"/>
      <point x="17" y="437"/>
      <point x="86" y="377"/>
      <point x="201" y="377" type="curve" smooth="yes"/>
      <point x="313" y="377"/>
      <point x="383" y="437"/>
      <point x="383" y="533" type="curve" smooth="yes"/>
      <point x="383" y="632"/>
      <point x="313" y="694"/>
    </contour>
    <contour>
      <point x="201" y="632" type="curve" smooth="yes"/>
      <point x="242" y="632"/>
      <point x="260" y="601"/>
      <point x="260" y="533" type="curve" smooth="yes"/>
      <point x="260" y="469"/>
      <point x="241" y="439"/>
      <point x="200" y="439" type="curve" smooth="yes"/>
      <point x="160" y="439"/>
      <point x="140" y="469"/>
      <point x="140" y="531" type="curve" smooth="yes"/>
      <point x="140" y="603"/>
      <point x="158" y="632"/>
    </contour>
    <contour>
      <point x="381" y="343" type="line"/>
      <point x="19" y="343" type="line"/>
      <point x="19" y="286" type="line"/>
      <point x="381" y="286" type="line"/>
    </contour>
  </outline>
</glyph>
<glyph name="guillemotright" format="1">
  <advance width="400"/>
  <unicode hex="00BB"/>
  <outline>
    <contour>
      <point x="34" y="402" type="line"/>
      <point x="86" y="261" type="line"/>
      <point x="34" y="105" type="line"/>
      <point x="86" y="74" type="line"/>
      <point x="188" y="261" type="line"/>
      <point x="86" y="430" type="line"/>
    </contour>
    <contour>
      <point x="201" y="402" type="line"/>
      <point x="256" y="261" type="line"/>
      <point x="201" y="102" type="line"/>
      <point x="250" y="71" type="line"/>
      <point x="360" y="253" type="line"/>
      <point x="256" y="429" type="line"/>
    </contour>
  </outline>
</glyph>
<glyph name="onequarter" format="1">
  <advance width="990"/>
  <unicode hex="00BC"/>
  <outline>
    <contour>
      <point x="262" y="681" type="line"/>
      <point x="228" y="681" type="line"/>
      <point x="217" y="679" type="line"/>
      <point x="160" y="665"/>
      <point x="121" y="660"/>
      <point x="82" y="660" type="curve" smooth="yes"/>
      <point x="79" y="660"/>
      <point x="75" y="660"/>
      <point x="68" y="661" type="curve"/>
      <point x="68" y="608" type="line"/>
      <point x="80" y="608" type="line" smooth="yes"/>
      <point x="100" y="608"/>
      <point x="127" y="604"/>
      <point x="138" y="599" type="curve" smooth="yes"/>
      <point x="146" y="595"/>
      <point x="147" y="593"/>
      <point x="147" y="568" type="curve" smooth="yes"/>
      <point x="147" y="370" type="line" smooth="yes"/>
      <point x="147" y="352"/>
      <point x="145" y="344"/>
      <point x="140" y="340" type="curve" smooth="yes"/>
      <point x="134" y="335"/>
      <point x="104" y="328"/>
      <point x="87" y="328" type="curve" smooth="yes"/>
      <point x="65" y="328" type="line"/>
      <point x="65" y="273" type="line"/>
      <point x="345" y="273" type="line"/>
      <point x="345" y="328" type="line"/>
      <point x="325" y="328" type="line" smooth="yes"/>
      <point x="312" y="328"/>
      <point x="279" y="334"/>
      <point x="273" y="338" type="curve"/>
      <point x="264" y="343"/>
      <point x="262" y="348"/>
      <point x="262" y="370" type="curve" smooth="yes"/>
    </contour>
    <contour>
      <point x="768" y="681" type="line"/>
      <point x="687" y="681" type="line"/>
      <point x="262" y="0" type="line"/>
      <point x="340" y="0" type="line"/>
    </contour>
    <contour>
      <point x="871" y="408" type="line"/>
      <point x="772" y="408" type="line"/>
      <point x="728" y="342"/>
      <point x="648" y="239"/>
      <point x="567" y="146" type="curve"/>
      <point x="591" y="100" type="line"/>
      <point x="768" y="100" type="line"/>
      <point x="768" y="82" type="line" smooth="yes"/>
      <point x="768" y="66"/>
      <point x="756" y="57"/>
      <point x="732" y="56" type="curve" smooth="yes"/>
      <point x="714" y="55" type="line"/>
      <point x="714" y="0" type="line"/>
      <point x="929" y="0" type="line"/>
      <point x="929" y="55" type="line"/>
      <point x="909" y="56" type="line" smooth="yes"/>
      <point x="883" y="57"/>
      <point x="871" y="66"/>
      <point x="871" y="82" type="curve" smooth="yes"/>
      <point x="871" y="100" type="line"/>
      <point x="937" y="100" type="line"/>
      <point x="967" y="164" type="line"/>
      <point x="871" y="164" type="line"/>
    </contour>
    <contour>
      <point x="768" y="164" type="line"/>
      <point x="664" y="164" type="line"/>
      <point x="746" y="268"/>
      <point x="750" y="273"/>
      <point x="768" y="301" type="curve"/>
    </contour>
  </outline>
</glyph>
<glyph name="onehalf" format="1">
  <advance width="990"/>
  <unicode hex="00BD"/>
  <outline>
    <contour>
      <point x="262" y="681" type="line"/>
      <point x="228" y="681" type="line"/>
      <point x="217" y="679" type="line" smooth="yes"/>
      <point x="161" y="666"/>
      <point x="120" y="660"/>
      <point x="82" y="660" type="curve" smooth="yes"/>
      <point x="79" y="660"/>
      <point x="76" y="660"/>
      <point x="68" y="661" type="curve"/>
      <point x="68" y="608" type="line"/>
      <point x="80" y="608" type="line" smooth="yes"/>
      <point x="100" y="608"/>
      <point x="127" y="604"/>
      <point x="138" y="599" type="curve" smooth="yes"/>
      <point x="146" y="595"/>
      <point x="147" y="593"/>
      <point x="147" y="568" type="curve" smooth="yes"/>
      <point x="147" y="370" type="line" smooth="yes"/>
      <point x="147" y="352"/>
      <point x="145" y="344"/>
      <point x="140" y="340" type="curve" smooth="yes"/>
      <point x="134" y="335"/>
      <point x="104" y="328"/>
      <point x="87" y="328" type="curve" smooth="yes"/>
      <point x="65" y="328" type="line"/>
      <point x="65" y="273" type="line"/>
      <point x="345" y="273" type="line"/>
      <point x="345" y="328" type="line"/>
      <point x="325" y="328" type="line" smooth="yes"/>
      <point x="312" y="328"/>
      <point x="279" y="334"/>
      <point x="273" y="338" type="curve"/>
      <point x="264" y="343"/>
      <point x="262" y="348"/>
      <point x="262" y="370" type="curve" smooth="yes"/>
    </contour>
    <contour>
      <point x="742" y="681" type="line"/>
      <point x="661" y="681" type="line"/>
      <point x="236" y="0" type="line"/>
      <point x="314" y="0" type="line"/>
    </contour>
    <contour>
      <point x="980" y="134" type="line"/>
      <point x="923" y="148" type="line"/>
      <point x="895" y="92"/>
      <point x="891" y="89"/>
      <point x="814" y="89" type="curve" smooth="yes"/>
      <point x="740" y="89" type="line"/>
      <point x="886" y="165"/>
      <point x="947" y="224"/>
      <point x="947" y="291" type="curve" smooth="yes"/>
      <point x="947" y="366"/>
      <point x="877" y="416"/>
      <point x="771" y="416" type="curve" smooth="yes"/>
      <point x="671" y="416"/>
      <point x="598" y="365"/>
      <point x="598" y="295" type="curve" smooth="yes"/>
      <point x="598" y="261"/>
      <point x="623" y="236"/>
      <point x="656" y="236" type="curve" smooth="yes"/>
      <point x="686" y="236"/>
      <point x="711" y="258"/>
      <point x="711" y="285" type="curve" smooth="yes"/>
      <point x="711" y="295"/>
      <point x="708" y="303"/>
      <point x="700" y="315" type="curve"/>
      <point x="697" y="321"/>
      <point x="695" y="325"/>
      <point x="695" y="328" type="curve" smooth="yes"/>
      <point x="695" y="343"/>
      <point x="725" y="358"/>
      <point x="755" y="358" type="curve" smooth="yes"/>
      <point x="795" y="358"/>
      <point x="820" y="336"/>
      <point x="820" y="302" type="curve" smooth="yes"/>
      <point x="820" y="262"/>
      <point x="793" y="215"/>
      <point x="745" y="172" type="curve" smooth="yes"/>
      <point x="708" y="140"/>
      <point x="691" y="128"/>
      <point x="598" y="71" type="curve"/>
      <point x="609" y="0" type="line"/>
      <point x="940" y="0" type="line"/>
    </contour>
  </outline>
</glyph>
<glyph name="threequarters" format="1">
  <advance width="990"/>
  <unicode hex="00BE"/>
  <outline>
    <contour>
      <point x="145" y="463" type="line"/>
      <point x="158" y="464"/>
      <point x="165" y="464"/>
      <point x="171" y="464" type="curve" smooth="yes"/>
      <point x="242" y="464"/>
      <point x="274" y="443"/>
      <point x="274" y="395" type="curve" smooth="yes"/>
      <point x="274" y="352"/>
      <point x="243" y="327"/>
      <point x="189" y="327" type="curve" smooth="yes"/>
      <point x="154" y="327"/>
      <point x="122" y="339"/>
      <point x="122" y="352" type="curve" smooth="yes"/>
      <point x="122" y="353"/>
      <point x="122" y="354"/>
      <point x="123" y="355" type="curve"/>
      <point x="128" y="368"/>
      <point x="128" y="369"/>
      <point x="128" y="376" type="curve" smooth="yes"/>
      <point x="128" y="403"/>
      <point x="103" y="424"/>
      <point x="71" y="424" type="curve" smooth="yes"/>
      <point x="40" y="424"/>
      <point x="15" y="399"/>
      <point x="15" y="366" type="curve" smooth="yes"/>
      <point x="15" y="308"/>
      <point x="90" y="265"/>
      <point x="192" y="265" type="curve" smooth="yes"/>
      <point x="315" y="265"/>
      <point x="401" y="321"/>
      <point x="401" y="399" type="curve" smooth="yes"/>
      <point x="401" y="445"/>
      <point x="369" y="480"/>
      <point x="313" y="496" type="curve"/>
      <point x="350" y="511"/>
      <point x="375" y="544"/>
      <point x="375" y="577" type="curve" smooth="yes"/>
      <point x="375" y="642"/>
      <point x="304" y="689"/>
      <point x="205" y="689" type="curve" smooth="yes"/>
      <point x="106" y="689"/>
      <point x="33" y="642"/>
      <point x="33" y="580" type="curve" smooth="yes"/>
      <point x="33" y="547"/>
      <point x="56" y="524"/>
      <point x="89" y="524" type="curve" smooth="yes"/>
      <point x="121" y="524"/>
      <point x="147" y="544"/>
      <point x="147" y="570" type="curve" smooth="yes"/>
      <point x="147" y="578"/>
      <point x="144" y="587"/>
      <point x="140" y="593" type="curve" smooth="yes"/>
      <point x="137" y="598"/>
      <point x="136" y="601"/>
      <point x="136" y="603" type="curve" smooth="yes"/>
      <point x="136" y="613"/>
      <point x="166" y="627"/>
      <point x="190" y="627" type="curve" smooth="yes"/>
      <point x="225" y="627"/>
      <point x="248" y="609"/>
      <point x="248" y="581" type="curve" smooth="yes"/>
      <point x="248" y="561"/>
      <point x="237" y="542"/>
      <point x="221" y="533" type="curve" smooth="yes"/>
      <point x="211" y="527"/>
      <point x="186" y="523"/>
      <point x="164" y="523" type="curve" smooth="yes"/>
      <point x="145" y="523" type="line"/>
    </contour>
    <contour>
      <point x="778" y="681" type="line"/>
      <point x="697" y="681" type="line"/>
      <point x="272" y="0" type="line"/>
      <point x="350" y="0" type="line"/>
    </contour>
    <contour>
      <point x="871" y="408" type="line"/>
      <point x="772" y="408" type="line"/>
      <point x="728" y="342"/>
      <point x="648" y="239"/>
      <point x="567" y="146" type="curve"/>
      <point x="591" y="100" type="line"/>
      <point x="768" y="100" type="line"/>
      <point x="768" y="82" type="line" smooth="yes"/>
      <point x="768" y="66"/>
      <point x="756" y="57"/>
      <point x="732" y="56" type="curve" smooth="yes"/>
      <point x="714" y="55" type="line"/>
      <point x="714" y="0" type="line"/>
      <point x="929" y="0" type="line"/>
      <point x="929" y="55" type="line"/>
      <point x="909" y="56" type="line" smooth="yes"/>
      <point x="883" y="57"/>
      <point x="871" y="66"/>
      <point x="871" y="82" type="curve" smooth="yes"/>
      <point x="871" y="100" type="line"/>
      <point x="937" y="100" type="line"/>
      <point x="967" y="164" type="line"/>
      <point x="871" y="164" type="line"/>
    </contour>
    <contour>
      <point x="768" y="164" type="line"/>
      <point x="664" y="164" type="line"/>
      <point x="746" y="268"/>
      <point x="750" y="273"/>
      <point x="768" y="301" type="curve"/>
    </contour>
  </outline>
</glyph>
<glyph name="questiondown" format="1">
  <advance width="660"/>
  <unicode hex="00BF"/>
  <outline>
    <contour>
      <point x="278" y="281" type="line"/>
      <point x="278" y="273" type="line" smooth="yes"/>
      <point x="278" y="222"/>
      <point x="266" y="208"/>
      <point x="196" y="177" type="curve" smooth="yes"/>
      <point x="108" y="139"/>
      <point x="62" y="76"/>
      <point x="62" y="-7" type="curve" smooth="yes"/>
      <point x="62" y="-125"/>
      <point x="164" y="-196"/>
      <point x="336" y="-196" type="curve" smooth="yes"/>
      <point x="491" y="-196"/>
      <point x="609" y="-116"/>
      <point x="609" y="-11" type="curve" smooth="yes"/>
      <point x="609" y="47"/>
      <point x="576" y="82"/>
      <point x="522" y="82" type="curve" smooth="yes"/>
      <point x="474" y="82"/>
      <point x="439" y="50"/>
      <point x="439" y="6" type="curve" smooth="yes"/>
      <point x="439" y="-4"/>
      <point x="443" y="-22"/>
      <point x="446" y="-30" type="curve" smooth="yes"/>
      <point x="454" y="-49"/>
      <point x="454" y="-49"/>
      <point x="454" y="-56" type="curve" smooth="yes"/>
      <point x="454" y="-84"/>
      <point x="406" y="-109"/>
      <point x="352" y="-109" type="curve" smooth="yes"/>
      <point x="286" y="-109"/>
      <point x="244" y="-68"/>
      <point x="244" y="-4" type="curve" smooth="yes"/>
      <point x="244" y="36"/>
      <point x="260" y="66"/>
      <point x="293" y="93" type="curve" smooth="yes"/>
      <point x="367" y="151"/>
      <point x="380" y="175"/>
      <point x="380" y="248" type="curve" smooth="yes"/>
      <point x="380" y="263"/>
      <point x="380" y="269"/>
      <point x="378" y="281" type="curve"/>
    </contour>
    <contour>
      <point x="323" y="513" type="curve" smooth="yes"/>
      <point x="272" y="513"/>
      <point x="230" y="471"/>
      <point x="230" y="420" type="curve" smooth="yes"/>
      <point x="230" y="369"/>
      <point x="271" y="328"/>
      <point x="323" y="328" type="curve" smooth="yes"/>
      <point x="373" y="328"/>
      <point x="415" y="369"/>
      <point x="415" y="418" type="curve" smooth="yes"/>
      <point x="415" y="471"/>
      <point x="374" y="513"/>
    </contour>
  </outline>
</glyph>
<glyph name="Agrave" format="1">
  <advance width="720"/>
  <unicode hex="00C0"/>
  <outline>
    <contour>
      <point x="452" y="681" type="line"/>
      <point x="297" y="681" type="line"/>
      <point x="99" y="206" type="line" smooth="yes"/>
      <point x="61" y="118"/>
      <point x="38" y="93"/>
      <point x="-18" y="84" type="curve" smooth="yes"/>
      <point x="-34" y="82" type="line"/>
      <point x="-34" y="0" type="line"/>
      <point x="275" y="0" type="line"/>
      <point x="275" y="82" type="line"/>
      <point x="259" y="84" type="line" smooth="yes"/>
      <point x="205" y="91"/>
      <point x="185" y="101"/>
      <point x="185" y="120" type="curve" smooth="yes"/>
      <point x="185" y="126"/>
      <point x="189" y="145"/>
      <point x="194" y="156" type="curve"/>
      <point x="226" y="242" type="line"/>
      <point x="441" y="242" type="line"/>
      <point x="471" y="157" type="line" smooth="yes"/>
      <point x="478" y="139"/>
      <point x="482" y="122"/>
      <point x="482" y="114" type="curve" smooth="yes"/>
      <point x="482" y="96"/>
      <point x="464" y="87"/>
      <point x="423" y="84" type="curve" smooth="yes"/>
      <point x="398" y="82" type="line"/>
      <point x="398" y="0" type="line"/>
      <point x="763" y="0" type="line"/>
      <point x="763" y="82" type="line"/>
      <point x="747" y="84" type="line"/>
      <point x="691" y="94"/>
      <point x="682" y="104"/>
      <point x="648" y="193" type="curve" smooth="yes"/>
    </contour>
    <contour>
      <point x="258" y="327" type="line"/>
      <point x="334" y="522" type="line"/>
      <point x="408" y="327" type="line"/>
    </contour>
    <contour>
      <point x="429" y="726" type="line"/>
      <point x="449" y="776" type="line"/>
      <point x="344" y="870" type="line" smooth="yes"/>
      <point x="315" y="895"/>
      <point x="284" y="910"/>
      <point x="260" y="910" type="curve" smooth="yes"/>
      <point x="223" y="910"/>
      <point x="190" y="876"/>
      <point x="190" y="837" type="curve" smooth="yes"/>
      <point x="190" y="799"/>
      <point x="218" y="772"/>
      <point x="270" y="761" type="curve" smooth="yes"/>
    </contour>
  </outline>
</glyph>
<glyph name="Atilde" format="1">
  <advance width="720"/>
  <unicode hex="00C3"/>
  <outline>
    <contour>
      <point x="452" y="681" type="line"/>
      <point x="297" y="681" type="line"/>
      <point x="99" y="206" type="line" smooth="yes"/>
      <point x="61" y="118"/>
      <point x="38" y="93"/>
      <point x="-18" y="84" type="curve" smooth="yes"/>
      <point x="-34" y="82" type="line"/>
      <point x="-34" y="0" type="line"/>
      <point x="275" y="0" type="line"/>
      <point x="275" y="82" type="line"/>
      <point x="259" y="84" type="line" smooth="yes"/>
      <point x="205" y="91"/>
      <point x="185" y="101"/>
      <point x="185" y="120" type="curve" smooth="yes"/>
      <point x="185" y="126"/>
      <point x="189" y="145"/>
      <point x="194" y="156" type="curve"/>
      <point x="226" y="242" type="line"/>
      <point x="441" y="242" type="line"/>
      <point x="471" y="157" type="line" smooth="yes"/>
      <point x="478" y="139"/>
      <point x="482" y="122"/>
      <point x="482" y="114" type="curve" smooth="yes"/>
      <point x="482" y="96"/>
      <point x="464" y="87"/>
      <point x="423" y="84" type="curve" smooth="yes"/>
      <point x="398" y="82" type="line"/>
      <point x="398" y="0" type="line"/>
      <point x="763" y="0" type="line"/>
      <point x="763" y="82" type="line"/>
      <point x="747" y="84" type="line"/>
      <point x="691" y="94"/>
      <point x="682" y="104"/>
      <point x="648" y="193" type="curve" smooth="yes"/>
    </contour>
    <contour>
      <point x="258" y="327" type="line"/>
      <point x="334" y="522" type="line"/>
      <point x="408" y="327" type="line"/>
    </contour>
    <contour>
      <point x="504" y="878" type="line"/>
      <point x="493" y="859"/>
      <point x="484" y="854"/>
      <point x="463" y="854" type="curve" smooth="yes"/>
      <point x="446" y="854"/>
      <point x="440" y="855"/>
      <point x="397" y="870" type="curve" smooth="yes"/>
      <point x="370" y="880"/>
      <point x="348" y="884"/>
      <point x="328" y="884" type="curve" smooth="yes"/>
      <point x="272" y="884"/>
      <point x="223" y="846"/>
      <point x="202" y="785" type="curve"/>
      <point x="254" y="755" type="line"/>
      <point x="267" y="773"/>
      <point x="276" y="779"/>
      <point x="292" y="779" type="curve" smooth="yes"/>
      <point x="302" y="779"/>
      <point x="317" y="776"/>
      <point x="330" y="772" type="curve" smooth="yes"/>
      <point x="394" y="750"/>
      <point x="402" y="748"/>
      <point x="431" y="748" type="curve" smooth="yes"/>
      <point x="496" y="748"/>
      <point x="532" y="779"/>
      <point x="554" y="853" type="curve"/>
    </contour>
  </outline>
</glyph>
<glyph name="Aring" format="1">
  <advance width="720"/>
  <unicode hex="00C5"/>
  <outline>
    <contour>
      <point x="452" y="681" type="line"/>
      <point x="297" y="681" type="line"/>
      <point x="99" y="206" type="line" smooth="yes"/>
      <point x="61" y="118"/>
      <point x="38" y="93"/>
      <point x="-18" y="84" type="curve" smooth="yes"/>
      <point x="-34" y="82" type="line"/>
      <point x="-34" y="0" type="line"/>
      <point x="275" y="0" type="line"/>
      <point x="275" y="82" type="line"/>
      <point x="259" y="84" type="line" smooth="yes"/>
      <point x="205" y="91"/>
      <point x="185" y="101"/>
      <point x="185" y="120" type="curve" smooth="yes"/>
      <point x="185" y="126"/>
      <point x="189" y="145"/>
      <point x="194" y="156" type="curve"/>
      <point x="226" y="242" type="line"/>
      <point x="441" y="242" type="line"/>
      <point x="471" y="157" type="line" smooth="yes"/>
      <point x="478" y="139"/>
      <point x="482" y="122"/>
      <point x="482" y="114" type="curve" smooth="yes"/>
      <point x="482" y="96"/>
      <point x="464" y="87"/>
      <point x="423" y="84" type="curve" smooth="yes"/>
      <point x="398" y="82" type="line"/>
      <point x="398" y="0" type="line"/>
      <point x="763" y="0" type="line"/>
      <point x="763" y="82" type="line"/>
      <point x="747" y="84" type="line"/>
      <point x="691" y="94"/>
      <point x="682" y="104"/>
      <point x="648" y="193" type="curve" smooth="yes"/>
    </contour>
    <contour>
      <point x="258" y="327" type="line"/>
      <point x="334" y="522" type="line"/>
      <point x="408" y="327" type="line"/>
    </contour>
    <contour>
      <point x="371" y="924" type="curve" smooth="yes"/>
      <point x="315" y="924"/>
      <point x="268" y="878"/>
      <point x="268" y="822" type="curve" smooth="yes"/>
      <point x="268" y="766"/>
      <point x="315" y="720"/>
      <point x="372" y="720" type="curve" smooth="yes"/>
      <point x="428" y="720"/>
      <point x="475" y="766"/>
      <point x="475" y="820" type="curve" smooth="yes"/>
      <point x="475" y="878"/>
      <point x="429" y="924"/>
    </contour>
    <contour>
      <point x="371" y="859" type="curve" smooth="yes"/>
      <point x="391" y="859"/>
      <point x="407" y="842"/>
      <point x="407" y="822" type="curve" smooth="yes"/>
      <point x="407" y="802"/>
      <point x="391" y="785"/>
      <point x="371" y="785" type="curve" smooth="yes"/>
      <point x="352" y="785"/>
      <point x="336" y="802"/>
      <point x="336" y="823" type="curve" smooth="yes"/>
      <point x="336" y="843"/>
      <point x="352" y="859"/>
    </contour>
  </outline>
</glyph>
<glyph name="AE" format="1">
  <advance width="1140"/>
  <unicode hex="00C6"/>
  <outline>
    <contour>
      <point x="1149" y="248" type="line"/>
      <point x="1079" y="274" type="line"/>
      <point x="981" y="141"/>
      <point x="904" y="94"/>
      <point x="783" y="94" type="curve" smooth="yes"/>
      <point x="713" y="94"/>
      <point x="697" y="106"/>
      <point x="697" y="161" type="curve" smooth="yes"/>
      <point x="697" y="313" type="line"/>
      <point x="713" y="314"/>
      <point x="721" y="314"/>
      <point x="729" y="314" type="curve" smooth="yes"/>
      <point x="801" y="314"/>
      <point x="825" y="284"/>
      <point x="828" y="193" type="curve"/>
      <point x="907" y="193" type="line"/>
      <point x="907" y="533" type="line"/>
      <point x="828" y="533" type="line"/>
      <point x="825" y="440"/>
      <point x="802" y="411"/>
      <point x="728" y="413" type="curve" smooth="yes"/>
      <point x="709" y="413" type="line"/>
      <point x="697" y="413" type="line"/>
      <point x="697" y="520" type="line" smooth="yes"/>
      <point x="697" y="583"/>
      <point x="710" y="597"/>
      <point x="769" y="597" type="curve" smooth="yes"/>
      <point x="901" y="597"/>
      <point x="968" y="562"/>
      <point x="1049" y="452" type="curve"/>
      <point x="1119" y="488" type="line"/>
      <point x="1020" y="681" type="line"/>
      <point x="522" y="681" type="line"/>
      <point x="145" y="193" type="line" smooth="yes"/>
      <point x="93" y="128"/>
      <point x="56" y="104"/>
      <point x="-19" y="85" type="curve"/>
      <point x="-34" y="82" type="line"/>
      <point x="-34" y="0" type="line"/>
      <point x="312" y="0" type="line"/>
      <point x="312" y="82" type="line"/>
      <point x="297" y="82" type="line" smooth="yes"/>
      <point x="252" y="82"/>
      <point x="222" y="96"/>
      <point x="222" y="117" type="curve" smooth="yes"/>
      <point x="222" y="125"/>
      <point x="227" y="135"/>
      <point x="238" y="150" type="curve" smooth="yes"/>
      <point x="312" y="248" type="line"/>
      <point x="531" y="248" type="line"/>
      <point x="531" y="168" type="line" smooth="yes"/>
      <point x="531" y="104"/>
      <point x="519" y="90"/>
      <point x="463" y="84" type="curve" smooth="yes"/>
      <point x="443" y="82" type="line"/>
      <point x="443" y="0" type="line"/>
      <point x="1039" y="0" type="line"/>
    </contour>
    <contour>
      <point x="531" y="533" type="line"/>
      <point x="531" y="333" type="line"/>
      <point x="373" y="333" type="line"/>
    </contour>
  </outline>
</glyph>
<glyph name="Ccedilla" format="1">
  <advance width="740"/>
  <unicode hex="00C7"/>
  <outline>
    <contour>
      <point x="385" y="-13" type="line"/>
      <point x="538" y="-17"/>
      <point x="675" y="68"/>
      <point x="724" y="199" type="curve"/>
      <point x="642" y="241" type="line"/>
      <point x="614" y="192"/>
      <point x="592" y="164"/>
      <point x="568" y="141" type="curve" smooth="yes"/>
      <point x="526" y="103"/>
      <point x="469" y="79"/>
      <point x="419" y="79" type="curve" smooth="yes"/>
      <point x="379" y="79"/>
      <point x="337" y="95"/>
      <point x="305" y="123" type="curve" smooth="yes"/>
      <point x="253" y="169"/>
      <point x="227" y="242"/>
      <point x="227" y="342" type="curve" smooth="yes"/>
      <point x="227" y="508"/>
      <point x="295" y="612"/>
      <point x="403" y="612" type="curve" smooth="yes"/>
      <point x="452" y="612"/>
      <point x="500" y="588"/>
      <point x="545" y="541" type="curve" smooth="yes"/>
      <point x="570" y="515"/>
      <point x="583" y="495"/>
      <point x="628" y="416" type="curve"/>
      <point x="705" y="445" type="line"/>
      <point x="621" y="681" type="line"/>
      <point x="552" y="681" type="line"/>
      <point x="544" y="658" type="line"/>
      <point x="496" y="681"/>
      <point x="436" y="694"/>
      <point x="378" y="694" type="curve" smooth="yes"/>
      <point x="295" y="694"/>
      <point x="223" y="672"/>
      <point x="166" y="629" type="curve" smooth="yes"/>
      <point x="84" y="566"/>
      <point x="35" y="460"/>
      <point x="35" y="341" type="curve" smooth="yes"/>
      <point x="35" y="155"/>
      <point x="145" y="27"/>
      <point x="332" y="-8" type="curve"/>
      <point x="324" y="-77" type="line"/>
      <point x="344" y="-75"/>
      <point x="350" y="-75"/>
      <point x="357" y="-75" type="curve" smooth="yes"/>
      <point x="396" y="-75"/>
      <point x="418" y="-90"/>
      <point x="418" y="-116" type="curve" smooth="yes"/>
      <point x="418" y="-135"/>
      <point x="405" y="-148"/>
      <point x="387" y="-148" type="curve" smooth="yes"/>
      <point x="374" y="-148"/>
      <point x="366" y="-144"/>
      <point x="350" y="-131" type="curve"/>
      <point x="337" y="-122"/>
      <point x="331" y="-119"/>
      <point x="319" y="-119" type="curve" smooth="yes"/>
      <point x="299" y="-119"/>
      <point x="285" y="-132"/>
      <point x="285" y="-153" type="curve" smooth="yes"/>
      <point x="285" y="-187"/>
      <point x="327" y="-213"/>
      <point x="384" y="-213" type="curve" smooth="yes"/>
      <point x="452" y="-213"/>
      <point x="501" y="-173"/>
      <point x="501" y="-117" type="curve" smooth="yes"/>
      <point x="501" y="-74"/>
      <point x="467" y="-42"/>
      <point x="421" y="-42" type="curve" smooth="yes"/>
      <point x="413" y="-42"/>
      <point x="408" y="-42"/>
      <point x="385" y="-44" type="curve"/>
    </contour>
  </outline>
</glyph>
<glyph name="Igrave" format="1">
  <advance width="400"/>
  <unicode hex="00CC"/>
  <outline>
    <contour>
      <point x="112" y="168" type="line" smooth="yes"/>
      <point x="112" y="130"/>
      <point x="109" y="115"/>
      <point x="100" y="105" type="curve" smooth="yes"/>
      <point x="91" y="94"/>
      <point x="68" y="86"/>
      <point x="44" y="84" type="curve" smooth="yes"/>
      <point x="20" y="82" type="line"/>
      <point x="20" y="0" type="line"/>
      <point x="379" y="0" type="line"/>
      <point x="379" y="82" type="line"/>
      <point x="355" y="84" type="line" smooth="yes"/>
      <point x="331" y="86"/>
      <point x="308" y="94"/>
      <point x="299" y="105" type="curve" smooth="yes"/>
      <point x="290" y="115"/>
      <point x="287" y="130"/>
      <point x="287" y="168" type="curve" smooth="yes"/>
      <point x="287" y="513" type="line" smooth="yes"/>
      <point x="287" y="551"/>
      <point x="290" y="566"/>
      <point x="299" y="576" type="curve" smooth="yes"/>
      <point x="308" y="587"/>
      <point x="331" y="595"/>
      <point x="355" y="597" type="curve" smooth="yes"/>
      <point x="379" y="599" type="line"/>
      <point x="379" y="681" type="line"/>
      <point x="20" y="681" type="line"/>
      <point x="20" y="599" type="line"/>
      <point x="44" y="597" type="line" smooth="yes"/>
      <point x="68" y="595"/>
      <point x="91" y="587"/>
      <point x="100" y="576" type="curve" smooth="yes"/>
      <point x="109" y="566"/>
      <point x="112" y="551"/>
      <point x="112" y="513" type="curve" smooth="yes"/>
    </contour>
    <contour>
      <point x="259" y="726" type="line"/>
      <point x="279" y="776" type="line"/>
      <point x="174" y="870" type="line" smooth="yes"/>
      <point x="145" y="895"/>
      <point x="114" y="910"/>
      <point x="90" y="910" type="curve" smooth="yes"/>
      <point x="53" y="910"/>
      <point x="20" y="876"/>
      <point x="20" y="837" type="curve" smooth="yes"/>
      <point x="20" y="799"/>
      <point x="48" y="772"/>
      <point x="100" y="761" type="curve" smooth="yes"/>
    </contour>
  </outline>
</glyph>
<glyph name="Iacute" format="1">
  <advance width="400"/>
  <unicode hex="00CD"/>
  <outline>
    <contour>
      <point x="112" y="168" type="line" smooth="yes"/>
      <point x="112" y="130"/>
      <point x="109" y="115"/>
      <point x="100" y="105" type="curve" smooth="yes"/>
      <point x="91" y="94"/>
      <point x="68" y="86"/>
      <point x="44" y="84" type="curve" smooth="yes"/>
      <point x="20" y="82" type="line"/>
      <point x="20" y="0" type="line"/>
      <point x="379" y="0" type="line"/>
      <point x="379" y="82" type="line"/>
      <point x="355" y="84" type="line" smooth="yes"/>
      <point x="331" y="86"/>
      <point x="308" y="94"/>
      <point x="299" y="105" type="curve" smooth="yes"/>
      <point x="290" y="115"/>
      <point x="287" y="130"/>
      <point x="287" y="168" type="curve" smooth="yes"/>
      <point x="287" y="513" type="line" smooth="yes"/>
      <point x="287" y="551"/>
      <point x="290" y="566"/>
      <point x="299" y="576" type="curve" smooth="yes"/>
      <point x="308" y="587"/>
      <point x="331" y="595"/>
      <point x="355" y="597" type="curve" smooth="yes"/>
      <point x="379" y="599" type="line"/>
      <point x="379" y="681" type="line"/>
      <point x="20" y="681" type="line"/>
      <point x="20" y="599" type="line"/>
      <point x="44" y="597" type="line" smooth="yes"/>
      <point x="68" y="595"/>
      <point x="91" y="587"/>
      <point x="100" y="576" type="curve" smooth="yes"/>
      <point x="109" y="566"/>
      <point x="112" y="551"/>
      <point x="112" y="513" type="curve" smooth="yes"/>
    </contour>
    <contour>
      <point x="88" y="726" type="line"/>
      <point x="247" y="761" type="line" smooth="yes"/>
      <point x="299" y="772"/>
      <point x="327" y="799"/>
      <point x="327" y="837" type="curve" smooth="yes"/>
      <point x="327" y="877"/>
      <point x="295" y="910"/>
      <point x="257" y="910" type="curve" smooth="yes"/>
      <point x="232" y="910"/>
      <point x="203" y="896"/>
      <point x="173" y="870" type="curve" smooth="yes"/>
      <point x="68" y="776" type="line"/>
    </contour>
  </outline>
</glyph>
<glyph name="Idieresis" format="1">
  <advance width="400"/>
  <unicode hex="00CF"/>
  <outline>
    <contour>
      <point x="112" y="168" type="line" smooth="yes"/>
      <point x="112" y="130"/>
      <point x="109" y="115"/>
      <point x="100" y="105" type="curve" smooth="yes"/>
      <point x="91" y="94"/>
      <point x="68" y="86"/>
      <point x="44" y="84" type="curve" smooth="yes"/>
      <point x="20" y="82" type="line"/>
      <point x="20" y="0" type="line"/>
      <point x="379" y="0" type="line"/>
      <point x="379" y="82" type="line"/>
      <point x="355" y="84" type="line" smooth="yes"/>
      <point x="331" y="86"/>
      <point x="308" y="94"/>
      <point x="299" y="105" type="curve" smooth="yes"/>
      <point x="290" y="115"/>
      <point x="287" y="130"/>
      <point x="287" y="168" type="curve" smooth="yes"/>
      <point x="287" y="513" type="line" smooth="yes"/>
      <point x="287" y="551"/>
      <point x="290" y="566"/>
      <point x="299" y="576" type="curve" smooth="yes"/>
      <point x="308" y="587"/>
      <point x="331" y="595"/>
      <point x="355" y="597" type="curve" smooth="yes"/>
      <point x="379" y="599" type="line"/>
      <point x="379" y="681" type="line"/>
      <point x="20" y="681" type="line"/>
      <point x="20" y="599" type="line"/>
      <point x="44" y="597" type="line" smooth="yes"/>
      <point x="68" y="595"/>
      <point x="91" y="587"/>
      <point x="100" y="576" type="curve" smooth="yes"/>
      <point x="109" y="566"/>
      <point x="112" y="551"/>
      <point x="112" y="513" type="curve" smooth="yes"/>
    </contour>
    <contour>
      <point x="87" y="877" type="curve" smooth="yes"/>
      <point x="47" y="877"/>
      <point x="18" y="848"/>
      <point x="18" y="808" type="curve" smooth="yes"/>
      <point x="18" y="769"/>
      <point x="49" y="738"/>
      <point x="88" y="738" type="curve" smooth="yes"/>
      <point x="126" y="738"/>
      <point x="157" y="769"/>
      <point x="157" y="805" type="curve" smooth="yes"/>
      <point x="157" y="843"/>
      <point x="124" y="877"/>
    </contour>
    <contour>
      <point x="321" y="877" type="curve" smooth="yes"/>
      <point x="281" y="877"/>
      <point x="252" y="848"/>
      <point x="252" y="808" type="curve" smooth="yes"/>
      <point x="252" y="769"/>
      <point x="283" y="738"/>
      <point x="322" y="738" type="curve" smooth="yes"/>
      <point x="360" y="738"/>
      <point x="391" y="769"/>
      <point x="391" y="805" type="curve" smooth="yes"/>
      <point x="391" y="843"/>
      <point x="358" y="877"/>
    </contour>
  </outline>
</glyph>
<glyph name="Ntilde" format="1">
  <advance width="740"/>
  <unicode hex="00D1"/>
  <outline>
    <contour>
      <point x="315" y="681" type="line"/>
      <point x="20" y="681" type="line"/>
      <point x="20" y="599" type="line"/>
      <point x="40" y="597" type="line" smooth="yes"/>
      <point x="96" y="591"/>
      <point x="108" y="577"/>
      <point x="108" y="513" type="curve" smooth="yes"/>
      <point x="108" y="168" type="line" smooth="yes"/>
      <point x="108" y="104"/>
      <point x="96" y="90"/>
      <point x="40" y="84" type="curve" smooth="yes"/>
      <point x="20" y="82" type="line"/>
      <point x="20" y="0" type="line"/>
      <point x="289" y="0" type="line"/>
      <point x="289" y="82" type="line"/>
      <point x="269" y="84" type="line" smooth="yes"/>
      <point x="213" y="90"/>
      <point x="201" y="104"/>
      <point x="201" y="168" type="curve" smooth="yes"/>
      <point x="201" y="526" type="line"/>
      <point x="512" y="0" type="line"/>
      <point x="636" y="0" type="line"/>
      <point x="636" y="513" type="line" smooth="yes"/>
      <point x="636" y="577"/>
      <point x="648" y="591"/>
      <point x="704" y="597" type="curve" smooth="yes"/>
      <point x="724" y="599" type="line"/>
      <point x="724" y="681" type="line"/>
      <point x="455" y="681" type="line"/>
      <point x="455" y="599" type="line"/>
      <point x="475" y="597" type="line" smooth="yes"/>
      <point x="531" y="591"/>
      <point x="543" y="577"/>
      <point x="543" y="513" type="curve" smooth="yes"/>
      <point x="543" y="288" type="line"/>
    </contour>
    <contour>
      <point x="501" y="878" type="line"/>
      <point x="490" y="859"/>
      <point x="481" y="854"/>
      <point x="460" y="854" type="curve" smooth="yes"/>
      <point x="443" y="854"/>
      <point x="437" y="855"/>
      <point x="394" y="870" type="curve" smooth="yes"/>
      <point x="367" y="880"/>
      <point x="345" y="884"/>
      <point x="325" y="884" type="curve" smooth="yes"/>
      <point x="269" y="884"/>
      <point x="220" y="846"/>
      <point x="199" y="785" type="curve"/>
      <point x="251" y="755" type="line"/>
      <point x="264" y="773"/>
      <point x="273" y="779"/>
      <point x="289" y="779" type="curve" smooth="yes"/>
      <point x="299" y="779"/>
      <point x="314" y="776"/>
      <point x="327" y="772" type="curve" smooth="yes"/>
      <point x="391" y="750"/>
      <point x="399" y="748"/>
      <point x="428" y="748" type="curve" smooth="yes"/>
      <point x="493" y="748"/>
      <point x="529" y="779"/>
      <point x="551" y="853" type="curve"/>
    </contour>
  </outline>
</glyph>
<glyph name="Ograve" format="1">
  <advance width="800"/>
  <unicode hex="00D2"/>
  <outline>
    <contour>
      <point x="405" y="694" type="curve" smooth="yes"/>
      <point x="191" y="694"/>
      <point x="35" y="542"/>
      <point x="35" y="334" type="curve" smooth="yes"/>
      <point x="35" y="217"/>
      <point x="79" y="126"/>
      <point x="168" y="59" type="curve" smooth="yes"/>
      <point x="234" y="10"/>
      <point x="304" y="-13"/>
      <point x="392" y="-13" type="curve" smooth="yes"/>
      <point x="606" y="-13"/>
      <point x="769" y="142"/>
      <point x="769" y="346" type="curve" smooth="yes"/>
      <point x="769" y="457"/>
      <point x="731" y="543"/>
      <point x="654" y="608" type="curve" smooth="yes"/>
      <point x="587" y="664"/>
      <point x="501" y="694"/>
    </contour>
    <contour>
      <point x="406" y="592" type="curve" smooth="yes"/>
      <point x="513" y="592"/>
      <point x="577" y="500"/>
      <point x="577" y="344" type="curve" smooth="yes"/>
      <point x="577" y="192"/>
      <point x="506" y="89"/>
      <point x="400" y="89" type="curve" smooth="yes"/>
      <point x="351" y="89"/>
      <point x="303" y="113"/>
      <point x="276" y="151" type="curve" smooth="yes"/>
      <point x="246" y="194"/>
      <point x="227" y="266"/>
      <point x="227" y="338" type="curve" smooth="yes"/>
      <point x="227" y="489"/>
      <point x="300" y="592"/>
    </contour>
    <contour>
      <point x="477" y="726" type="line"/>
      <point x="497" y="776" type="line"/>
      <point x="392" y="870" type="line" smooth="yes"/>
      <point x="363" y="895"/>
      <point x="332" y="910"/>
      <point x="308" y="910" type="curve" smooth="yes"/>
      <point x="271" y="910"/>
      <point x="238" y="876"/>
      <point x="238" y="837" type="curve" smooth="yes"/>
      <point x="238" y="799"/>
      <point x="266" y="772"/>
      <point x="318" y="761" type="curve" smooth="yes"/>
    </contour>
  </outline>
</glyph>
<glyph name="Ocircumflex" format="1">
  <advance width="800"/>
  <unicode hex="00D4"/>
  <outline>
    <contour>
      <point x="405" y="694" type="curve" smooth="yes"/>
      <point x="191" y="694"/>
      <point x="35" y="542"/>
      <point x="35" y="334" type="curve" smooth="yes"/>
      <point x="35" y="217"/>
      <point x="79" y="126"/>
      <point x="168" y="59" type="curve" smooth="yes"/>
      <point x="234" y="10"/>
      <point x="304" y="-13"/>
      <point x="392" y="-13" type="curve" smooth="yes"/>
      <point x="606" y="-13"/>
      <point x="769" y="142"/>
      <point x="769" y="346" type="curve" smooth="yes"/>
      <point x="769" y="457"/>
      <point x="731" y="543"/>
      <point x="654" y="608" type="curve" smooth="yes"/>
      <point x="587" y="664"/>
      <point x="501" y="694"/>
    </contour>
    <contour>
      <point x="406" y="592" type="curve" smooth="yes"/>
      <point x="513" y="592"/>
      <point x="577" y="500"/>
      <point x="577" y="344" type="curve" smooth="yes"/>
      <point x="577" y="192"/>
      <point x="506" y="89"/>
      <point x="400" y="89" type="curve" smooth="yes"/>
      <point x="351" y="89"/>
      <point x="303" y="113"/>
      <point x="276" y="151" type="curve" smooth="yes"/>
      <point x="246" y="194"/>
      <point x="227" y="266"/>
      <point x="227" y="338" type="curve" smooth="yes"/>
      <point x="227" y="489"/>
      <point x="300" y="592"/>
    </contour>
    <contour>
      <point x="583" y="794" type="line"/>
      <point x="403" y="904" type="line"/>
      <point x="221" y="794" type="line"/>
      <point x="259" y="728" type="line"/>
      <point x="401" y="781" type="line"/>
      <point x="545" y="728" type="line"/>
    </contour>
  </outline>
</glyph>
